<svg width="25" height="24" viewBox="0 0 25 24" fill="none" xmlns="http://www.w3.org/2000/svg">
<path d="M18.5 2C18.7449 2.00003 18.9813 2.08996 19.1644 2.25272C19.3474 2.41547 19.4643 2.63975 19.493 2.883L19.5 3V7C19.5 7.24493 19.41 7.48134 19.2473 7.66437C19.0845 7.84741 18.8603 7.96434 18.617 7.993L18.5 8H15.5V9H18.5C18.6424 9.00005 18.7831 9.0305 18.9127 9.0893C19.0423 9.14811 19.1579 9.23391 19.2517 9.34098C19.3456 9.44804 19.4154 9.57391 19.4567 9.71015C19.498 9.84639 19.5096 9.98987 19.491 10.131L19.471 10.243L18.471 14.243C18.4214 14.4405 18.3126 14.6182 18.1593 14.7522C18.006 14.8862 17.8154 14.9702 17.613 14.993L17.5 15H15.5V21C15.5 21.2449 15.41 21.4813 15.2473 21.6644C15.0845 21.8474 14.8603 21.9643 14.617 21.993L14.5 22H10.5C10.2551 22 10.0187 21.91 9.83563 21.7473C9.65259 21.5845 9.53566 21.3603 9.507 21.117L9.5 21V15H7.5C7.25507 15 7.01866 14.91 6.83563 14.7473C6.65259 14.5845 6.53566 14.3603 6.507 14.117L6.5 14V10C6.50003 9.75507 6.58996 9.51866 6.75272 9.33563C6.91547 9.15259 7.13975 9.03566 7.383 9.007L7.5 9H9.5V8C9.49994 6.44762 10.1016 4.95564 11.1785 3.83753C12.2554 2.71942 13.7237 2.06221 15.275 2.004L15.5 2H18.5Z" fill="#FCA311"/>
</svg>
