<svg width="1368" height="765" viewBox="0 0 1368 765" fill="none" xmlns="http://www.w3.org/2000/svg">
<path d="M44.305 141.029L40.8788 156.926C40.51 158.637 42.3616 159.963 43.8626 159.063L106.439 121.53C107.941 120.629 107.641 118.369 105.956 117.891L89.8364 113.32C89.5706 113.245 89.2856 113.283 89.0488 113.425L45.2306 139.736C44.7566 140.02 44.4215 140.489 44.305 141.029Z" fill="#001D4A"/>
<path d="M96.3468 194.727L41.0799 160.917L46.023 141.596L102.047 176.407L96.3468 194.727Z" fill="#F8F8FF"/>
<path fill-rule="evenodd" clip-rule="evenodd" d="M40.0362 162.623C39.2873 162.165 38.9247 161.272 39.1423 160.421L44.0854 141.1C44.2433 140.483 44.6859 139.978 45.2771 139.74C45.8683 139.502 46.5373 139.561 47.0785 139.897L103.102 174.708C103.876 175.189 104.227 176.131 103.956 177.001L98.2565 195.321C98.0733 195.91 97.6287 196.381 97.0515 196.599C96.4743 196.816 95.8292 196.755 95.3031 196.433L40.0362 162.623ZM96.3468 194.727L102.047 176.407L46.023 141.596L41.0799 160.917L96.3468 194.727Z" fill="#001D4A"/>
<path fill-rule="evenodd" clip-rule="evenodd" d="M57.5977 164.84C57.883 164.367 58.4976 164.215 58.9705 164.5L79.0018 176.583C79.4747 176.868 79.6269 177.482 79.3416 177.955C79.0564 178.428 78.4418 178.58 77.9688 178.295L57.9375 166.213C57.4646 165.928 57.3125 165.313 57.5977 164.84Z" fill="#001D4A"/>
<path d="M112.16 179.942L109.076 119.918L90.1364 115.099L93.2474 178.813L112.16 179.942Z" fill="#F8F8FF"/>
<path fill-rule="evenodd" clip-rule="evenodd" d="M111.074 119.815C111.029 118.94 110.419 118.196 109.57 117.98L90.6295 113.161C90.0146 113.004 89.3619 113.149 88.8707 113.551C88.3794 113.952 88.1078 114.563 88.1388 115.197L91.2498 178.91C91.2996 179.93 92.1092 180.748 93.1282 180.809L112.041 181.938C112.609 181.972 113.165 181.763 113.569 181.362C113.973 180.961 114.187 180.407 114.158 179.839L111.074 119.815ZM112.16 179.942L93.2474 178.813L90.1364 115.099L109.076 119.918L112.16 179.942Z" fill="#001D4A"/>
<path fill-rule="evenodd" clip-rule="evenodd" d="M95.0556 127.741C95.6067 127.705 96.083 128.122 96.1195 128.673L97.354 147.328C97.3904 147.879 96.9733 148.355 96.4222 148.392C95.8711 148.428 95.3948 148.011 95.3583 147.46L94.1238 128.805C94.0874 128.254 94.5045 127.778 95.0556 127.741Z" fill="#001D4A"/>
<path d="M116.528 169.448C122.22 179.395 118.77 192.072 108.824 197.763C98.8773 203.454 86.2004 200.005 80.509 190.059C74.8176 180.112 78.267 167.435 88.2134 161.744C98.1598 156.053 110.837 159.502 116.528 169.448Z" fill="#F8F8FF"/>
<path fill-rule="evenodd" clip-rule="evenodd" d="M118.264 168.455C124.504 179.36 120.722 193.259 109.817 199.499C98.9119 205.739 85.0131 201.957 78.7731 191.052C72.5331 180.147 76.315 166.248 87.2201 160.008C98.1252 153.768 112.024 157.55 118.264 168.455ZM108.824 197.763C118.77 192.072 122.22 179.395 116.528 169.448C110.837 159.502 98.1598 156.053 88.2134 161.744C78.267 167.435 74.8176 180.112 80.509 190.059C86.2004 200.005 98.8773 203.454 108.824 197.763Z" fill="#001D4A"/>
<path fill-rule="evenodd" clip-rule="evenodd" d="M110.03 173.167C113.667 179.524 111.463 187.627 105.105 191.265C98.7475 194.903 90.6446 192.698 87.0068 186.341C83.369 179.983 85.5737 171.88 91.9313 168.242C98.2889 164.604 106.392 166.809 110.03 173.167ZM104.112 189.529C109.511 186.44 111.383 179.559 108.294 174.16C105.204 168.761 98.3235 166.889 92.9246 169.978C87.5258 173.067 85.6535 179.948 88.7427 185.347C91.832 190.746 98.7129 192.618 104.112 189.529Z" fill="#001D4A"/>
<path d="M245.227 419C245.227 437.619 230.133 452.713 211.514 452.713C192.895 452.713 177.801 437.619 177.801 419C177.801 400.381 192.895 385.287 211.514 385.287C230.133 385.287 245.227 400.381 245.227 419Z" fill="#F8F8FF"/>
<path fill-rule="evenodd" clip-rule="evenodd" d="M247.227 419C247.227 438.724 231.238 454.713 211.514 454.713C191.79 454.713 175.801 438.724 175.801 419C175.801 399.276 191.79 383.287 211.514 383.287C231.238 383.287 247.227 399.276 247.227 419ZM211.514 452.713C230.133 452.713 245.227 437.619 245.227 419C245.227 400.381 230.133 385.287 211.514 385.287C192.895 385.287 177.801 400.381 177.801 419C177.801 437.619 192.895 452.713 211.514 452.713Z" fill="#001D4A"/>
<path fill-rule="evenodd" clip-rule="evenodd" d="M207.514 448.713C226.133 448.713 241.227 433.619 241.227 415C241.227 406.709 238.234 399.117 233.269 393.245C240.583 399.429 245.227 408.672 245.227 419C245.227 437.619 230.133 452.713 211.514 452.713C201.186 452.713 191.943 448.069 185.759 440.755C191.631 445.72 199.223 448.713 207.514 448.713Z" fill="#001D4A"/>
<path d="M219.86 436.07C246.725 420.559 264.092 400.342 258.649 390.915C255.359 385.217 244.492 384.764 230.477 388.722C232.356 389.936 234.351 391.532 235.113 392.178C242.3 390.928 247.518 391.687 249.303 394.78C253.265 401.643 238.825 417.398 217.049 429.971C195.273 442.543 174.407 447.171 170.445 440.308C168.526 436.985 170.923 431.577 176.377 425.455C176.001 423.506 175.796 420.66 175.785 419.453C163.789 430.402 157.834 440.979 161.36 447.085C166.802 456.512 192.994 451.581 219.86 436.07Z" fill="#F8F8FF"/>
<path fill-rule="evenodd" clip-rule="evenodd" d="M177.745 414.957L177.785 419.435C177.796 420.55 177.993 423.271 178.341 425.076L178.529 426.047L177.871 426.785C175.221 429.759 173.418 432.449 172.496 434.692C171.561 436.967 171.666 438.423 172.177 439.308C172.705 440.223 173.98 441.066 176.569 441.37C179.113 441.669 182.529 441.386 186.634 440.475C194.818 438.66 205.287 434.452 216.049 428.239C226.81 422.025 235.689 415.063 241.353 408.883C244.194 405.783 246.147 402.967 247.16 400.614C248.192 398.22 248.099 396.695 247.571 395.78C247.096 394.956 246.022 394.19 243.892 393.821C241.78 393.455 238.93 393.544 235.456 394.148L234.535 394.308L233.821 393.704C233.095 393.09 231.172 391.553 229.391 390.401L225.677 387.999L229.934 386.797C237.061 384.784 243.527 383.85 248.72 384.202C253.84 384.549 258.235 386.198 260.381 389.915C262.158 392.992 261.928 396.708 260.538 400.461C259.143 404.229 256.482 408.33 252.887 412.514C245.685 420.898 234.434 429.964 220.86 437.802C207.285 445.639 193.807 450.85 182.946 452.895C177.525 453.916 172.643 454.17 168.682 453.494C164.737 452.821 161.404 451.162 159.628 448.085C157.334 444.112 158.34 439.107 160.987 434.144C163.682 429.092 168.347 423.535 174.437 417.976L177.745 414.957ZM233.029 388.041C245.801 384.84 255.562 385.568 258.649 390.915C264.092 400.342 246.725 420.559 219.86 436.07C192.994 451.581 166.802 456.512 161.36 447.085C158.028 441.314 163.164 431.549 173.865 421.252C174.487 420.654 175.127 420.054 175.785 419.453C175.791 420.033 175.841 420.99 175.933 422.045C176.033 423.186 176.182 424.442 176.377 425.455C170.923 431.577 168.526 436.985 170.445 440.308C174.407 447.171 195.273 442.543 217.049 429.971C238.825 417.398 253.265 401.643 249.303 394.78C247.518 391.687 242.3 390.928 235.113 392.178C234.643 391.78 233.705 391.021 232.614 390.212C231.935 389.71 231.198 389.188 230.477 388.722C231.34 388.478 232.191 388.251 233.029 388.041Z" fill="#001D4A"/>
<path fill-rule="evenodd" clip-rule="evenodd" d="M256.649 389.915C262.092 399.342 244.725 419.559 217.86 435.07C195.61 447.916 173.823 453.505 163.901 449.692C172.606 455.292 195.966 449.865 219.86 436.07C246.725 420.559 264.092 400.342 258.649 390.915C257.714 389.295 256.166 388.099 254.108 387.308C255.191 388.005 256.047 388.872 256.649 389.915ZM233.744 391.072C234.334 391.532 234.817 391.927 235.113 392.178C239.606 391.397 243.329 391.4 245.925 392.268C243.555 390.537 239.263 390.19 233.744 391.072ZM176.014 422.894C175.45 423.39 174.837 423.955 174.377 424.455C170.147 429.051 166.526 435.985 168.445 439.308C169.114 440.468 170.266 441.299 171.823 441.82C171.247 441.399 170.784 440.896 170.445 440.308C168.526 436.985 170.923 431.577 176.377 425.455C176.229 424.689 176.108 423.784 176.014 422.894Z" fill="#001D4A"/>
<path fill-rule="evenodd" clip-rule="evenodd" d="M246.952 388.293C244.503 388.139 241.796 388.421 239.308 388.876C239.036 388.925 238.776 388.745 238.726 388.474C238.677 388.202 238.857 387.941 239.128 387.892C241.661 387.429 244.455 387.134 247.015 387.295C249.564 387.455 251.955 388.072 253.608 389.506C253.817 389.687 253.839 390.003 253.658 390.211C253.478 390.42 253.162 390.442 252.953 390.262C251.544 389.039 249.414 388.448 246.952 388.293Z" fill="#001D4A"/>
<path fill-rule="evenodd" clip-rule="evenodd" d="M197.226 444.208C197.456 444.71 197.235 445.304 196.733 445.534C188.165 449.461 177.667 450.644 173.467 450.75C172.915 450.764 172.456 450.327 172.442 449.775C172.428 449.223 172.864 448.764 173.416 448.75C177.466 448.648 187.668 447.489 195.9 443.716C196.402 443.486 196.996 443.706 197.226 444.208Z" fill="#F8F8FF"/>
<path d="M233.375 411.509C233.375 412.51 232.563 413.321 231.562 413.321C230.561 413.321 229.75 412.51 229.75 411.509C229.75 410.508 230.561 409.696 231.562 409.696C232.563 409.696 233.375 410.508 233.375 411.509Z" fill="#001D4A"/>
<path d="M203.389 395.057C203.389 396.058 202.578 396.87 201.577 396.87C200.576 396.87 199.764 396.058 199.764 395.057C199.764 394.056 200.576 393.245 201.577 393.245C202.578 393.245 203.389 394.056 203.389 395.057Z" fill="#001D4A"/>
<path d="M190.192 408.884C190.192 409.885 189.38 410.696 188.379 410.696C187.378 410.696 186.567 409.885 186.567 408.884C186.567 407.883 187.378 407.071 188.379 407.071C189.38 407.071 190.192 407.883 190.192 408.884Z" fill="#001D4A"/>
<path d="M199.129 427.134C199.129 428.687 197.87 429.946 196.317 429.946C194.764 429.946 193.504 428.687 193.504 427.134C193.504 425.581 194.764 424.321 196.317 424.321C197.87 424.321 199.129 425.581 199.129 427.134Z" fill="#001D4A"/>
<path d="M211.774 408.696C211.774 410.25 210.515 411.509 208.961 411.509C207.408 411.509 206.149 410.25 206.149 408.696C206.149 407.143 207.408 405.884 208.961 405.884C210.515 405.884 211.774 407.143 211.774 408.696Z" fill="#001D4A"/>
<path d="M225.654 396.87C225.654 398.423 224.395 399.682 222.841 399.682C221.288 399.682 220.029 398.423 220.029 396.87C220.029 395.316 221.288 394.057 222.841 394.057C224.395 394.057 225.654 395.316 225.654 396.87Z" fill="#001D4A"/>
<path d="M221.118 424.321C221.118 425.875 219.859 427.134 218.306 427.134C216.752 427.134 215.493 425.875 215.493 424.321C215.493 422.768 216.752 421.509 218.306 421.509C219.859 421.509 221.118 422.768 221.118 424.321Z" fill="#001D4A"/>
<path d="M1207.79 88.087C1206.4 85.6015 1207.29 82.4599 1209.78 81.0699L1285.98 38.4567C1288.46 37.0668 1291.6 37.9549 1292.99 40.4403L1320.92 90.3765C1322.31 92.8619 1321.42 96.0036 1318.94 97.3935L1242.74 140.007C1240.25 141.397 1237.11 140.509 1235.72 138.023L1207.79 88.087Z" fill="#001D4A"/>
<path d="M1201.42 86.2846C1200.03 83.7992 1200.92 80.6575 1203.4 79.2676L1279.6 36.6544C1282.09 35.2644 1285.23 36.1525 1286.62 38.638L1314.54 88.5741C1315.93 91.0596 1315.05 94.2012 1312.56 95.5912L1236.36 138.204C1233.88 139.594 1230.73 138.706 1229.34 136.221L1201.42 86.2846Z" fill="#F8F8FF"/>
<path fill-rule="evenodd" clip-rule="evenodd" d="M1202.56 77.7675L1278.76 35.1543C1282.08 33.301 1286.27 34.4851 1288.12 37.7991L1316.04 87.7352C1317.9 91.0491 1316.71 95.238 1313.4 97.0913L1237.2 139.704C1233.89 141.558 1229.7 140.374 1227.84 137.06L1199.92 87.1236C1198.07 83.8096 1199.25 79.6207 1202.56 77.7675ZM1203.4 79.2676C1200.92 80.6575 1200.03 83.7992 1201.42 86.2847L1229.34 136.221C1230.73 138.706 1233.88 139.594 1236.36 138.204L1312.56 95.5912C1315.05 94.2012 1315.93 91.0596 1314.54 88.5741L1286.62 38.638C1285.23 36.1525 1282.09 35.2644 1279.6 36.6544L1203.4 79.2676Z" fill="#001D4A"/>
<path d="M1211.99 92.8031C1211.07 91.1462 1211.66 89.0517 1213.32 88.1251L1248.21 68.6147C1249.86 67.688 1251.96 68.2801 1252.88 69.9371L1263.47 88.8707C1264.4 90.5277 1263.81 92.6221 1262.15 93.5487L1227.26 113.059C1225.6 113.986 1223.51 113.394 1222.58 111.737L1211.99 92.8031Z" fill="#001D4A"/>
<path fill-rule="evenodd" clip-rule="evenodd" d="M1225.75 118.774C1225.29 117.947 1225.58 116.899 1226.4 116.432L1264.9 94.6782C1265.72 94.2112 1266.77 94.5025 1267.24 95.3289C1267.7 96.1553 1267.41 97.2038 1266.59 97.6709L1228.1 119.424C1227.27 119.891 1226.22 119.6 1225.75 118.774Z" fill="#001D4A"/>
<path fill-rule="evenodd" clip-rule="evenodd" d="M1228.41 122.954C1228.17 122.54 1228.32 122.016 1228.74 121.785L1258.38 105.207C1258.79 104.975 1259.32 105.123 1259.55 105.537C1259.78 105.952 1259.63 106.475 1259.22 106.707L1229.57 123.285C1229.16 123.516 1228.64 123.368 1228.41 122.954Z" fill="#001D4A"/>
<path fill-rule="evenodd" clip-rule="evenodd" d="M1232.58 130.413C1232.34 129.998 1232.49 129.475 1232.91 129.243L1262.55 112.665C1262.96 112.433 1263.49 112.581 1263.72 112.996C1263.95 113.41 1263.8 113.934 1263.39 114.165L1233.75 130.743C1233.33 130.975 1232.81 130.827 1232.58 130.413Z" fill="#001D4A"/>
<path fill-rule="evenodd" clip-rule="evenodd" d="M1229.97 125.749C1229.74 125.334 1229.88 124.811 1230.3 124.579L1245.5 116.076C1245.92 115.844 1246.44 115.992 1246.67 116.406C1246.9 116.821 1246.76 117.344 1246.34 117.576L1231.14 126.079C1230.72 126.311 1230.2 126.163 1229.97 125.749Z" fill="#001D4A"/>
<path fill-rule="evenodd" clip-rule="evenodd" d="M1233.86 132.712C1233.63 132.298 1233.78 131.775 1234.19 131.543L1245.31 125.326C1245.72 125.095 1246.25 125.243 1246.48 125.657C1246.71 126.071 1246.56 126.595 1246.15 126.826L1235.03 133.043C1234.62 133.275 1234.09 133.127 1233.86 132.712Z" fill="#001D4A"/>
<path fill-rule="evenodd" clip-rule="evenodd" d="M1274.52 55.7438C1274.29 55.3296 1274.44 54.806 1274.85 54.5743L1287.18 47.6788C1287.59 47.4471 1288.12 47.5951 1288.35 48.0094C1288.58 48.4236 1288.43 48.9472 1288.02 49.1789L1275.69 56.0744C1275.27 56.3061 1274.75 56.1581 1274.52 55.7438Z" fill="#001D4A"/>
<path fill-rule="evenodd" clip-rule="evenodd" d="M1276.23 58.8032C1276 58.389 1276.15 57.8654 1276.56 57.6337L1283.29 53.8696C1283.71 53.638 1284.23 53.786 1284.46 54.2002C1284.69 54.6145 1284.55 55.1381 1284.13 55.3697L1277.4 59.1338C1276.99 59.3655 1276.46 59.2175 1276.23 58.8032Z" fill="#001D4A"/>
<path fill-rule="evenodd" clip-rule="evenodd" d="M1291.51 86.1318C1291.28 85.7175 1291.43 85.1939 1291.84 84.9623L1304.17 78.0667C1304.59 77.8351 1305.11 77.9831 1305.34 78.3973C1305.58 78.8116 1305.43 79.3352 1305.01 79.5668L1292.68 86.4624C1292.27 86.694 1291.74 86.546 1291.51 86.1318Z" fill="#001D4A"/>
<path fill-rule="evenodd" clip-rule="evenodd" d="M1293.22 89.1911C1292.99 88.7769 1293.14 88.2533 1293.56 88.0216L1300.29 84.2575C1300.7 84.0259 1301.22 84.1739 1301.46 84.5881C1301.69 85.0024 1301.54 85.526 1301.13 85.7576L1294.39 89.5217C1293.98 89.7534 1293.46 89.6054 1293.22 89.1911Z" fill="#001D4A"/>
<path fill-rule="evenodd" clip-rule="evenodd" d="M1282.37 69.7761C1282.13 69.3619 1282.28 68.8383 1282.7 68.6066L1295.03 61.7111C1295.44 61.4794 1295.97 61.6274 1296.2 62.0417C1296.43 62.4559 1296.28 62.9795 1295.87 63.2112L1283.54 70.1067C1283.12 70.3384 1282.6 70.1904 1282.37 69.7761Z" fill="#001D4A"/>
<path fill-rule="evenodd" clip-rule="evenodd" d="M1284.08 72.8355C1283.85 72.4212 1283.99 71.8976 1284.41 71.666L1291.14 67.9019C1291.55 67.6702 1292.08 67.8182 1292.31 68.2325C1292.54 68.6467 1292.39 69.1703 1291.98 69.402L1285.25 73.1661C1284.83 73.3977 1284.31 73.2497 1284.08 72.8355Z" fill="#001D4A"/>
<path fill-rule="evenodd" clip-rule="evenodd" d="M1256.95 62.5927L1269.12 55.7901C1270.77 54.8635 1272.87 55.4556 1273.79 57.1125L1278.2 64.9879C1279.12 66.6449 1278.53 68.7393 1276.88 69.6659L1264.71 76.4686C1263.05 77.3952 1260.96 76.8031 1260.03 75.1461L1255.63 67.2708C1254.7 65.6138 1255.29 63.5194 1256.95 62.5927ZM1257.79 64.0929C1256.96 64.5562 1256.67 65.6034 1257.13 66.4319L1261.53 74.3072C1262 75.1357 1263.04 75.4318 1263.87 74.9684L1276.04 68.1658C1276.87 67.7025 1277.16 66.6553 1276.7 65.8268L1272.29 57.9515C1271.83 57.123 1270.78 56.8269 1269.95 57.2902L1257.79 64.0929Z" fill="#001D4A"/>
<path d="M1240.74 87.6101L1235.71 87.0531C1234.32 86.8991 1233.34 88.3801 1234.02 89.6003L1236.86 94.6796C1237.54 95.8932 1239.31 95.8405 1239.91 94.5885L1242.1 90.0663C1242.61 88.9982 1241.92 87.7408 1240.74 87.6101Z" fill="#F8F8FF"/>
<path fill-rule="evenodd" clip-rule="evenodd" d="M1206.89 81.7001L1280.04 40.7883C1281.34 40.0658 1282.97 40.5274 1283.69 41.8195C1284.42 43.1116 1283.95 44.7448 1282.66 45.4674L1209.5 86.3791C1208.21 87.1017 1206.58 86.64 1205.86 85.3479C1205.13 84.0559 1205.6 82.4227 1206.89 81.7001ZM1207.73 83.2002C1207.26 83.4595 1207.1 84.0454 1207.36 84.509C1207.62 84.9726 1208.2 85.1383 1208.67 84.879L1281.82 43.9673C1282.29 43.708 1282.45 43.122 1282.19 42.6584C1281.93 42.1948 1281.35 42.0292 1280.88 42.2884L1207.73 83.2002Z" fill="#001D4A"/>
<path fill-rule="evenodd" clip-rule="evenodd" d="M1265.12 77.2027L1277.29 70.4001C1278.94 69.4735 1281.04 70.0655 1281.96 71.7225L1286.37 79.5979C1287.3 81.2548 1286.7 83.3493 1285.05 84.2759L1272.88 91.0785C1271.22 92.0051 1269.13 91.4131 1268.2 89.7561L1263.8 81.8807C1262.87 80.2238 1263.47 78.1293 1265.12 77.2027ZM1265.96 78.7028C1265.13 79.1661 1264.84 80.2133 1265.3 81.0418L1269.7 88.9172C1270.17 89.7457 1271.21 90.0417 1272.04 89.5784L1284.21 82.7758C1285.04 82.3125 1285.33 81.2653 1284.87 80.4368L1280.46 72.5614C1280 71.7329 1278.95 71.4369 1278.13 71.9002L1265.96 78.7028Z" fill="#001D4A"/>
<path fill-rule="evenodd" clip-rule="evenodd" d="M1273.82 92.7513L1285.98 85.9486C1287.64 85.022 1289.73 85.6141 1290.66 87.2711L1295.06 95.1464C1295.99 96.8034 1295.4 98.8978 1293.74 99.8244L1281.58 106.627C1279.92 107.554 1277.83 106.962 1276.9 105.305L1272.49 97.4293C1271.57 95.7723 1272.16 93.6779 1273.82 92.7513ZM1274.66 94.2514C1273.83 94.7147 1273.53 95.7619 1274 96.5904L1278.4 104.466C1278.86 105.294 1279.91 105.59 1280.74 105.127L1292.9 98.3243C1293.73 97.861 1294.03 96.8138 1293.56 95.9853L1289.16 88.11C1288.7 87.2815 1287.65 86.9854 1286.82 87.4488L1274.66 94.2514Z" fill="#001D4A"/>
<path fill-rule="evenodd" clip-rule="evenodd" d="M1266.6 67.0899C1266.77 67.3933 1267.22 67.3801 1267.37 67.0671L1268 65.7467C1268.13 65.4797 1267.96 65.1653 1267.67 65.1326L1266.2 64.97C1265.85 64.9315 1265.6 65.3018 1265.78 65.6068L1266.6 67.0899ZM1266.39 63.2617L1267.85 63.4243C1269.33 63.5877 1270.2 65.1595 1269.55 66.4945L1268.91 67.815C1268.16 69.38 1265.95 69.4458 1265.1 67.9288L1264.28 66.4457C1263.42 64.9205 1264.65 63.0692 1266.39 63.2617Z" fill="#001D4A"/>
<path fill-rule="evenodd" clip-rule="evenodd" d="M1275.1 82.279C1275.27 82.5824 1275.71 82.5692 1275.86 82.2562L1276.5 80.9358C1276.63 80.6688 1276.45 80.3544 1276.16 80.3218L1274.69 80.1591C1274.34 80.1206 1274.1 80.4909 1274.27 80.7959L1275.1 82.279ZM1274.88 78.4508L1276.35 78.6135C1277.82 78.7768 1278.69 80.3486 1278.05 81.6836L1277.41 83.0041C1276.65 84.5691 1274.45 84.635 1273.6 83.1179L1272.77 81.6348C1271.92 80.1096 1273.14 78.2583 1274.88 78.4508Z" fill="#001D4A"/>
<path fill-rule="evenodd" clip-rule="evenodd" d="M1283.68 97.6284C1283.85 97.9318 1284.29 97.9186 1284.45 97.6056L1285.08 96.2852C1285.21 96.0181 1285.04 95.7038 1284.74 95.6711L1283.28 95.5085C1282.93 95.47 1282.68 95.8402 1282.85 96.1453L1283.68 97.6284ZM1283.47 93.8002L1284.93 93.9628C1286.41 94.1262 1287.28 95.698 1286.63 97.033L1285.99 98.3535C1285.24 99.9185 1283.03 99.9843 1282.18 98.4673L1281.35 96.9842C1280.5 95.459 1281.73 93.6077 1283.47 93.8002Z" fill="#001D4A"/>
<path d="M982.965 136.617C983.702 132.61 987.547 129.96 991.553 130.697L1046.14 140.736C1050.15 141.473 1052.8 145.318 1052.06 149.324L1038.46 223.256C1037.73 227.263 1033.88 229.913 1029.87 229.176L975.288 219.137C971.281 218.4 968.631 214.555 969.368 210.549L982.965 136.617Z" fill="#001D4A"/>
<path d="M979.018 130.891C979.755 126.884 983.6 124.234 987.606 124.971L1042.19 135.01C1046.2 135.747 1048.85 139.592 1048.11 143.598L1034.52 217.53C1033.78 221.537 1029.93 224.187 1025.93 223.45L971.341 213.411C967.335 212.674 964.684 208.829 965.421 204.823L979.018 130.891Z" fill="#F8F8FF"/>
<path fill-rule="evenodd" clip-rule="evenodd" d="M987.94 123.157L1042.53 133.196C1047.53 134.117 1050.85 138.923 1049.93 143.931L1036.33 217.864C1035.41 222.872 1030.6 226.185 1025.59 225.264L971.007 215.225C965.999 214.304 962.686 209.497 963.607 204.49L977.204 130.557C978.125 125.549 982.932 122.236 987.94 123.157ZM987.606 124.971C983.6 124.234 979.755 126.884 979.018 130.891L965.421 204.823C964.684 208.829 967.335 212.674 971.341 213.411L1025.93 223.45C1029.93 224.187 1033.78 221.537 1034.52 217.53L1048.11 143.598C1048.85 139.592 1046.2 135.747 1042.19 135.01L987.606 124.971Z" fill="#001D4A"/>
<path d="M986.57 136.925C986.938 134.921 988.861 133.596 990.864 133.965L1036.9 142.431C1038.9 142.799 1040.23 144.722 1039.86 146.725L1038.3 155.224C1037.93 157.227 1036 158.552 1034 158.184L987.967 149.717C985.963 149.349 984.638 147.426 985.007 145.423L986.57 136.925Z" fill="#001D4A"/>
<path fill-rule="evenodd" clip-rule="evenodd" d="M986.356 156.045L994.13 157.475C996.133 157.843 997.458 159.766 997.09 161.769L996.791 163.395C996.422 165.398 994.5 166.723 992.497 166.355L984.723 164.925C982.72 164.557 981.395 162.634 981.763 160.631L982.062 159.005C982.431 157.002 984.353 155.677 986.356 156.045ZM986.023 157.859C985.021 157.674 984.06 158.337 983.876 159.338L983.577 160.964C983.393 161.966 984.055 162.927 985.057 163.111L992.83 164.541C993.832 164.725 994.793 164.063 994.977 163.061L995.276 161.435C995.461 160.434 994.798 159.472 993.796 159.288L986.023 157.859Z" fill="#001D4A"/>
<path fill-rule="evenodd" clip-rule="evenodd" d="M984.006 168.827L991.779 170.256C993.782 170.625 995.108 172.547 994.739 174.55L994.44 176.176C994.072 178.18 992.149 179.505 990.146 179.136L982.373 177.707C980.369 177.338 979.044 175.416 979.413 173.413L979.712 171.787C980.08 169.784 982.003 168.458 984.006 168.827ZM983.672 170.64C982.671 170.456 981.709 171.119 981.525 172.12L981.226 173.746C981.042 174.748 981.704 175.709 982.706 175.893L990.48 177.323C991.481 177.507 992.442 176.844 992.627 175.843L992.926 174.217C993.11 173.215 992.447 172.254 991.446 172.07L983.672 170.64Z" fill="#001D4A"/>
<path fill-rule="evenodd" clip-rule="evenodd" d="M981.528 182.3L989.301 183.73C991.304 184.098 992.63 186.02 992.261 188.024L991.962 189.65C991.594 191.653 989.671 192.978 987.668 192.609L979.895 191.18C977.892 190.811 976.566 188.889 976.935 186.886L977.234 185.26C977.602 183.257 979.525 181.932 981.528 182.3ZM981.194 184.113C980.193 183.929 979.231 184.592 979.047 185.593L978.748 187.219C978.564 188.221 979.227 189.182 980.228 189.366L988.002 190.796C989.003 190.98 989.965 190.318 990.149 189.316L990.448 187.69C990.632 186.689 989.969 185.727 988.968 185.543L981.194 184.113Z" fill="#001D4A"/>
<path fill-rule="evenodd" clip-rule="evenodd" d="M979.05 195.773L986.823 197.203C988.827 197.572 990.152 199.494 989.783 201.497L989.484 203.123C989.116 205.126 987.193 206.451 985.19 206.083L977.417 204.653C975.414 204.285 974.088 202.362 974.457 200.359L974.756 198.733C975.124 196.73 977.047 195.405 979.05 195.773ZM978.716 197.587C977.715 197.403 976.754 198.065 976.569 199.067L976.27 200.693C976.086 201.694 976.749 202.656 977.75 202.84L985.524 204.27C986.525 204.454 987.487 203.791 987.671 202.79L987.97 201.164C988.154 200.162 987.491 199.201 986.49 199.017L978.716 197.587Z" fill="#001D4A"/>
<path fill-rule="evenodd" clip-rule="evenodd" d="M1006.39 159.73L1014.17 161.16C1016.17 161.528 1017.5 163.451 1017.13 165.454L1016.83 167.08C1016.46 169.083 1014.54 170.408 1012.53 170.04L1004.76 168.61C1002.76 168.242 1001.43 166.319 1001.8 164.316L1002.1 162.69C1002.47 160.687 1004.39 159.362 1006.39 159.73ZM1006.06 161.544C1005.06 161.359 1004.1 162.022 1003.91 163.024L1003.61 164.65C1003.43 165.651 1004.09 166.612 1005.09 166.797L1012.87 168.226C1013.87 168.41 1014.83 167.748 1015.01 166.746L1015.31 165.12C1015.5 164.119 1014.84 163.157 1013.83 162.973L1006.06 161.544Z" fill="#001D4A"/>
<path fill-rule="evenodd" clip-rule="evenodd" d="M1004.04 172.512L1011.82 173.942C1013.82 174.31 1015.14 176.232 1014.78 178.236L1014.48 179.862C1014.11 181.865 1012.19 183.19 1010.18 182.821L1002.41 181.392C1000.41 181.023 999.082 179.101 999.45 177.098L999.749 175.472C1000.12 173.469 1002.04 172.144 1004.04 172.512ZM1003.71 174.325C1002.71 174.141 1001.75 174.804 1001.56 175.805L1001.26 177.431C1001.08 178.433 1001.74 179.394 1002.74 179.578L1010.52 181.008C1011.52 181.192 1012.48 180.53 1012.66 179.528L1012.96 177.902C1013.15 176.9 1012.48 175.939 1011.48 175.755L1003.71 174.325Z" fill="#001D4A"/>
<path fill-rule="evenodd" clip-rule="evenodd" d="M1001.57 185.985L1009.34 187.415C1011.34 187.783 1012.67 189.706 1012.3 191.709L1012 193.335C1011.63 195.338 1009.71 196.663 1007.71 196.295L999.932 194.865C997.929 194.497 996.604 192.574 996.972 190.571L997.271 188.945C997.64 186.942 999.562 185.617 1001.57 185.985ZM1001.23 187.799C1000.23 187.614 999.269 188.277 999.085 189.278L998.786 190.904C998.601 191.906 999.264 192.867 1000.27 193.051L1008.04 194.481C1009.04 194.665 1010 194.003 1010.19 193.001L1010.49 191.375C1010.67 190.374 1010.01 189.412 1009.01 189.228L1001.23 187.799Z" fill="#001D4A"/>
<path fill-rule="evenodd" clip-rule="evenodd" d="M999.087 199.459L1006.86 200.888C1008.86 201.257 1010.19 203.179 1009.82 205.182L1009.52 206.808C1009.15 208.811 1007.23 210.137 1005.23 209.768L997.454 208.338C995.451 207.97 994.126 206.048 994.494 204.044L994.793 202.419C995.162 200.415 997.084 199.09 999.087 199.459ZM998.754 201.272C997.752 201.088 996.791 201.75 996.607 202.752L996.308 204.378C996.123 205.38 996.786 206.341 997.788 206.525L1005.56 207.955C1006.56 208.139 1007.52 207.476 1007.71 206.475L1008.01 204.849C1008.19 203.847 1007.53 202.886 1006.53 202.702L998.754 201.272Z" fill="#001D4A"/>
<path fill-rule="evenodd" clip-rule="evenodd" d="M1025.91 163.32L1033.69 164.75C1035.69 165.118 1037.01 167.041 1036.65 169.044L1036.35 170.67C1035.98 172.673 1034.06 173.998 1032.05 173.63L1024.28 172.2C1022.28 171.831 1020.95 169.909 1021.32 167.906L1021.62 166.28C1021.99 164.277 1023.91 162.952 1025.91 163.32ZM1025.58 165.133C1024.58 164.949 1023.62 165.612 1023.43 166.613L1023.13 168.239C1022.95 169.241 1023.61 170.202 1024.61 170.386L1032.39 171.816C1033.39 172 1034.35 171.338 1034.53 170.336L1034.83 168.71C1035.02 167.709 1034.35 166.747 1033.35 166.563L1025.58 165.133Z" fill="#001D4A"/>
<path fill-rule="evenodd" clip-rule="evenodd" d="M1022.53 175.911L1030.3 177.341C1032.3 177.709 1033.63 179.632 1033.26 181.635L1028 210.207C1027.64 212.21 1025.71 213.535 1023.71 213.167L1015.94 211.737C1013.93 211.369 1012.61 209.446 1012.98 207.443L1018.23 178.871C1018.6 176.868 1020.52 175.543 1022.53 175.911ZM1022.19 177.725C1021.19 177.54 1020.23 178.203 1020.04 179.204L1014.79 207.777C1014.61 208.778 1015.27 209.74 1016.27 209.924L1024.04 211.353C1025.05 211.538 1026.01 210.875 1026.19 209.873L1031.45 181.301C1031.63 180.3 1030.97 179.338 1029.97 179.154L1022.19 177.725Z" fill="#001D4A"/>
<path fill-rule="evenodd" clip-rule="evenodd" d="M1020.65 192.159C1020.75 191.658 1021.23 191.327 1021.73 191.419L1025.53 192.118C1026.03 192.21 1026.36 192.69 1026.27 193.191C1026.18 193.692 1025.69 194.023 1025.19 193.931L1021.39 193.232C1020.89 193.14 1020.56 192.66 1020.65 192.159Z" fill="#001D4A"/>
<path fill-rule="evenodd" clip-rule="evenodd" d="M1020.03 195.527C1020.13 195.027 1020.61 194.695 1021.11 194.787L1024.91 195.486C1025.41 195.578 1025.74 196.059 1025.65 196.56C1025.56 197.06 1025.08 197.392 1024.57 197.3L1020.77 196.601C1020.27 196.509 1019.94 196.028 1020.03 195.527Z" fill="#001D4A"/>
<path fill-rule="evenodd" clip-rule="evenodd" d="M1029.03 146.591C1029.29 145.189 1030.64 144.261 1032.04 144.519L1032.83 144.665C1034.24 144.923 1035.16 146.269 1034.91 147.671L1034.09 152.136C1033.83 153.539 1032.48 154.466 1031.08 154.208L1030.28 154.062C1028.88 153.804 1027.95 152.459 1028.21 151.056L1029.03 146.591ZM1031.71 146.332C1031.31 146.259 1030.92 146.524 1030.85 146.924L1030.03 151.39C1029.95 151.791 1030.22 152.175 1030.62 152.249L1031.41 152.395C1031.81 152.469 1032.2 152.204 1032.27 151.803L1033.09 147.337C1033.17 146.937 1032.9 146.552 1032.5 146.479L1031.71 146.332Z" fill="#F8F8FF"/>
<path d="M404.075 593.63C403.754 592.573 404.352 591.457 405.409 591.136L407.005 590.653C408.062 590.333 409.179 590.93 409.499 591.987L414.334 607.95C414.655 609.007 414.057 610.124 413 610.444L411.404 610.928C410.347 611.248 409.23 610.651 408.91 609.593L404.075 593.63Z" fill="#F8F8FF"/>
<path fill-rule="evenodd" clip-rule="evenodd" d="M404.829 589.222L406.425 588.739C408.539 588.098 410.772 589.293 411.413 591.407L416.249 607.37C416.889 609.485 415.694 611.718 413.58 612.358L411.984 612.842C409.87 613.482 407.636 612.288 406.996 610.173L402.16 594.21C401.52 592.096 402.715 589.863 404.829 589.222ZM405.409 591.136C404.352 591.457 403.754 592.573 404.075 593.63L408.91 609.593C409.23 610.651 410.347 611.248 411.404 610.928L413 610.444C414.057 610.124 414.655 609.007 414.334 607.95L409.499 591.987C409.179 590.93 408.062 590.333 407.005 590.653L405.409 591.136Z" fill="#001D4A"/>
<path d="M432.863 633.531L453.666 669.058C454.676 670.811 453.79 673.048 451.853 673.635L451.441 673.76C450.163 674.147 448.779 673.684 447.991 672.606L422.91 638.375C421.632 636.627 422.463 634.14 424.536 633.512L429.227 632.091C430.626 631.667 432.133 632.264 432.863 633.531Z" fill="#001D4A"/>
<path d="M405.393 641.852L407.801 682.951C407.935 684.97 409.913 686.339 411.85 685.753L412.262 685.628C413.54 685.241 414.434 684.088 414.491 682.754L416.361 640.359C416.454 638.195 414.382 636.588 412.309 637.216L407.619 638.637C406.219 639.061 405.297 640.393 405.393 641.852Z" fill="#001D4A"/>
<path d="M414.866 637.824L427.61 675.288C428.15 676.822 429.802 677.658 431.358 677.187C432.89 676.723 433.799 675.152 433.439 673.593L424.33 635.049C423.814 632.813 421.513 631.48 419.316 632.145L417.456 632.709C415.293 633.364 414.114 635.692 414.866 637.824Z" fill="#001D4A"/>
<path d="M365.763 614.178C365.443 613.12 366.041 612.004 367.098 611.684L448.372 587.064C449.429 586.744 450.546 587.341 450.866 588.398L465.694 637.347C466.014 638.404 465.417 639.52 464.359 639.841L383.085 664.46C382.028 664.781 380.911 664.183 380.591 663.126L365.763 614.178Z" fill="#F8F8FF"/>
<path fill-rule="evenodd" clip-rule="evenodd" d="M366.518 609.77L447.792 585.15C449.907 584.509 452.14 585.704 452.78 587.818L467.608 636.767C468.248 638.881 467.054 641.114 464.939 641.755L383.665 666.375C381.551 667.015 379.317 665.82 378.677 663.706L363.849 614.757C363.209 612.643 364.404 610.41 366.518 609.77ZM367.098 611.684C366.041 612.004 365.443 613.12 365.763 614.178L380.591 663.126C380.911 664.183 382.028 664.781 383.085 664.46L464.359 639.841C465.417 639.52 466.014 638.404 465.694 637.347L450.866 588.398C450.546 587.341 449.429 586.744 448.372 587.064L367.098 611.684Z" fill="#001D4A"/>
<path d="M390.335 659.232C390.015 658.175 390.612 657.058 391.669 656.738L399.716 654.301C400.773 653.98 401.889 654.578 402.21 655.635L402.471 656.498C402.791 657.555 402.194 658.672 401.137 658.992L393.09 661.429C392.033 661.75 390.917 661.152 390.596 660.095L390.335 659.232Z" fill="#001D4A"/>
<path d="M361.843 611.275C361.536 610.263 362.108 609.194 363.12 608.887L452.144 581.92C453.157 581.613 454.226 582.185 454.532 583.197C454.839 584.209 454.267 585.278 453.255 585.585L364.23 612.552C363.218 612.859 362.149 612.287 361.843 611.275Z" fill="#F8F8FF"/>
<path fill-rule="evenodd" clip-rule="evenodd" d="M362.54 606.973L451.565 580.006C453.634 579.379 455.819 580.548 456.446 582.617C457.073 584.686 455.904 586.872 453.835 587.499L364.81 614.466C362.741 615.093 360.556 613.924 359.929 611.855C359.302 609.785 360.471 607.6 362.54 606.973ZM363.12 608.887C362.108 609.194 361.536 610.263 361.843 611.275C362.149 612.287 363.218 612.859 364.23 612.552L453.255 585.585C454.267 585.278 454.839 584.209 454.532 583.197C454.226 582.185 453.157 581.613 452.144 581.92L363.12 608.887Z" fill="#001D4A"/>
<path d="M378.94 667.717C378.634 666.705 379.206 665.636 380.218 665.329L469.242 638.362C470.254 638.055 471.323 638.627 471.63 639.639C471.936 640.651 471.364 641.72 470.352 642.027L381.328 668.994C380.316 669.301 379.247 668.729 378.94 667.717Z" fill="#F8F8FF"/>
<path fill-rule="evenodd" clip-rule="evenodd" d="M379.638 663.415L468.662 636.447C470.731 635.821 472.917 636.99 473.544 639.059C474.171 641.128 473.001 643.314 470.932 643.941L381.908 670.908C379.839 671.535 377.653 670.366 377.026 668.297C376.399 666.227 377.569 664.042 379.638 663.415ZM380.218 665.329C379.206 665.636 378.634 666.705 378.94 667.717C379.247 668.729 380.316 669.301 381.328 668.994L470.352 642.027C471.364 641.72 471.936 640.651 471.63 639.639C471.323 638.627 470.254 638.055 469.242 638.362L380.218 665.329Z" fill="#001D4A"/>
<path fill-rule="evenodd" clip-rule="evenodd" d="M385.842 626.969C385.682 626.44 385.981 625.882 386.51 625.722L393.932 623.473C394.46 623.313 395.019 623.612 395.179 624.14C395.339 624.669 395.04 625.227 394.512 625.387L388.046 627.346L391.088 637.386L397.553 635.428C398.082 635.268 398.64 635.566 398.8 636.095C398.96 636.623 398.662 637.182 398.133 637.342L390.711 639.59C390.182 639.75 389.624 639.452 389.464 638.923L385.842 626.969Z" fill="#001D4A"/>
<path fill-rule="evenodd" clip-rule="evenodd" d="M399.847 628.597C399.687 628.068 399.986 627.51 400.515 627.35L405.95 625.703C406.479 625.543 407.037 625.842 407.197 626.37C407.357 626.899 407.059 627.457 406.53 627.617L401.094 629.264C400.566 629.424 400.008 629.125 399.847 628.597Z" fill="#001D4A"/>
<path fill-rule="evenodd" clip-rule="evenodd" d="M400.868 631.967C400.708 631.438 401.007 630.88 401.535 630.72L406.971 629.073C407.5 628.913 408.058 629.212 408.218 629.74C408.378 630.269 408.079 630.827 407.551 630.987L402.115 632.634C401.587 632.794 401.028 632.495 400.868 631.967Z" fill="#001D4A"/>
<path fill-rule="evenodd" clip-rule="evenodd" d="M388.731 632.192C388.571 631.664 388.869 631.106 389.398 630.945L394.101 629.521C394.63 629.361 395.188 629.659 395.348 630.188C395.508 630.716 395.209 631.275 394.681 631.435L389.978 632.86C389.449 633.02 388.891 632.721 388.731 632.192Z" fill="#001D4A"/>
<path fill-rule="evenodd" clip-rule="evenodd" d="M428.817 618.082C429.293 616.757 430.348 615.805 431.915 615.33C433.186 614.945 434.265 615.216 435.072 615.702C435.847 616.17 436.36 616.824 436.622 617.25C436.912 617.72 436.765 618.336 436.295 618.626C435.825 618.915 435.209 618.769 434.919 618.299C434.767 618.051 434.461 617.669 434.039 617.415C433.649 617.18 433.153 617.045 432.495 617.244C431.441 617.563 430.931 618.113 430.699 618.758C430.446 619.461 430.468 620.44 430.839 621.667C431.198 622.852 431.777 623.615 432.405 624.022C433.014 624.416 433.76 624.536 434.625 624.274C435.551 623.993 435.997 623.199 436.147 622.144C436.224 621.598 436.73 621.217 437.277 621.295C437.824 621.372 438.205 621.878 438.127 622.425C437.927 623.834 437.208 625.581 435.205 626.188C433.822 626.607 432.46 626.439 431.319 625.701C430.197 624.975 429.384 623.761 428.925 622.247C428.489 620.808 428.361 619.349 428.817 618.082Z" fill="#001D4A"/>
<path fill-rule="evenodd" clip-rule="evenodd" d="M439.012 607.856C440.094 607.611 441.357 607.909 442.14 608.877C442.711 609.582 442.901 610.313 442.836 611.022C442.779 611.651 442.521 612.208 442.35 612.576C442.346 612.585 442.342 612.593 442.339 612.6C442.326 612.627 442.312 612.654 442.298 612.679L441.261 614.477L443.512 613.795C444.041 613.635 444.599 613.934 444.759 614.462C444.919 614.991 444.62 615.549 444.092 615.709L439.422 617.124C439.029 617.243 438.603 617.11 438.348 616.789C438.093 616.467 438.06 616.023 438.265 615.668L440.543 611.719C440.721 611.332 440.823 611.078 440.845 610.841C440.861 610.661 440.836 610.445 440.586 610.136C440.358 609.855 439.92 609.701 439.454 609.807C439.027 609.904 438.656 610.205 438.542 610.766C438.432 611.308 437.904 611.657 437.363 611.547C436.822 611.437 436.472 610.91 436.582 610.368C436.867 608.965 437.891 608.111 439.012 607.856Z" fill="#001D4A"/>
<path fill-rule="evenodd" clip-rule="evenodd" d="M410.68 622.141C411.208 621.981 411.767 622.28 411.927 622.809L414.531 631.405C414.691 631.934 414.392 632.492 413.864 632.652C413.335 632.812 412.777 632.514 412.617 631.985L410.013 623.388C409.852 622.86 410.151 622.302 410.68 622.141Z" fill="#001D4A"/>
<path fill-rule="evenodd" clip-rule="evenodd" d="M411.134 627.09C410.416 624.72 412.115 621.934 414.975 621.571C416.258 621.409 417.265 621.946 417.953 622.6C418.623 623.237 419.045 624.029 419.241 624.589C419.246 624.603 419.25 624.616 419.254 624.63L420.749 629.564C420.909 630.093 420.61 630.651 420.082 630.811C419.553 630.971 418.995 630.673 418.835 630.144L417.347 625.233C417.231 624.911 416.965 624.421 416.575 624.049C416.195 623.688 415.759 623.488 415.226 623.556C413.546 623.769 412.703 625.372 413.048 626.51C413.208 627.039 412.909 627.597 412.381 627.757C411.852 627.917 411.294 627.618 411.134 627.09Z" fill="#001D4A"/>
<path fill-rule="evenodd" clip-rule="evenodd" d="M417.34 625.21C416.622 622.84 418.321 620.054 421.181 619.691C422.464 619.529 423.472 620.066 424.159 620.72C424.829 621.357 425.251 622.149 425.447 622.709C425.452 622.723 425.457 622.736 425.461 622.75L426.955 627.684C427.116 628.213 426.817 628.771 426.288 628.931C425.76 629.091 425.201 628.793 425.041 628.264L423.554 623.353C423.437 623.031 423.171 622.541 422.781 622.169C422.401 621.808 421.965 621.608 421.432 621.675C419.752 621.888 418.91 623.492 419.254 624.63C419.414 625.159 419.116 625.717 418.587 625.877C418.059 626.037 417.5 625.738 417.34 625.21Z" fill="#001D4A"/>
<path d="M1260.32 663.203C1257.7 676.652 1257.23 687.61 1256.53 696.553L1267.64 700.548C1269.81 695.775 1278.31 685.733 1283.44 672.219C1288.57 658.705 1289.39 651.708 1288.28 647.371C1286.43 640.158 1278.04 638.421 1272.09 641.956C1266.13 645.491 1261.21 658.659 1260.32 663.203Z" fill="#F8F8FF"/>
<path fill-rule="evenodd" clip-rule="evenodd" d="M1254.42 697.919L1254.54 696.397C1254.65 694.994 1254.75 693.535 1254.86 692.02C1255.44 683.946 1256.13 674.264 1258.36 662.82C1258.84 660.337 1260.36 655.743 1262.5 651.328C1263.58 649.108 1264.84 646.878 1266.24 644.951C1267.63 643.046 1269.24 641.317 1271.06 640.237C1274.5 638.197 1278.66 637.659 1282.28 638.713C1285.96 639.783 1289.1 642.513 1290.22 646.874C1291.5 651.873 1290.45 659.401 1285.31 672.929C1282.68 679.868 1279.19 685.886 1276.12 690.731C1275.12 692.306 1274.15 693.783 1273.28 695.116C1272.82 695.818 1272.38 696.481 1271.98 697.096C1270.79 698.934 1269.93 700.337 1269.46 701.375L1268.7 703.054L1254.42 697.919ZM1256.86 692.141C1257.44 684.069 1258.12 674.518 1260.32 663.203C1261.21 658.659 1266.13 645.491 1272.09 641.956C1278.04 638.421 1286.43 640.158 1288.28 647.371C1289.39 651.708 1288.57 658.705 1283.44 672.219C1280.04 681.178 1275.16 688.611 1271.62 693.994C1269.82 696.732 1268.37 698.939 1267.64 700.548L1256.53 696.553C1256.64 695.134 1256.75 693.664 1256.86 692.141Z" fill="#001D4A"/>
<path fill-rule="evenodd" clip-rule="evenodd" d="M1278.33 654.032C1278.65 653.586 1279.28 653.489 1279.72 653.814L1282.48 655.824C1282.92 656.15 1283.02 656.775 1282.69 657.221C1282.37 657.668 1281.74 657.765 1281.3 657.439L1278.54 655.43C1278.1 655.104 1278 654.479 1278.33 654.032Z" fill="#001D4A"/>
<path fill-rule="evenodd" clip-rule="evenodd" d="M1281.86 654.052C1282.26 654.435 1282.27 655.068 1281.89 655.466L1279.86 657.576C1279.47 657.974 1278.84 657.986 1278.44 657.602C1278.04 657.219 1278.03 656.586 1278.42 656.189L1280.45 654.079C1280.83 653.681 1281.46 653.669 1281.86 654.052Z" fill="#001D4A"/>
<path fill-rule="evenodd" clip-rule="evenodd" d="M1278.2 648.43C1277.87 647.982 1277.98 647.357 1278.42 647.034L1281.19 645.042C1281.64 644.719 1282.26 644.821 1282.58 645.269C1282.91 645.717 1282.81 646.342 1282.36 646.665L1279.59 648.657C1279.14 648.98 1278.52 648.878 1278.2 648.43Z" fill="#001D4A"/>
<path fill-rule="evenodd" clip-rule="evenodd" d="M1279.31 645.076C1279.8 644.817 1280.41 645.002 1280.67 645.49L1282.04 648.076C1282.3 648.564 1282.11 649.17 1281.63 649.429C1281.14 649.688 1280.53 649.503 1280.27 649.015L1278.9 646.428C1278.64 645.941 1278.83 645.335 1279.31 645.076Z" fill="#001D4A"/>
<path fill-rule="evenodd" clip-rule="evenodd" d="M1268.16 651.803C1268.19 651.252 1268.65 650.822 1269.2 650.844L1272.61 650.98C1273.16 651.002 1273.59 651.468 1273.57 652.019C1273.55 652.571 1273.08 653.001 1272.53 652.979L1269.12 652.843C1268.57 652.821 1268.14 652.355 1268.16 651.803Z" fill="#001D4A"/>
<path fill-rule="evenodd" clip-rule="evenodd" d="M1271.11 649.851C1271.65 649.948 1272.02 650.467 1271.92 651.011L1271.41 653.894C1271.31 654.438 1270.79 654.801 1270.25 654.704C1269.7 654.607 1269.34 654.088 1269.44 653.544L1269.95 650.661C1270.05 650.117 1270.57 649.754 1271.11 649.851Z" fill="#001D4A"/>
<path fill-rule="evenodd" clip-rule="evenodd" d="M1270.17 661.341C1270.19 660.789 1270.66 660.36 1271.21 660.382L1274.61 660.518C1275.16 660.54 1275.59 661.005 1275.57 661.557C1275.55 662.109 1275.08 662.538 1274.53 662.516L1271.13 662.38C1270.58 662.358 1270.15 661.893 1270.17 661.341Z" fill="#001D4A"/>
<path fill-rule="evenodd" clip-rule="evenodd" d="M1273.12 659.389C1273.66 659.485 1274.02 660.004 1273.92 660.548L1273.41 663.432C1273.32 663.976 1272.8 664.338 1272.25 664.242C1271.71 664.145 1271.35 663.626 1271.44 663.082L1271.96 660.198C1272.05 659.654 1272.57 659.292 1273.12 659.389Z" fill="#001D4A"/>
<path fill-rule="evenodd" clip-rule="evenodd" d="M1275.7 670.236C1275.46 669.736 1275.68 669.141 1276.18 668.906L1279.26 667.459C1279.76 667.224 1280.36 667.439 1280.59 667.939C1280.83 668.439 1280.61 669.035 1280.11 669.269L1277.03 670.717C1276.53 670.951 1275.93 670.736 1275.7 670.236Z" fill="#001D4A"/>
<path fill-rule="evenodd" clip-rule="evenodd" d="M1277.41 667.146C1277.94 666.981 1278.5 667.275 1278.66 667.802L1279.54 670.598C1279.7 671.125 1279.41 671.686 1278.88 671.851C1278.35 672.015 1277.79 671.721 1277.63 671.194L1276.76 668.398C1276.59 667.871 1276.88 667.31 1277.41 667.146Z" fill="#001D4A"/>
<path fill-rule="evenodd" clip-rule="evenodd" d="M1265.11 673.382C1264.88 672.882 1265.09 672.287 1265.59 672.052L1268.68 670.605C1269.18 670.37 1269.77 670.585 1270.01 671.085C1270.24 671.585 1270.03 672.181 1269.53 672.415L1266.44 673.863C1265.94 674.097 1265.35 673.882 1265.11 673.382Z" fill="#001D4A"/>
<path fill-rule="evenodd" clip-rule="evenodd" d="M1266.83 670.292C1267.35 670.127 1267.92 670.421 1268.08 670.948L1268.95 673.744C1269.12 674.271 1268.82 674.832 1268.3 674.997C1267.77 675.161 1267.21 674.867 1267.04 674.34L1266.17 671.544C1266.01 671.017 1266.3 670.456 1266.83 670.292Z" fill="#001D4A"/>
<path fill-rule="evenodd" clip-rule="evenodd" d="M1269.93 679.998C1270.09 679.468 1270.64 679.167 1271.17 679.325L1274.44 680.298C1274.97 680.456 1275.27 681.013 1275.11 681.542C1274.95 682.072 1274.4 682.373 1273.87 682.215L1270.6 681.242C1270.07 681.084 1269.77 680.527 1269.93 679.998Z" fill="#001D4A"/>
<path fill-rule="evenodd" clip-rule="evenodd" d="M1273.27 678.834C1273.77 679.062 1273.99 679.655 1273.76 680.158L1272.56 682.825C1272.33 683.328 1271.73 683.551 1271.23 683.323C1270.73 683.095 1270.51 682.503 1270.73 682L1271.94 679.332C1272.17 678.829 1272.76 678.606 1273.27 678.834Z" fill="#001D4A"/>
<path fill-rule="evenodd" clip-rule="evenodd" d="M1263.78 690.944C1263.23 690.908 1262.81 690.432 1262.84 689.88L1263.07 686.48C1263.1 685.928 1263.58 685.511 1264.13 685.547C1264.68 685.583 1265.1 686.059 1265.06 686.61L1264.84 690.011C1264.8 690.562 1264.33 690.98 1263.78 690.944Z" fill="#001D4A"/>
<path fill-rule="evenodd" clip-rule="evenodd" d="M1261.9 687.948C1262.01 687.407 1262.54 687.057 1263.08 687.168L1265.95 687.754C1266.49 687.864 1266.84 688.393 1266.73 688.934C1266.62 689.475 1266.09 689.824 1265.55 689.713L1262.68 689.127C1262.14 689.017 1261.79 688.489 1261.9 687.948Z" fill="#001D4A"/>
<path d="M1267.53 660.642C1266.76 673.465 1261.07 688.563 1258.23 698.619L1247.88 699.061C1247.44 692.971 1242.2 678.57 1242.03 661.731C1241.87 644.892 1243.98 638.045 1246.95 633.753C1250.69 628.336 1259.58 625.86 1264.13 633.019C1268.46 639.825 1267.86 655.26 1267.53 660.642Z" fill="#F8F8FF"/>
<path fill-rule="evenodd" clip-rule="evenodd" d="M1259.76 700.555L1260.16 699.162C1260.81 696.853 1261.61 694.27 1262.49 691.473C1262.55 691.264 1262.62 691.053 1262.68 690.841C1263.63 687.811 1264.64 684.557 1265.58 681.211C1267.47 674.537 1269.13 667.392 1269.53 660.763C1269.69 658.04 1269.93 652.739 1269.57 647.234C1269.22 641.842 1268.28 635.818 1265.82 631.946C1263.1 627.668 1258.96 626.197 1254.99 626.685C1251.14 627.159 1247.48 629.457 1245.3 632.617C1241.97 637.439 1239.87 644.816 1240.03 661.751C1240.12 670.364 1241.5 678.323 1242.9 684.846C1243.35 686.967 1243.82 688.966 1244.23 690.774C1244.46 691.729 1244.66 692.63 1244.85 693.466C1245.41 695.953 1245.79 697.855 1245.89 699.206L1246.03 701.142L1259.76 700.555ZM1260.57 690.886C1263.45 681.671 1266.94 670.486 1267.53 660.642C1267.86 655.26 1268.46 639.825 1264.13 633.019C1259.58 625.86 1250.69 628.336 1246.95 633.753C1243.98 638.045 1241.87 644.892 1242.03 661.731C1242.14 672.894 1244.48 682.986 1246.18 690.295C1247.04 694.011 1247.73 697.008 1247.88 699.061L1258.23 698.619C1258.89 696.283 1259.7 693.674 1260.57 690.886Z" fill="#001D4A"/>
<path fill-rule="evenodd" clip-rule="evenodd" d="M1252.57 628.284C1253.11 628.422 1253.43 628.967 1253.29 629.502C1252.78 631.482 1252.03 634.784 1251.44 638.229C1250.85 641.695 1250.44 645.224 1250.57 647.695C1250.91 654.204 1250.85 659.873 1250.76 664.198C1250.68 668.504 1251.11 692.376 1251.48 696.158C1251.54 696.708 1251.14 697.198 1250.59 697.253C1250.04 697.307 1249.55 696.906 1249.49 696.356C1249.11 692.453 1248.68 668.485 1248.76 664.158C1248.85 659.849 1248.91 654.237 1248.57 647.8C1248.43 645.093 1248.88 641.378 1249.47 637.893C1250.07 634.387 1250.83 631.031 1251.36 629.003C1251.49 628.468 1252.04 628.146 1252.57 628.284Z" fill="#001D4A"/>
<path fill-rule="evenodd" clip-rule="evenodd" d="M1248.13 631.186C1248.66 631.313 1249 631.852 1248.87 632.389C1248.52 633.855 1248.01 636.289 1247.59 638.804C1247.18 641.338 1246.88 643.878 1246.93 645.593C1247.03 648.47 1246.92 653.199 1246.83 657.242C1246.78 659.599 1246.73 661.723 1246.73 663.11C1246.73 664.997 1247.1 671.888 1247.64 678.635C1247.9 682.002 1248.21 685.314 1248.53 687.93C1248.69 689.239 1248.86 690.361 1249.02 691.223C1249.1 691.654 1249.18 692.009 1249.25 692.283C1249.33 692.574 1249.39 692.716 1249.41 692.761C1249.68 693.246 1249.5 693.853 1249.01 694.117C1248.53 694.381 1247.92 694.202 1247.66 693.716C1247.52 693.458 1247.41 693.13 1247.32 692.804C1247.23 692.46 1247.14 692.05 1247.05 691.59C1246.88 690.67 1246.71 689.501 1246.55 688.174C1246.22 685.517 1245.91 682.172 1245.64 678.793C1245.11 672.048 1244.73 665.086 1244.73 663.111C1244.73 661.626 1244.78 659.44 1244.84 657.048C1244.93 653.061 1245.03 648.502 1244.93 645.659C1244.87 643.732 1245.2 641.025 1245.62 638.479C1246.04 635.913 1246.57 633.434 1246.92 631.928C1247.05 631.391 1247.59 631.058 1248.13 631.186Z" fill="#001D4A"/>
<path fill-rule="evenodd" clip-rule="evenodd" d="M1254.96 627.641C1255.51 627.625 1255.97 628.059 1255.99 628.611C1256.07 631.531 1256.1 638.334 1255.44 641.729C1255.06 643.679 1254.8 648.548 1254.59 653.471C1254.54 654.589 1254.49 655.708 1254.45 656.789C1254.31 660.391 1254.18 663.579 1254.03 664.925C1253.72 667.625 1252.66 683.342 1252.17 690.897C1252.13 691.448 1251.66 691.865 1251.1 691.829C1250.55 691.793 1250.14 691.317 1250.17 690.766C1250.66 683.25 1251.73 667.462 1252.04 664.703C1252.18 663.434 1252.3 660.369 1252.45 656.795C1252.49 655.695 1252.54 654.546 1252.59 653.386C1252.8 648.545 1253.06 643.482 1253.47 641.347C1254.09 638.206 1254.08 631.626 1253.99 628.67C1253.97 628.118 1254.41 627.657 1254.96 627.641Z" fill="#001D4A"/>
<path fill-rule="evenodd" clip-rule="evenodd" d="M1260.27 628.453C1260.8 628.331 1261.34 628.668 1261.46 629.207C1262.11 632.034 1263.44 638.794 1263.55 642.994C1263.69 648.183 1262.92 658.46 1261.8 665.635C1261.36 668.486 1260.41 672.642 1259.43 676.946C1259.17 678.094 1258.91 679.252 1258.65 680.399C1257.41 685.922 1256.33 691.125 1256.28 693.91C1256.27 694.462 1255.82 694.902 1255.27 694.893C1254.72 694.884 1254.28 694.429 1254.28 693.877C1254.34 690.839 1255.47 685.403 1256.7 679.96C1256.96 678.787 1257.23 677.61 1257.49 676.451C1258.47 672.158 1259.4 668.102 1259.83 665.329C1260.93 658.237 1261.69 648.085 1261.55 643.047C1261.45 639.064 1260.16 632.475 1259.51 629.65C1259.39 629.112 1259.73 628.576 1260.27 628.453Z" fill="#001D4A"/>
<path fill-rule="evenodd" clip-rule="evenodd" d="M1258.11 627.728C1258.65 627.638 1259.17 628.008 1259.26 628.553C1259.88 632.319 1261.07 641.318 1260.81 646.96C1260.5 653.895 1259.33 663.839 1258.06 668.418C1257.58 670.124 1256.78 675.238 1255.97 681.042C1255.16 686.805 1254.36 693.142 1253.86 697.218C1253.8 697.767 1253.3 698.157 1252.75 698.09C1252.2 698.024 1251.81 697.525 1251.88 696.977C1252.37 692.893 1253.18 686.543 1253.99 680.765C1254.79 675.029 1255.61 669.748 1256.13 667.88C1257.35 663.523 1258.51 653.759 1258.82 646.871C1259.06 641.455 1257.9 632.636 1257.28 628.876C1257.19 628.331 1257.56 627.817 1258.11 627.728Z" fill="#001D4A"/>
<path fill-rule="evenodd" clip-rule="evenodd" d="M1262.48 629.855C1263.01 629.698 1263.56 630 1263.72 630.53C1264.94 634.664 1267.29 644.95 1266.81 652.948C1266.22 662.811 1264.66 669.84 1262.97 675.606C1261.63 680.163 1258.87 689.871 1257.66 694.158C1257.51 694.69 1256.96 694.999 1256.43 694.848C1255.9 694.698 1255.59 694.146 1255.74 693.614C1256.95 689.329 1259.71 679.61 1261.05 675.042C1262.71 669.401 1264.23 662.522 1264.81 652.828C1265.27 645.18 1263 635.16 1261.8 631.097C1261.65 630.567 1261.95 630.011 1262.48 629.855Z" fill="#001D4A"/>
<path d="M1239.39 699.186C1239.49 695.483 1242.89 692.759 1246.53 693.467L1265.59 697.179C1269.23 697.887 1271.36 701.688 1270.07 705.16L1264.19 720.958C1263.17 723.71 1260.3 725.317 1257.42 724.755L1243.76 722.095C1240.87 721.534 1238.82 718.97 1238.91 716.035L1239.39 699.186Z" fill="#F8F8FF"/>
<path fill-rule="evenodd" clip-rule="evenodd" d="M1246.91 691.504L1265.97 695.216C1270.82 696.16 1273.66 701.228 1271.94 705.857L1266.06 721.655C1264.7 725.324 1260.88 727.467 1257.04 726.719L1243.37 724.058C1239.53 723.31 1236.79 719.891 1236.91 715.978L1237.39 699.129C1237.53 694.192 1242.06 690.56 1246.91 691.504ZM1246.53 693.467C1242.89 692.759 1239.49 695.483 1239.39 699.186L1238.91 716.035C1238.82 718.97 1240.87 721.534 1243.76 722.095L1257.42 724.756C1260.3 725.317 1263.17 723.71 1264.19 720.958L1270.07 705.16C1271.36 701.688 1269.23 697.887 1265.59 697.179L1246.53 693.467Z" fill="#001D4A"/>
<path d="M1272.53 698.531L1239.59 692.116L1239.35 700.463L1269.62 706.357L1272.53 698.531Z" fill="#001D4A"/>
<path fill-rule="evenodd" clip-rule="evenodd" d="M1238.12 704.111C1238.23 703.569 1238.75 703.215 1239.29 703.32L1252.26 705.846C1252.8 705.951 1253.16 706.476 1253.05 707.018C1252.95 707.56 1252.42 707.914 1251.88 707.809L1238.91 705.284C1238.37 705.178 1238.01 704.653 1238.12 704.111Z" fill="#001D4A"/>
<path fill-rule="evenodd" clip-rule="evenodd" d="M1241.05 717.846C1241.15 717.304 1241.68 716.95 1242.22 717.055L1264.46 721.387C1265.01 721.492 1265.36 722.017 1265.25 722.559C1265.15 723.101 1264.62 723.455 1264.08 723.35L1241.84 719.018C1241.29 718.913 1240.94 718.388 1241.05 717.846Z" fill="#001D4A"/>
<path d="M1233.85 690.207C1234.26 688.119 1236.28 686.756 1238.37 687.162L1275.52 694.397C1277.61 694.803 1278.97 696.825 1278.57 698.913C1278.16 701.001 1276.14 702.365 1274.05 701.958L1236.9 694.724C1234.81 694.317 1233.44 692.295 1233.85 690.207Z" fill="#F8F8FF"/>
<path fill-rule="evenodd" clip-rule="evenodd" d="M1238.75 685.199L1275.9 692.434C1279.08 693.051 1281.15 696.124 1280.53 699.296C1279.91 702.468 1276.84 704.539 1273.67 703.921L1236.51 696.687C1233.34 696.069 1231.27 692.997 1231.89 689.825C1232.51 686.652 1235.58 684.582 1238.75 685.199ZM1238.37 687.162C1236.28 686.756 1234.26 688.119 1233.85 690.207C1233.44 692.295 1234.81 694.317 1236.9 694.724L1274.05 701.958C1276.14 702.365 1278.16 701.001 1278.57 698.913C1278.97 696.825 1277.61 694.803 1275.52 694.397L1238.37 687.162Z" fill="#001D4A"/>
<path d="M1257.29 380.991C1256.94 379.944 1257.5 378.81 1258.55 378.458L1301.66 363.978C1302.71 363.627 1303.84 364.19 1304.19 365.237L1323.08 421.483C1323.44 422.53 1322.87 423.664 1321.82 424.016L1278.71 438.496C1277.66 438.847 1276.53 438.284 1276.18 437.237L1257.29 380.991Z" fill="#001D4A"/>
<path d="M1252.34 378.517C1251.99 377.47 1252.55 376.336 1253.6 375.984L1296.71 361.504C1297.76 361.153 1298.89 361.716 1299.25 362.763L1318.14 419.009C1318.49 420.056 1317.92 421.19 1316.88 421.542L1273.76 436.022C1272.72 436.373 1271.58 435.81 1271.23 434.763L1252.34 378.517Z" fill="#F8F8FF"/>
<path fill-rule="evenodd" clip-rule="evenodd" d="M1252.96 374.088L1296.08 359.608C1298.17 358.905 1300.44 360.033 1301.14 362.127L1320.03 418.373C1320.74 420.467 1319.61 422.735 1317.51 423.438L1274.4 437.918C1272.31 438.621 1270.04 437.494 1269.34 435.399L1250.44 379.153C1249.74 377.059 1250.87 374.791 1252.96 374.088ZM1253.6 375.984C1252.55 376.336 1251.99 377.47 1252.34 378.517L1271.23 434.763C1271.58 435.81 1272.72 436.373 1273.76 436.022L1316.88 421.542C1317.92 421.19 1318.49 420.056 1318.14 419.009L1299.25 362.763C1298.89 361.716 1297.76 361.153 1296.71 361.504L1253.6 375.984Z" fill="#001D4A"/>
<path fill-rule="evenodd" clip-rule="evenodd" d="M1265.25 386.685C1265.08 386.162 1265.36 385.595 1265.88 385.419L1291.56 376.794C1292.08 376.618 1292.65 376.9 1292.83 377.424C1293 377.947 1292.72 378.514 1292.2 378.69L1266.52 387.315C1265.99 387.491 1265.43 387.209 1265.25 386.685Z" fill="#001D4A"/>
<path fill-rule="evenodd" clip-rule="evenodd" d="M1267.3 392.783C1267.12 392.259 1267.4 391.693 1267.93 391.517L1293.61 382.892C1294.13 382.716 1294.7 382.998 1294.87 383.521C1295.05 384.045 1294.77 384.612 1294.25 384.788L1268.57 393.413C1268.04 393.588 1267.47 393.307 1267.3 392.783Z" fill="#001D4A"/>
<path fill-rule="evenodd" clip-rule="evenodd" d="M1269.35 398.881C1269.17 398.357 1269.45 397.79 1269.98 397.614L1295.66 388.99C1296.18 388.814 1296.75 389.096 1296.92 389.619C1297.1 390.143 1296.82 390.71 1296.29 390.885L1270.61 399.51C1270.09 399.686 1269.52 399.404 1269.35 398.881Z" fill="#001D4A"/>
<path fill-rule="evenodd" clip-rule="evenodd" d="M1271.39 404.978C1271.22 404.455 1271.5 403.888 1272.02 403.712L1297.7 395.087C1298.23 394.911 1298.8 395.193 1298.97 395.717C1299.15 396.24 1298.87 396.807 1298.34 396.983L1272.66 405.608C1272.14 405.784 1271.57 405.502 1271.39 404.978Z" fill="#001D4A"/>
<path fill-rule="evenodd" clip-rule="evenodd" d="M1273.44 411.076C1273.27 410.552 1273.55 409.985 1274.07 409.809L1299.75 401.185C1300.28 401.009 1300.84 401.291 1301.02 401.814C1301.19 402.338 1300.91 402.905 1300.39 403.08L1274.71 411.705C1274.19 411.881 1273.62 411.599 1273.44 411.076Z" fill="#001D4A"/>
<path fill-rule="evenodd" clip-rule="evenodd" d="M1287.75 413.046C1287.93 413.57 1287.65 414.137 1287.13 414.313L1276.76 417.803C1276.23 417.979 1275.67 417.697 1275.49 417.174C1275.31 416.651 1275.6 416.083 1276.12 415.907L1286.49 412.418C1287.01 412.241 1287.58 412.523 1287.75 413.046Z" fill="#001D4A"/>
<path d="M1308.04 365.211C1308.33 364.145 1309.43 363.517 1310.49 363.808L1354.37 375.79C1355.43 376.081 1356.06 377.181 1355.77 378.247L1340.14 435.484C1339.85 436.549 1338.75 437.177 1337.68 436.886L1293.81 424.904C1292.74 424.613 1292.12 423.514 1292.41 422.448L1308.04 365.211Z" fill="#F8F8FF"/>
<path fill-rule="evenodd" clip-rule="evenodd" d="M1311.02 361.879L1354.89 373.861C1357.02 374.443 1358.28 376.642 1357.7 378.773L1342.07 436.011C1341.48 438.142 1339.29 439.398 1337.15 438.816L1293.28 426.834C1291.15 426.252 1289.9 424.052 1290.48 421.921L1306.11 364.684C1306.69 362.553 1308.89 361.297 1311.02 361.879ZM1310.49 363.808C1309.43 363.517 1308.33 364.145 1308.04 365.211L1292.41 422.448C1292.12 423.514 1292.74 424.613 1293.81 424.904L1337.68 436.886C1338.75 437.177 1339.85 436.549 1340.14 435.484L1355.77 378.247C1356.06 377.181 1355.43 376.081 1354.37 375.79L1310.49 363.808Z" fill="#001D4A"/>
<path fill-rule="evenodd" clip-rule="evenodd" d="M1329.44 415.138C1329.82 415.248 1330.11 415.578 1330.16 415.976L1331.39 425.797C1331.46 426.345 1331.07 426.845 1330.53 426.914C1329.98 426.983 1329.48 426.595 1329.41 426.047L1328.47 418.566L1323.7 424.505C1323.35 424.935 1322.72 425.004 1322.29 424.658C1321.86 424.312 1321.79 423.683 1322.14 423.252L1328.39 415.474C1328.64 415.161 1329.05 415.029 1329.44 415.138Z" fill="#001D4A"/>
<path fill-rule="evenodd" clip-rule="evenodd" d="M1324.74 420.406C1324.88 419.874 1325.43 419.56 1325.97 419.705L1330.14 420.845C1330.67 420.99 1330.99 421.54 1330.84 422.073C1330.69 422.606 1330.14 422.92 1329.61 422.774L1325.44 421.635C1324.91 421.489 1324.59 420.939 1324.74 420.406Z" fill="#001D4A"/>
<path fill-rule="evenodd" clip-rule="evenodd" d="M1335.44 420.513C1335.97 420.659 1336.28 421.208 1336.14 421.741L1335.35 424.619C1335.21 425.152 1334.66 425.466 1334.12 425.32C1333.59 425.175 1333.28 424.625 1333.42 424.092L1334.21 421.214C1334.35 420.682 1334.9 420.368 1335.44 420.513Z" fill="#001D4A"/>
<path fill-rule="evenodd" clip-rule="evenodd" d="M1337.18 423.573C1337.04 424.106 1336.49 424.42 1335.95 424.274L1333.08 423.488C1332.54 423.343 1332.23 422.793 1332.37 422.26C1332.52 421.727 1333.07 421.413 1333.6 421.559L1336.48 422.345C1337.01 422.49 1337.33 423.04 1337.18 423.573Z" fill="#001D4A"/>
<path d="M1337.18 397.054C1338.05 396.556 1338.36 395.446 1337.86 394.574C1337.36 393.703 1336.25 393.399 1335.38 393.897L1324.7 399.997C1323.74 400.545 1322.51 400.211 1321.97 399.252L1318.55 393.263C1318.05 392.391 1316.94 392.088 1316.07 392.586C1315.2 393.083 1314.89 394.194 1315.39 395.065L1319.8 402.789C1319.8 402.791 1319.8 402.792 1319.8 402.793C1319.8 402.793 1319.8 402.795 1319.8 402.796L1321.6 405.949C1321.6 405.95 1321.6 405.95 1321.6 405.95L1321.6 405.95C1321.6 405.949 1321.6 405.949 1321.61 405.951C1321.61 405.952 1321.61 405.952 1321.61 405.951L1324.76 404.151C1324.76 404.151 1324.76 404.149 1324.76 404.148C1324.76 404.147 1324.76 404.145 1324.76 404.145L1337.18 397.054Z" fill="#F8F8FF"/>
<path fill-rule="evenodd" clip-rule="evenodd" d="M1323.7 398.261L1334.39 392.16C1336.22 391.115 1338.55 391.752 1339.6 393.583C1340.64 395.414 1340 397.745 1338.17 398.791L1325.87 405.814C1325.83 405.84 1325.79 405.865 1325.75 405.888L1322.6 407.688C1322.12 407.96 1321.58 408.015 1321.09 407.884C1320.59 407.752 1320.14 407.426 1319.86 406.94L1318.06 403.788C1318.04 403.746 1318.02 403.704 1318 403.662L1313.65 396.057C1312.61 394.226 1313.24 391.894 1315.08 390.849C1316.91 389.803 1319.24 390.44 1320.28 392.271L1323.7 398.261ZM1337.86 394.574C1338.36 395.446 1338.05 396.556 1337.18 397.054L1324.76 404.145C1324.76 404.145 1324.76 404.147 1324.76 404.148C1324.76 404.148 1324.76 404.149 1324.76 404.149C1324.76 404.15 1324.76 404.151 1324.76 404.151L1321.61 405.951C1321.61 405.952 1321.61 405.952 1321.61 405.951C1321.6 405.949 1321.6 405.949 1321.6 405.95L1321.6 405.95C1321.6 405.95 1321.6 405.95 1321.6 405.949L1319.8 402.796C1319.8 402.795 1319.8 402.793 1319.8 402.793C1319.8 402.792 1319.8 402.791 1319.8 402.789L1315.39 395.065C1314.89 394.194 1315.2 393.083 1316.07 392.586C1316.94 392.088 1318.05 392.391 1318.55 393.263L1321.97 399.252C1322.51 400.211 1323.74 400.545 1324.7 399.997L1335.38 393.897C1336.25 393.399 1337.36 393.703 1337.86 394.574Z" fill="#001D4A"/>
<path fill-rule="evenodd" clip-rule="evenodd" d="M120.035 710.675C121.106 710.947 121.754 712.034 121.483 713.105L117.199 730.02C116.928 731.091 115.84 731.739 114.769 731.468C113.698 731.197 113.05 730.109 113.321 729.038L117.606 712.123C117.877 711.052 118.965 710.404 120.035 710.675Z" fill="#001D4A"/>
<path fill-rule="evenodd" clip-rule="evenodd" d="M138.978 640.937C138.84 642.033 137.84 642.809 136.744 642.671C133.773 642.296 130.703 642.3 127.591 642.727C108.48 645.354 95.1164 662.975 97.7426 682.086C100.369 701.197 117.99 714.56 137.101 711.934C140.514 711.465 143.74 710.519 146.723 709.174C147.73 708.72 148.914 709.168 149.369 710.175C149.823 711.182 149.374 712.366 148.368 712.82C145.038 714.321 141.442 715.375 137.645 715.897C116.346 718.824 96.7067 703.93 93.7798 682.63C90.8529 661.331 105.747 641.692 127.046 638.765C130.509 638.289 133.93 638.284 137.245 638.702C138.34 638.841 139.117 639.841 138.978 640.937Z" fill="#001D4A"/>
<path fill-rule="evenodd" clip-rule="evenodd" d="M125.316 636.653C126.394 636.411 127.464 637.089 127.706 638.167L145.032 715.362C145.274 716.44 144.596 717.51 143.519 717.752C142.441 717.994 141.371 717.316 141.129 716.238L123.803 639.043C123.561 637.965 124.238 636.895 125.316 636.653Z" fill="#001D4A"/>
<path d="M160.635 685.314C156.632 701.117 140.577 710.683 124.774 706.68C108.971 702.677 99.4053 686.622 103.408 670.819C107.411 655.016 123.466 645.45 139.269 649.453C155.072 653.456 164.638 669.511 160.635 685.314Z" fill="#F8F8FF"/>
<path fill-rule="evenodd" clip-rule="evenodd" d="M162.574 685.805C158.3 702.678 141.157 712.893 124.283 708.619C107.409 704.345 97.1953 687.201 101.469 670.328C105.743 653.454 122.886 643.24 139.76 647.514C156.634 651.788 166.848 668.931 162.574 685.805ZM124.774 706.68C140.577 710.683 156.632 701.117 160.635 685.314C164.638 669.511 155.072 653.455 139.269 649.453C123.466 645.45 107.411 655.016 103.408 670.819C99.4053 686.622 108.971 702.677 124.774 706.68Z" fill="#001D4A"/>
<path fill-rule="evenodd" clip-rule="evenodd" d="M127.349 658.399C127.71 658.152 128.189 658.168 128.532 658.439L135.677 664.072C135.688 664.082 135.7 664.091 135.711 664.1L139.39 667.274C139.759 667.592 139.845 668.129 139.594 668.546L135.263 675.757C135.035 676.135 134.587 676.319 134.16 676.211L129.858 675.122L129.698 677.191L133.528 680.563C133.76 680.767 133.884 681.066 133.866 681.374C133.847 681.682 133.687 681.964 133.433 682.138L126.723 686.74L125.842 690.215C125.771 690.497 125.58 690.734 125.319 690.864L119.886 693.576C119.471 693.782 118.97 693.678 118.672 693.323L115.053 689.001L110.784 684.644C110.61 684.467 110.508 684.23 110.499 683.981L110.299 678.524C110.29 678.279 110.371 678.039 110.528 677.85L113.852 673.835L112.977 668.106C112.932 667.811 113.021 667.513 113.219 667.29L118.197 661.694C118.227 661.66 118.26 661.628 118.295 661.598L121.154 659.158C121.401 658.947 121.735 658.869 122.049 658.949L125.329 659.78L127.349 658.399ZM127.871 660.464L126.085 661.685C125.849 661.847 125.554 661.9 125.275 661.829L122.059 661.015L119.645 663.075L115.025 668.268L115.897 673.976C115.94 674.258 115.86 674.545 115.678 674.765L112.311 678.832L112.483 683.521L116.508 687.63C116.527 687.648 116.544 687.667 116.561 687.687L119.699 691.434L124.016 689.28L124.877 685.883C124.936 685.647 125.08 685.441 125.28 685.303L131.243 681.215L128.002 678.362C127.766 678.154 127.641 677.847 127.665 677.534L127.956 673.783C127.979 673.489 128.13 673.22 128.37 673.048C128.609 672.876 128.913 672.819 129.199 672.891L133.931 674.09L137.446 668.238L134.421 665.629L127.871 660.464Z" fill="#001D4A"/>
<path fill-rule="evenodd" clip-rule="evenodd" d="M155.615 677.76C155.869 678.009 155.971 678.374 155.883 678.718L154.147 685.574C154.112 685.713 154.047 685.843 153.957 685.954L150.388 690.397L149.158 695.253C149.065 695.62 148.773 695.903 148.403 695.984L140.679 697.675C140.374 697.742 140.055 697.662 139.817 697.46C139.579 697.257 139.449 696.954 139.467 696.642L139.782 691.013C139.793 690.823 139.858 690.64 139.969 690.485L142.982 686.294L143.242 681.739C143.255 681.503 143.352 681.279 143.514 681.108L146.544 677.91C146.763 677.68 147.078 677.567 147.393 677.606L152.118 678.193L154.653 677.507C154.996 677.415 155.362 677.511 155.615 677.76ZM153.525 679.885L152.451 680.175C152.326 680.209 152.195 680.218 152.066 680.202L147.648 679.653L145.217 682.218L144.962 686.699C144.951 686.888 144.887 687.071 144.776 687.226L141.763 691.416L141.537 695.44L147.371 694.162L148.503 689.695C148.538 689.555 148.603 689.426 148.693 689.314L152.262 684.871L153.525 679.885Z" fill="#001D4A"/>
<path d="M116.492 723.482C107.354 721.168 99.0149 722.97 97.8655 727.508L130.957 735.89C132.106 731.352 125.63 725.797 116.492 723.482Z" fill="#F8F8FF"/>
<path fill-rule="evenodd" clip-rule="evenodd" d="M97.3745 729.447C96.3037 729.176 95.6555 728.088 95.9267 727.017C96.7894 723.611 100.164 721.748 103.761 720.971C107.493 720.164 112.181 720.327 116.983 721.544C121.786 722.76 125.986 724.848 128.884 727.334C131.678 729.731 133.758 732.975 132.896 736.381C132.624 737.452 131.537 738.1 130.466 737.829L97.3745 729.447ZM130.985 733.834C130.142 729.787 124.285 725.456 116.492 723.483C108.699 721.509 101.487 722.529 98.8199 725.687C98.3596 726.232 98.0347 726.84 97.8655 727.508L130.957 735.89C131.126 735.222 131.13 734.532 130.985 733.834Z" fill="#001D4A"/>
<path d="M92.826 728.252C92.9559 727.739 93.477 727.428 93.9898 727.558L134.904 737.921C135.417 738.051 135.727 738.572 135.597 739.085C135.467 739.598 134.946 739.908 134.433 739.778L93.5194 729.415C93.0066 729.286 92.6961 728.765 92.826 728.252Z" fill="#001D4A"/>
<path fill-rule="evenodd" clip-rule="evenodd" d="M134.433 739.778C134.946 739.908 135.467 739.598 135.597 739.085C135.727 738.572 135.417 738.051 134.904 737.921L93.9898 727.558C93.477 727.428 92.9559 727.739 92.826 728.252C92.6961 728.765 93.0066 729.286 93.5194 729.415L134.433 739.778ZM94.4809 725.62L135.395 735.983C136.978 736.384 137.937 737.993 137.536 739.576C137.135 741.16 135.526 742.118 133.942 741.717L93.0284 731.354C91.4448 730.953 90.4862 729.344 90.8873 727.761C91.2884 726.177 92.8973 725.218 94.4809 725.62Z" fill="#001D4A"/>
<rect x="985.36" y="680.933" width="6.65999" height="12.4437" rx="3.33" transform="rotate(-14.7868 985.36 680.933)" fill="#001D4A"/>
<rect x="1049.25" y="664.069" width="6.65999" height="12.4437" rx="3.33" transform="rotate(-14.7868 1049.25 664.069)" fill="#001D4A"/>
<rect x="956.075" y="629.404" width="103.74" height="65.0947" rx="9" transform="rotate(-14.7868 956.075 629.404)" fill="#F8F8FF" stroke="#001D4A" stroke-width="2" stroke-linecap="round" stroke-linejoin="round"/>
<rect x="960.697" y="632.132" width="95.9507" height="58.0227" rx="6" transform="rotate(-14.7868 960.697 632.132)" stroke="#001D4A" stroke-width="2" stroke-linecap="round" stroke-linejoin="round"/>
<circle cx="991.935" cy="658.677" r="5.95894" transform="rotate(-14.7868 991.935 658.677)" fill="#F8F8FF" stroke="#001D4A" stroke-width="2"/>
<path d="M990.347 652.661L983.392 626.31" stroke="#001D4A" stroke-width="2" stroke-linecap="round" stroke-linejoin="round"/>
<circle cx="1004.47" cy="655.367" r="5.95894" transform="rotate(-14.7868 1004.47 655.367)" fill="#F8F8FF" stroke="#001D4A" stroke-width="2"/>
<path d="M1002.89 649.351L995.931 623" stroke="#001D4A" stroke-width="2" stroke-linecap="round" stroke-linejoin="round"/>
<circle cx="1017.02" cy="652.056" r="5.95894" transform="rotate(-14.7868 1017.02 652.056)" fill="#F8F8FF" stroke="#001D4A" stroke-width="2"/>
<path d="M1015.43 646.04L1008.47 619.69" stroke="#001D4A" stroke-width="2" stroke-linecap="round" stroke-linejoin="round"/>
<circle cx="1044.29" cy="640.772" r="6.96161" transform="rotate(-44.7868 1044.29 640.772)" fill="#001D4A"/>
<path d="M1040.13 635.576L1020.93 616.234" stroke="#001D4A" stroke-width="2" stroke-linecap="round" stroke-linejoin="round"/>
<path d="M395.787 152.776C395.787 170.331 381.555 184.562 364 184.562C346.445 184.562 332.214 170.331 332.214 152.776C332.214 135.221 346.445 120.99 364 120.99C381.555 120.99 395.787 135.221 395.787 152.776Z" fill="#F8F8FF"/>
<path fill-rule="evenodd" clip-rule="evenodd" d="M397.787 152.776C397.787 171.436 382.66 186.562 364 186.562C345.341 186.562 330.214 171.436 330.214 152.776C330.214 134.117 345.341 118.99 364 118.99C382.66 118.99 397.787 134.117 397.787 152.776ZM364 184.562C381.555 184.562 395.787 170.331 395.787 152.776C395.787 135.221 381.555 120.99 364 120.99C346.445 120.99 332.214 135.221 332.214 152.776C332.214 170.331 346.445 184.562 364 184.562Z" fill="#001D4A"/>
<path fill-rule="evenodd" clip-rule="evenodd" d="M360 182.563C377.555 182.563 391.786 168.332 391.786 150.777C391.786 139.121 385.513 128.931 376.159 123.398C387.681 128.172 395.786 139.528 395.786 152.776C395.786 170.331 381.555 184.562 364 184.562C358.1 184.562 352.576 182.955 347.841 180.154C351.587 181.706 355.693 182.563 360 182.563Z" fill="#001D4A"/>
<path fill-rule="evenodd" clip-rule="evenodd" d="M327.013 131.028C330.215 141.378 336.889 153.761 346.224 165.792C355.558 177.823 365.895 187.364 375.125 193.038C379.733 195.871 384.159 197.798 388.114 198.535C392.066 199.27 395.788 198.851 398.636 196.641C401.485 194.431 402.815 190.931 403.084 186.92C403.354 182.906 402.587 178.139 400.987 172.972C397.785 162.622 391.111 150.239 381.776 138.208C372.442 126.177 362.105 116.636 352.875 110.962C348.267 108.129 343.841 106.202 339.886 105.465C335.934 104.729 332.212 105.149 329.364 107.359C326.515 109.569 325.185 113.069 324.916 117.08C324.646 121.094 325.413 125.86 327.013 131.028ZM347.804 164.566C329.352 140.784 321.645 115.879 330.59 108.939C339.535 101.999 361.744 115.652 380.196 139.434C398.648 163.216 406.355 188.121 397.41 195.061C388.465 202.001 366.256 188.348 347.804 164.566Z" fill="#001D4A"/>
<path fill-rule="evenodd" clip-rule="evenodd" d="M405.565 140.188C400.087 149.707 390.761 160.405 378.938 170.141C367.114 179.876 354.826 186.977 344.433 190.526C339.247 192.297 334.376 193.239 330.191 193.08C326.009 192.921 322.148 191.634 319.61 188.552C317.072 185.47 316.55 181.434 317.196 177.299C317.843 173.161 319.702 168.561 322.435 163.812C327.913 154.293 337.239 143.595 349.062 133.859C360.886 124.124 373.174 117.023 383.567 113.473C388.753 111.702 393.624 110.761 397.809 110.92C401.991 111.079 405.852 112.366 408.39 115.448C410.928 118.53 411.45 122.566 410.804 126.701C410.157 130.839 408.298 135.439 405.565 140.188ZM377.031 167.825C400.267 148.691 413.271 126.095 406.074 117.355C398.877 108.615 374.206 117.041 350.969 136.175C327.733 155.309 314.73 177.905 321.926 186.645C329.123 195.385 353.794 186.959 377.031 167.825Z" fill="#001D4A"/>
<path d="M411.601 130.993C411.601 133.102 409.892 134.811 407.783 134.811C405.675 134.811 403.965 133.102 403.965 130.993C403.965 128.885 405.675 127.175 407.783 127.175C409.892 127.175 411.601 128.885 411.601 130.993Z" fill="#001D4A"/>
<path d="M355.57 134.811C355.57 136.919 353.861 138.629 351.752 138.629C349.644 138.629 347.934 136.919 347.934 134.811C347.934 132.702 349.644 130.993 351.752 130.993C353.861 130.993 355.57 132.702 355.57 134.811Z" fill="#001D4A"/>
<path d="M354.952 185.284C354.952 188.539 352.313 191.179 349.057 191.179C345.801 191.179 343.162 188.539 343.162 185.284C343.162 182.028 345.801 179.389 349.057 179.389C352.313 179.389 354.952 182.028 354.952 185.284Z" fill="#001D4A"/>
</svg>
