<svg width="25" height="24" viewBox="0 0 25 24" fill="none" xmlns="http://www.w3.org/2000/svg">
<path d="M17 7.5V7.51M4.5 8C4.5 6.93913 4.92143 5.92172 5.67157 5.17157C6.42172 4.42143 7.43913 4 8.5 4H16.5C17.5609 4 18.5783 4.42143 19.3284 5.17157C20.0786 5.92172 20.5 6.93913 20.5 8V16C20.5 17.0609 20.0786 18.0783 19.3284 18.8284C18.5783 19.5786 17.5609 20 16.5 20H8.5C7.43913 20 6.42172 19.5786 5.67157 18.8284C4.92143 18.0783 4.5 17.0609 4.5 16V8ZM9.5 12C9.5 12.7956 9.81607 13.5587 10.3787 14.1213C10.9413 14.6839 11.7044 15 12.5 15C13.2956 15 14.0587 14.6839 14.6213 14.1213C15.1839 13.5587 15.5 12.7956 15.5 12C15.5 11.2044 15.1839 10.4413 14.6213 9.87868C14.0587 9.31607 13.2956 9 12.5 9C11.7044 9 10.9413 9.31607 10.3787 9.87868C9.81607 10.4413 9.5 11.2044 9.5 12Z" stroke="#FCA311" stroke-width="2" stroke-linecap="round" stroke-linejoin="round"/>
</svg>
