<svg width="139" height="211" viewBox="0 0 139 211" fill="none" xmlns="http://www.w3.org/2000/svg">
<g opacity="0.16" filter="url(#filter0_f_87_34)">
<path d="M89.4422 201.989C86.9108 201.989 84.8171 200.188 84.7107 197.897C84.6042 195.542 86.6388 193.56 89.2529 193.474C93.5823 193.325 98.1718 193.005 102.43 191.78C105.352 190.938 109.362 189.243 111.917 186.036C114.223 183.148 115.229 179.055 114.756 174.515C114.519 172.299 113.821 169.293 111.787 167.588C109.87 165.979 109.764 163.283 111.55 161.567C113.336 159.841 116.329 159.745 118.233 161.354C121.616 164.189 123.616 168.356 124.171 173.716C124.858 180.313 123.237 186.451 119.606 191.012C116.388 195.051 111.456 198.121 105.328 199.89C99.9816 201.446 94.3866 201.829 89.6196 202C89.5605 202 89.4895 202 89.4304 202L89.4422 201.989Z" fill="#363A44"/>
<path d="M51.4877 85.2831C51.2293 84.8376 50.9569 84.3938 50.6697 83.952C45.5537 76.0812 37.2433 71.7723 29.7568 69.146C35.825 80.9616 47.6387 87.9572 47.6387 87.9572C47.6387 87.9572 49.2039 87.0309 51.4877 85.2831Z" fill="#363A44"/>
<path d="M52.9358 116.237C43.6337 112.404 33.7675 113.042 26.0238 114.366C37.5728 121.031 50.5417 121.774 50.5417 121.774C50.5417 121.774 51.7144 119.669 52.9358 116.237Z" fill="#363A44"/>
<path fill-rule="evenodd" clip-rule="evenodd" d="M29.7568 69.146C27.6597 65.0628 26.2489 60.4039 26.2489 55.2591C26.2489 42.8851 35.0938 33.5995 41.331 27.7985C45.1955 24.2094 47.6387 21.5281 47.6387 21.5281C47.6387 21.5281 50.0936 24.2094 53.9581 27.7985C60.1954 33.5995 69.0402 42.8851 69.0402 55.2591C69.0402 69.8738 57.6488 80.5679 51.4877 85.2831C51.2293 84.8376 50.9569 84.3938 50.6697 83.952C45.5537 76.0812 37.2433 71.7723 29.7568 69.146ZM26.0238 114.366C21.3296 111.657 16.8701 107.97 13.6113 102.956C6.64583 92.2402 9.07866 80.2704 11.2148 72.4766C12.5412 67.6521 13.1477 64.2449 13.1477 64.2449C13.1477 64.2449 16.7832 65.4767 22.1503 66.8687C24.4515 67.4671 27.0503 68.1966 29.7568 69.146C35.825 80.9616 47.6387 87.9572 47.6387 87.9572C47.6387 87.9572 49.2039 87.0309 51.4877 85.2831C58.12 96.7207 55.4265 109.238 52.9358 116.237C43.6337 112.404 33.7675 113.042 26.0238 114.366ZM53.445 154.775C47.2497 154.742 40.5072 153.618 34.1382 150.351C22.0736 144.164 17.4425 132.718 14.9052 125.02C13.3381 120.252 11.9454 117.032 11.9454 117.032C11.9454 117.032 15.7872 116.484 21.2188 115.306C22.6968 114.987 24.3082 114.66 26.0238 114.366C37.5728 121.031 50.5417 121.774 50.5417 121.774C50.5417 121.774 51.7144 119.669 52.9358 116.237C53.8075 116.596 54.6743 116.994 55.5338 117.435C68.4084 124.037 73.5127 136.193 75.4965 143.711C66.1899 145.452 58.7813 150.464 53.445 154.775ZM53.445 154.775C66.2481 154.843 76.7137 150.247 76.7137 150.247C76.7137 150.247 76.5222 147.599 75.4965 143.711C77.6661 143.306 79.9389 143.077 82.3126 143.077C104.865 143.077 119.125 162.087 119.125 162.087C119.125 162.087 104.865 181.086 82.3126 181.086C68.3816 181.086 57.9275 173.23 51.3966 167.69C47.3559 164.257 44.3371 162.087 44.3371 162.087C44.3371 162.087 47.3559 159.906 51.3966 156.474C52.0413 155.927 52.7242 155.358 53.445 154.775Z" fill="#363A44"/>
<path d="M75.4965 143.711C66.1899 145.452 58.7813 150.464 53.445 154.775C66.2481 154.843 76.7137 150.247 76.7137 150.247C76.7137 150.247 76.5222 147.599 75.4965 143.711Z" fill="#363A44"/>
</g>
<path d="M103.528 179.903C101.005 179.903 98.9174 178.107 98.8112 175.823C98.7051 173.475 100.733 171.499 103.34 171.414C107.656 171.265 112.231 170.946 116.476 169.724C119.389 168.885 123.387 167.196 125.934 163.998C128.233 161.119 129.236 157.039 128.764 152.513C128.528 150.303 127.832 147.307 125.804 145.607C123.894 144.003 123.788 141.315 125.568 139.604C127.349 137.883 130.332 137.788 132.231 139.392C135.604 142.218 137.597 146.372 138.151 151.716C138.835 158.293 137.219 164.412 133.599 168.959C130.391 172.986 125.474 176.046 119.365 177.81C114.035 179.361 108.457 179.743 103.705 179.913C103.646 179.913 103.575 179.913 103.516 179.913L103.528 179.903Z" fill="#363A44"/>
<g filter="url(#filter1_f_87_34)">
<path d="M128.568 141.466C131.445 143.888 132.636 147.543 133.002 151.081C133.521 156.085 132.566 161.365 129.311 165.445C126.469 169.004 122.094 171.395 117.46 172.733C112.825 174.072 107.931 174.454 103.061 174.624" stroke="#F8F8FF" stroke-width="0.443213" stroke-linecap="round" stroke-linejoin="round"/>
</g>
<g filter="url(#filter2_f_87_34)">
<path d="M128.568 141.466C131.445 143.888 132.636 147.543 133.002 151.081C133.521 156.085 132.566 161.365 129.311 165.445C126.469 169.004 122.094 171.395 117.46 172.733C112.825 174.072 107.931 174.454 103.061 174.624" stroke="white" stroke-opacity="0.6" stroke-width="0.443213" stroke-linecap="round" stroke-linejoin="round"/>
</g>
<path d="M129.042 153.754C129.046 153.803 129.048 153.842 129.048 153.869C129.046 153.831 129.044 153.792 129.042 153.754C128.962 152.841 128.145 148.24 126.486 145.293C124.737 142.187 130.062 140.661 132.84 140.176C133.335 140.553 134.44 142.035 134.44 142.36C133.761 144.353 128.843 149.395 129.042 153.754Z" fill="url(#paint0_linear_87_34)"/>
<mask id="mask0_87_34" style="mask-type:alpha" maskUnits="userSpaceOnUse" x="40" y="0" width="44" height="67">
<path d="M61.8896 0.326404C61.9609 0.402866 62.055 0.503244 62.1708 0.625788C62.4612 0.933206 62.8885 1.38014 63.4362 1.93895C64.5317 3.05652 66.1092 4.62179 68.0384 6.41356C74.258 12.1981 83.0034 21.3963 83.0034 33.6274C83.0034 43.5317 77.7119 51.629 72.3959 57.2631C69.7398 60.0782 67.083 62.2723 65.0902 63.7626C64.094 64.5076 63.2642 65.0763 62.6841 65.4584C62.394 65.6495 62.1664 65.7939 62.0116 65.8903C61.9638 65.9201 61.9229 65.9454 61.8892 65.966C61.8556 65.9454 61.8148 65.9202 61.767 65.8903C61.6123 65.7939 61.3848 65.6495 61.0949 65.4585C60.5151 65.0763 59.6857 64.5076 58.6901 63.7626C56.6984 62.2724 54.0431 60.0783 51.3884 57.2632C46.0753 51.6291 40.7867 43.5317 40.7867 33.6274C40.7867 21.3963 49.5321 12.1981 55.7517 6.41356C57.681 4.62171 59.2557 3.05637 60.3483 1.93873C60.8946 1.37989 61.3204 0.93293 61.6098 0.625482C61.725 0.503109 61.8186 0.402835 61.8896 0.326404Z" fill="#4B4D53"/>
<path d="M61.8896 0.326404C61.9609 0.402866 62.055 0.503244 62.1708 0.625788C62.4612 0.933206 62.8885 1.38014 63.4362 1.93895C64.5317 3.05652 66.1092 4.62179 68.0384 6.41356C74.258 12.1981 83.0034 21.3963 83.0034 33.6274C83.0034 43.5317 77.7119 51.629 72.3959 57.2631C69.7398 60.0782 67.083 62.2723 65.0902 63.7626C64.094 64.5076 63.2642 65.0763 62.6841 65.4584C62.394 65.6495 62.1664 65.7939 62.0116 65.8903C61.9638 65.9201 61.9229 65.9454 61.8892 65.966C61.8556 65.9454 61.8148 65.9202 61.767 65.8903C61.6123 65.7939 61.3848 65.6495 61.0949 65.4585C60.5151 65.0763 59.6857 64.5076 58.6901 63.7626C56.6984 62.2724 54.0431 60.0783 51.3884 57.2632C46.0753 51.6291 40.7867 43.5317 40.7867 33.6274C40.7867 21.3963 49.5321 12.1981 55.7517 6.41356C57.681 4.62171 59.2557 3.05637 60.3483 1.93873C60.8946 1.37989 61.3204 0.93293 61.6098 0.625482C61.725 0.503109 61.8186 0.402835 61.8896 0.326404Z" fill="url(#paint1_angular_87_34)"/>
<path d="M61.8896 0.326404C61.9609 0.402866 62.055 0.503244 62.1708 0.625788C62.4612 0.933206 62.8885 1.38014 63.4362 1.93895C64.5317 3.05652 66.1092 4.62179 68.0384 6.41356C74.258 12.1981 83.0034 21.3963 83.0034 33.6274C83.0034 43.5317 77.7119 51.629 72.3959 57.2631C69.7398 60.0782 67.083 62.2723 65.0902 63.7626C64.094 64.5076 63.2642 65.0763 62.6841 65.4584C62.394 65.6495 62.1664 65.7939 62.0116 65.8903C61.9638 65.9201 61.9229 65.9454 61.8892 65.966C61.8556 65.9454 61.8148 65.9202 61.767 65.8903C61.6123 65.7939 61.3848 65.6495 61.0949 65.4585C60.5151 65.0763 59.6857 64.5076 58.6901 63.7626C56.6984 62.2724 54.0431 60.0783 51.3884 57.2632C46.0753 51.6291 40.7867 43.5317 40.7867 33.6274C40.7867 21.3963 49.5321 12.1981 55.7517 6.41356C57.681 4.62171 59.2557 3.05637 60.3483 1.93873C60.8946 1.37989 61.3204 0.93293 61.6098 0.625482C61.725 0.503109 61.8186 0.402835 61.8896 0.326404Z" stroke="#32353E" stroke-width="0.443213"/>
</mask>
<g mask="url(#mask0_87_34)">
<path d="M61.8897 0.326649C61.961 0.40311 62.0551 0.503488 62.1709 0.626032C62.4614 0.93345 62.8886 1.38038 63.4364 1.93919C64.5318 3.05676 66.1093 4.62203 68.0386 6.41381C74.2581 12.1983 83.0036 21.3965 83.0036 33.6277C83.0035 43.5319 77.7121 51.6293 72.3961 57.2634C69.7399 60.0785 67.0831 62.2726 65.0903 63.7628C64.0941 64.5078 63.2644 65.0766 62.6842 65.4587C62.3941 65.6498 62.1665 65.7941 62.0118 65.8906C61.9639 65.9204 61.923 65.9456 61.8894 65.9662C61.8558 65.9456 61.8149 65.9204 61.7671 65.8906C61.6124 65.7942 61.3849 65.6498 61.095 65.4587C60.5152 65.0766 59.6859 64.5079 58.6902 63.7629C56.6985 62.2726 54.0432 60.0785 51.3885 57.2634C46.0754 51.6293 40.7868 43.532 40.7868 33.6277C40.7868 21.3965 49.5323 12.1983 55.7518 6.41381C57.6812 4.62196 59.2558 3.05661 60.3484 1.93898C60.8947 1.38014 61.3205 0.933174 61.6099 0.625726C61.7251 0.503353 61.8187 0.403079 61.8897 0.326649Z" fill="#4B4D53"/>
<path d="M61.8897 0.326649C61.961 0.40311 62.0551 0.503488 62.1709 0.626032C62.4614 0.93345 62.8886 1.38038 63.4364 1.93919C64.5318 3.05676 66.1093 4.62203 68.0386 6.41381C74.2581 12.1983 83.0036 21.3965 83.0036 33.6277C83.0035 43.5319 77.7121 51.6293 72.3961 57.2634C69.7399 60.0785 67.0831 62.2726 65.0903 63.7628C64.0941 64.5078 63.2644 65.0766 62.6842 65.4587C62.3941 65.6498 62.1665 65.7941 62.0118 65.8906C61.9639 65.9204 61.923 65.9456 61.8894 65.9662C61.8558 65.9456 61.8149 65.9204 61.7671 65.8906C61.6124 65.7942 61.3849 65.6498 61.095 65.4587C60.5152 65.0766 59.6859 64.5079 58.6902 63.7629C56.6985 62.2726 54.0432 60.0785 51.3885 57.2634C46.0754 51.6293 40.7868 43.532 40.7868 33.6277C40.7868 21.3965 49.5323 12.1983 55.7518 6.41381C57.6812 4.62196 59.2558 3.05661 60.3484 1.93898C60.8947 1.38014 61.3205 0.933174 61.6099 0.625726C61.7251 0.503353 61.8187 0.403079 61.8897 0.326649Z" fill="url(#paint2_angular_87_34)"/>
<path d="M61.8897 0.326649C61.961 0.40311 62.0551 0.503488 62.1709 0.626032C62.4614 0.93345 62.8886 1.38038 63.4364 1.93919C64.5318 3.05676 66.1093 4.62203 68.0386 6.41381C74.2581 12.1983 83.0036 21.3965 83.0036 33.6277C83.0035 43.5319 77.7121 51.6293 72.3961 57.2634C69.7399 60.0785 67.0831 62.2726 65.0903 63.7628C64.0941 64.5078 63.2644 65.0766 62.6842 65.4587C62.3941 65.6498 62.1665 65.7941 62.0118 65.8906C61.9639 65.9204 61.923 65.9456 61.8894 65.9662C61.8558 65.9456 61.8149 65.9204 61.7671 65.8906C61.6124 65.7942 61.3849 65.6498 61.095 65.4587C60.5152 65.0766 59.6859 64.5079 58.6902 63.7629C56.6985 62.2726 54.0432 60.0785 51.3885 57.2634C46.0754 51.6293 40.7868 43.532 40.7868 33.6277C40.7868 21.3965 49.5323 12.1983 55.7518 6.41381C57.6812 4.62196 59.2558 3.05661 60.3484 1.93898C60.8947 1.38014 61.3205 0.933174 61.6099 0.625726C61.7251 0.503353 61.8187 0.403079 61.8897 0.326649Z" stroke="#32353E" stroke-width="0.443213"/>
<g filter="url(#filter3_f_87_34)">
<path d="M81.9844 28.0605C86.9127 49.6999 62.5184 64.9967 61.8966 65.3709C62.1081 65.1372 61.8966 58.7852 61.8966 58.7852C69.4312 52.3429 74.0805 49.0391 74.8184 35.8301L81.9844 28.0605Z" fill="url(#paint3_linear_87_34)"/>
</g>
<g filter="url(#filter4_f_87_34)">
<path d="M41.8088 28.0605C36.8805 49.6999 61.2748 64.9967 61.8966 65.3709C61.6851 65.1372 61.8966 58.7852 61.8966 58.7852C54.362 52.3429 49.7127 49.0391 48.9748 35.8301L41.8088 28.0605Z" fill="url(#paint4_linear_87_34)"/>
</g>
<g filter="url(#filter5_f_87_34)">
<path d="M61.5781 65.676L61.5781 39.0924C60.7481 53.841 50.8208 54.2397 45.7855 49.5966C46.5235 52.5463 56.5045 61.4085 61.5781 65.676Z" fill="black" fill-opacity="0.6"/>
</g>
<g filter="url(#filter6_f_87_34)">
<path d="M61.9504 1.05054C75.5056 13.0266 81.913 23.4358 82.4249 32.4318C82.2422 35.5654 82.4249 41.1417 78.7477 47.2898C79.1244 39.7403 74.6536 28.8992 61.9504 21.0422L61.9504 7.647L61.9504 1.05054Z" fill="url(#paint5_linear_87_34)" fill-opacity="0.6"/>
</g>
<g filter="url(#filter7_f_87_34)">
<path d="M61.8929 1.05054C48.3377 13.0266 41.9303 23.4358 41.4184 32.4318C41.6012 35.5654 41.4184 41.1417 45.0956 47.2898C44.7189 39.7403 49.1897 29.081 61.8929 21.224L61.8929 7.647L61.8929 1.05054Z" fill="url(#paint6_linear_87_34)" fill-opacity="0.6"/>
</g>
<g filter="url(#filter8_f_87_34)">
<line x1="61.2197" y1="66.2256" x2="61.2197" y2="1.04843" stroke="#32353E" stroke-opacity="0.2" stroke-width="0.443213"/>
</g>
<g filter="url(#filter9_f_87_34)">
<path d="M62.3627 66.2256L62.3627 1.04843" stroke="white" stroke-opacity="0.16" stroke-width="0.443213" stroke-linecap="round"/>
</g>
</g>
<mask id="mask1_87_34" style="mask-type:alpha" maskUnits="userSpaceOnUse" x="23" y="42" width="47" height="58">
<path d="M27.6515 42.8703C27.7546 42.9042 27.888 42.9479 28.0503 43.0003C28.4749 43.1375 29.0965 43.3348 29.8854 43.5755C31.4631 44.0568 33.7103 44.7118 36.3897 45.4067C45.0291 47.6532 57.787 51.7355 64.6769 62.3354C70.2562 70.9189 70.2304 80.2857 68.7983 87.525C68.0826 91.1427 67.0169 94.2227 66.1301 96.3981C65.6868 97.4856 65.2883 98.3466 65.0011 98.9351C64.8575 99.2293 64.7416 99.4554 64.6619 99.6076C64.6393 99.6508 64.6195 99.6881 64.6029 99.7193C64.5642 99.7165 64.518 99.713 64.4646 99.7088C64.2764 99.694 63.9982 99.67 63.6396 99.6333C62.9225 99.5599 61.8843 99.4357 60.6027 99.2327C58.0393 98.8267 54.5047 98.1058 50.6208 96.8468C42.849 94.3275 33.706 89.6626 28.1267 81.0791C21.2368 70.4792 23.6355 58.6243 25.7648 50.8553C26.427 48.4467 26.9096 46.3918 27.2266 44.9387C27.3851 44.2122 27.5023 43.636 27.5799 43.2412C27.6095 43.0906 27.6333 42.9664 27.6515 42.8703Z" fill="#4B4D53"/>
<path d="M27.6515 42.8703C27.7546 42.9042 27.888 42.9479 28.0503 43.0003C28.4749 43.1375 29.0965 43.3348 29.8854 43.5755C31.4631 44.0568 33.7103 44.7118 36.3897 45.4067C45.0291 47.6532 57.787 51.7355 64.6769 62.3354C70.2562 70.9189 70.2304 80.2857 68.7983 87.525C68.0826 91.1427 67.0169 94.2227 66.1301 96.3981C65.6868 97.4856 65.2883 98.3466 65.0011 98.9351C64.8575 99.2293 64.7416 99.4554 64.6619 99.6076C64.6393 99.6508 64.6195 99.6881 64.6029 99.7193C64.5642 99.7165 64.518 99.713 64.4646 99.7088C64.2764 99.694 63.9982 99.67 63.6396 99.6333C62.9225 99.5599 61.8843 99.4357 60.6027 99.2327C58.0393 98.8267 54.5047 98.1058 50.6208 96.8468C42.849 94.3275 33.706 89.6626 28.1267 81.0791C21.2368 70.4792 23.6355 58.6243 25.7648 50.8553C26.427 48.4467 26.9096 46.3918 27.2266 44.9387C27.3851 44.2122 27.5023 43.636 27.5799 43.2412C27.6095 43.0906 27.6333 42.9664 27.6515 42.8703Z" fill="url(#paint7_angular_87_34)"/>
<path d="M27.6515 42.8703C27.7546 42.9042 27.888 42.9479 28.0503 43.0003C28.4749 43.1375 29.0965 43.3348 29.8854 43.5755C31.4631 44.0568 33.7103 44.7118 36.3897 45.4067C45.0291 47.6532 57.787 51.7355 64.6769 62.3354C70.2562 70.9189 70.2304 80.2857 68.7983 87.525C68.0826 91.1427 67.0169 94.2227 66.1301 96.3981C65.6868 97.4856 65.2883 98.3466 65.0011 98.9351C64.8575 99.2293 64.7416 99.4554 64.6619 99.6076C64.6393 99.6508 64.6195 99.6881 64.6029 99.7193C64.5642 99.7165 64.518 99.713 64.4646 99.7088C64.2764 99.694 63.9982 99.67 63.6396 99.6333C62.9225 99.5599 61.8843 99.4357 60.6027 99.2327C58.0393 98.8267 54.5047 98.1058 50.6208 96.8468C42.849 94.3275 33.706 89.6626 28.1267 81.0791C21.2368 70.4792 23.6355 58.6243 25.7648 50.8553C26.427 48.4467 26.9096 46.3918 27.2266 44.9387C27.3851 44.2122 27.5023 43.636 27.5799 43.2412C27.6095 43.0906 27.6333 42.9664 27.6515 42.8703Z" stroke="#32353E" stroke-width="0.443213"/>
</mask>
<g mask="url(#mask1_87_34)">
<path d="M27.6523 42.8703C27.7553 42.9042 27.8888 42.9479 28.0511 43.0003C28.4757 43.1375 29.0973 43.3348 29.8862 43.5755C31.4639 44.0568 33.7111 44.7118 36.3904 45.4067C45.0299 47.6532 57.7878 51.7355 64.6777 62.3354C70.257 70.9189 70.2312 80.2857 68.7991 87.525C68.0834 91.1427 67.0177 94.2227 66.1309 96.3981C65.6876 97.4856 65.2891 98.3466 65.0019 98.9351C64.8583 99.2293 64.7424 99.4554 64.6627 99.6076C64.6401 99.6508 64.6203 99.6881 64.6037 99.7193C64.565 99.7165 64.5188 99.713 64.4654 99.7088C64.2772 99.694 63.999 99.67 63.6404 99.6333C62.9233 99.5599 61.8851 99.4357 60.6035 99.2327C58.0401 98.8267 54.5054 98.1058 50.6216 96.8468C42.8498 94.3275 33.7068 89.6626 28.1275 81.0791C21.2376 70.4792 23.6363 58.6243 25.7656 50.8553C26.4278 48.4467 26.9104 46.3918 27.2274 44.9387C27.3859 44.2122 27.5031 43.636 27.5807 43.2412C27.6103 43.0906 27.6341 42.9664 27.6523 42.8703Z" fill="#4B4D53"/>
<path d="M27.6523 42.8703C27.7553 42.9042 27.8888 42.9479 28.0511 43.0003C28.4757 43.1375 29.0973 43.3348 29.8862 43.5755C31.4639 44.0568 33.7111 44.7118 36.3904 45.4067C45.0299 47.6532 57.7878 51.7355 64.6777 62.3354C70.257 70.9189 70.2312 80.2857 68.7991 87.525C68.0834 91.1427 67.0177 94.2227 66.1309 96.3981C65.6876 97.4856 65.2891 98.3466 65.0019 98.9351C64.8583 99.2293 64.7424 99.4554 64.6627 99.6076C64.6401 99.6508 64.6203 99.6881 64.6037 99.7193C64.565 99.7165 64.5188 99.713 64.4654 99.7088C64.2772 99.694 63.999 99.67 63.6404 99.6333C62.9233 99.5599 61.8851 99.4357 60.6035 99.2327C58.0401 98.8267 54.5054 98.1058 50.6216 96.8468C42.8498 94.3275 33.7068 89.6626 28.1275 81.0791C21.2376 70.4792 23.6363 58.6243 25.7656 50.8553C26.4278 48.4467 26.9104 46.3918 27.2274 44.9387C27.3859 44.2122 27.5031 43.636 27.5807 43.2412C27.6103 43.0906 27.6341 42.9664 27.6523 42.8703Z" fill="url(#paint8_angular_87_34)"/>
<path d="M27.6523 42.8703C27.7553 42.9042 27.8888 42.9479 28.0511 43.0003C28.4757 43.1375 29.0973 43.3348 29.8862 43.5755C31.4639 44.0568 33.7111 44.7118 36.3904 45.4067C45.0299 47.6532 57.7878 51.7355 64.6777 62.3354C70.257 70.9189 70.2312 80.2857 68.7991 87.525C68.0834 91.1427 67.0177 94.2227 66.1309 96.3981C65.6876 97.4856 65.2891 98.3466 65.0019 98.9351C64.8583 99.2293 64.7424 99.4554 64.6627 99.6076C64.6401 99.6508 64.6203 99.6881 64.6037 99.7193C64.565 99.7165 64.5188 99.713 64.4654 99.7088C64.2772 99.694 63.999 99.67 63.6404 99.6333C62.9233 99.5599 61.8851 99.4357 60.6035 99.2327C58.0401 98.8267 54.5054 98.1058 50.6216 96.8468C42.8498 94.3275 33.7068 89.6626 28.1275 81.0791C21.2376 70.4792 23.6363 58.6243 25.7656 50.8553C26.4278 48.4467 26.9104 46.3918 27.2274 44.9387C27.3859 44.2122 27.5031 43.636 27.5807 43.2412C27.6103 43.0906 27.6341 42.9664 27.6523 42.8703Z" stroke="#32353E" stroke-width="0.443213"/>
<g filter="url(#filter10_f_87_34)">
<path d="M64.2708 99.1969C63.5217 99.149 39.3758 97.4482 28.6162 80.8949C21.8644 70.5075 24.17 58.9319 26.2035 51.3962C27.3613 47.1123 27.9417 43.9886 28.0386 43.4951C28.0089 44.795 27.6614 65.8297 36.4513 79.3526C45.2411 92.8755 63.6989 98.9998 64.2708 99.1969Z" fill="black" fill-opacity="0.7"/>
</g>
<g filter="url(#filter11_f_87_34)">
<path d="M64.1698 99.6028L49.2055 76.5807C56.7889 89.722 48.416 94.4761 41.4417 92.6914C43.7412 94.9181 57.3737 98.1603 64.1698 99.6028Z" fill="black" fill-opacity="0.6"/>
</g>
<g filter="url(#filter12_f_87_34)">
<path d="M64.751 99.9387L50.5262 77.7692C59.5472 90.1732 64.1764 71.8916 65.9234 65.6344C73.1423 81.6636 66.7427 93.9897 64.751 99.9387Z" fill="black" fill-opacity="0.6"/>
</g>
<g filter="url(#filter13_f_87_34)">
<path d="M28.1119 43.4685C46.5925 47.8201 58.001 53.989 63.5083 61.5525C65.114 64.3474 68.4113 69.0954 68.6876 76.053C64.7641 69.3476 49.6286 54.0045 34.2045 52.8418L31.8251 49.1813L28.1119 43.4685Z" fill="url(#paint9_linear_87_34)"/>
</g>
<g filter="url(#filter14_f_87_34)">
<line y1="-0.221607" x2="67.3212" y2="-0.221607" transform="matrix(-0.544988 -0.838444 0.889817 -0.456317 64.3582 100.139)" stroke="#32353E" stroke-opacity="0.5" stroke-width="0.443213"/>
</g>
<g filter="url(#filter15_f_87_34)">
<path d="M65.1586 99.7302L28.4694 43.2852" stroke="#F8F8FF" stroke-opacity="0.2" stroke-width="0.443213" stroke-linecap="round"/>
</g>
</g>
<mask id="mask2_87_34" style="mask-type:alpha" maskUnits="userSpaceOnUse" x="26" y="91" width="65" height="42">
<path d="M26.6085 95.377C26.7123 95.3613 26.8424 95.3413 26.9971 95.317C27.4421 95.2473 28.0914 95.1421 28.91 95.0002C30.5473 94.7164 32.862 94.2855 35.5735 93.6974C44.3153 91.8071 57.6723 89.6724 69.6203 95.7996C79.2956 100.761 84.5486 108.892 87.3831 115.797C88.7999 119.248 89.6107 122.389 90.0672 124.666C90.2955 125.805 90.435 126.727 90.5175 127.364C90.5587 127.683 90.5857 127.93 90.6023 128.097C90.6061 128.136 90.6094 128.17 90.6122 128.2C90.5816 128.213 90.5465 128.227 90.507 128.244C90.3358 128.314 90.0814 128.417 89.7504 128.544C89.0882 128.799 88.1193 129.153 86.8954 129.546C84.4472 130.333 80.9803 131.278 76.9077 131.913C68.7599 133.183 58.2072 133.205 48.5318 128.243C36.5838 122.116 31.9867 110.774 29.4589 103.105C28.6765 100.725 27.9377 98.7308 27.3943 97.3317C27.1226 96.6321 26.8997 96.0811 26.7447 95.7048C26.6909 95.5741 26.6452 95.4645 26.6085 95.377Z" fill="#4B4D53"/>
<path d="M26.6085 95.377C26.7123 95.3613 26.8424 95.3413 26.9971 95.317C27.4421 95.2473 28.0914 95.1421 28.91 95.0002C30.5473 94.7164 32.862 94.2855 35.5735 93.6974C44.3153 91.8071 57.6723 89.6724 69.6203 95.7996C79.2956 100.761 84.5486 108.892 87.3831 115.797C88.7999 119.248 89.6107 122.389 90.0672 124.666C90.2955 125.805 90.435 126.727 90.5175 127.364C90.5587 127.683 90.5857 127.93 90.6023 128.097C90.6061 128.136 90.6094 128.17 90.6122 128.2C90.5816 128.213 90.5465 128.227 90.507 128.244C90.3358 128.314 90.0814 128.417 89.7504 128.544C89.0882 128.799 88.1193 129.153 86.8954 129.546C84.4472 130.333 80.9803 131.278 76.9077 131.913C68.7599 133.183 58.2072 133.205 48.5318 128.243C36.5838 122.116 31.9867 110.774 29.4589 103.105C28.6765 100.725 27.9377 98.7308 27.3943 97.3317C27.1226 96.6321 26.8997 96.0811 26.7447 95.7048C26.6909 95.5741 26.6452 95.4645 26.6085 95.377Z" fill="url(#paint10_angular_87_34)"/>
<path d="M26.6085 95.377C26.7123 95.3613 26.8424 95.3413 26.9971 95.317C27.4421 95.2473 28.0914 95.1421 28.91 95.0002C30.5473 94.7164 32.862 94.2855 35.5735 93.6974C44.3153 91.8071 57.6723 89.6724 69.6203 95.7996C79.2956 100.761 84.5486 108.892 87.3831 115.797C88.7999 119.248 89.6107 122.389 90.0672 124.666C90.2955 125.805 90.435 126.727 90.5175 127.364C90.5587 127.683 90.5857 127.93 90.6023 128.097C90.6061 128.136 90.6094 128.17 90.6122 128.2C90.5816 128.213 90.5465 128.227 90.507 128.244C90.3358 128.314 90.0814 128.417 89.7504 128.544C89.0882 128.799 88.1193 129.153 86.8954 129.546C84.4472 130.333 80.9803 131.278 76.9077 131.913C68.7599 133.183 58.2072 133.205 48.5318 128.243C36.5838 122.116 31.9867 110.774 29.4589 103.105C28.6765 100.725 27.9377 98.7308 27.3943 97.3317C27.1226 96.6321 26.8997 96.0811 26.7447 95.7048C26.6909 95.5741 26.6452 95.4645 26.6085 95.377Z" stroke="#32353E" stroke-width="0.443213"/>
</mask>
<g mask="url(#mask2_87_34)">
<path d="M26.6079 95.3775C26.7117 95.3617 26.8417 95.3418 26.9965 95.3175C27.4414 95.2478 28.0907 95.1426 28.9094 95.0007C30.5466 94.7168 32.8613 94.286 35.5729 93.6979C44.3146 91.8076 57.6716 89.6729 69.6196 95.8C79.2949 100.762 84.5479 108.893 87.3824 115.797C88.7993 119.249 89.6101 122.389 90.0666 124.667C90.2948 125.805 90.4344 126.728 90.5168 127.365C90.5581 127.683 90.585 127.93 90.6016 128.097C90.6055 128.136 90.6087 128.17 90.6115 128.2C90.5809 128.213 90.5459 128.228 90.5063 128.244C90.3351 128.315 90.0808 128.418 89.7497 128.545C89.0875 128.8 88.1187 129.153 86.8947 129.547C84.4465 130.333 80.9797 131.279 76.907 131.913C68.7592 133.183 58.2065 133.206 48.5312 128.244C36.5832 122.117 31.986 110.775 29.4582 103.105C28.6758 100.725 27.937 98.7313 27.3936 97.3322C27.1219 96.6326 26.8991 96.0816 26.744 95.7053C26.6902 95.5746 26.6445 95.4649 26.6079 95.3775Z" fill="#4B4D53"/>
<path d="M26.6079 95.3775C26.7117 95.3617 26.8417 95.3418 26.9965 95.3175C27.4414 95.2478 28.0907 95.1426 28.9094 95.0007C30.5466 94.7168 32.8613 94.286 35.5729 93.6979C44.3146 91.8076 57.6716 89.6729 69.6196 95.8C79.2949 100.762 84.5479 108.893 87.3824 115.797C88.7993 119.249 89.6101 122.389 90.0666 124.667C90.2948 125.805 90.4344 126.728 90.5168 127.365C90.5581 127.683 90.585 127.93 90.6016 128.097C90.6055 128.136 90.6087 128.17 90.6115 128.2C90.5809 128.213 90.5459 128.228 90.5063 128.244C90.3351 128.315 90.0808 128.418 89.7497 128.545C89.0875 128.8 88.1187 129.153 86.8947 129.547C84.4465 130.333 80.9797 131.279 76.907 131.913C68.7592 133.183 58.2065 133.206 48.5312 128.244C36.5832 122.117 31.986 110.775 29.4582 103.105C28.6758 100.725 27.937 98.7313 27.3936 97.3322C27.1219 96.6326 26.8991 96.0816 26.744 95.7053C26.6902 95.5746 26.6445 95.4649 26.6079 95.3775Z" fill="url(#paint11_angular_87_34)"/>
<path d="M26.6079 95.3775C26.7117 95.3617 26.8417 95.3418 26.9965 95.3175C27.4414 95.2478 28.0907 95.1426 28.9094 95.0007C30.5466 94.7168 32.8613 94.286 35.5729 93.6979C44.3146 91.8076 57.6716 89.6729 69.6196 95.8C79.2949 100.762 84.5479 108.893 87.3824 115.797C88.7993 119.249 89.6101 122.389 90.0666 124.667C90.2948 125.805 90.4344 126.728 90.5168 127.365C90.5581 127.683 90.585 127.93 90.6016 128.097C90.6055 128.136 90.6087 128.17 90.6115 128.2C90.5809 128.213 90.5459 128.228 90.5063 128.244C90.3351 128.315 90.0808 128.418 89.7497 128.545C89.0875 128.8 88.1187 129.153 86.8947 129.547C84.4465 130.333 80.9797 131.279 76.907 131.913C68.7592 133.183 58.2065 133.206 48.5312 128.244C36.5832 122.117 31.986 110.775 29.4582 103.105C28.6758 100.725 27.937 98.7313 27.3936 97.3322C27.1219 96.6326 26.8991 96.0816 26.744 95.7053C26.6902 95.5746 26.6445 95.4649 26.6079 95.3775Z" stroke="#32353E" stroke-width="0.443213"/>
<g filter="url(#filter16_f_87_34)">
<path d="M90.0237 127.893C89.348 128.184 67.4796 137.435 48.8434 127.878C37.1489 121.881 32.6295 110.832 30.1487 103.403C28.7399 99.1786 27.4841 96.2156 27.2903 95.7452C27.9963 96.8841 39.5361 115.255 54.7606 123.062C69.9851 130.87 89.4174 127.976 90.0237 127.893Z" fill="black" fill-opacity="0.8"/>
</g>
<g filter="url(#filter17_f_87_34)">
<path d="M90.161 128.29L64.2421 114.998C78.2069 123.011 73.632 130.847 66.5873 132.399C69.8323 133.306 83.4634 130.059 90.161 128.29Z" fill="black" fill-opacity="0.6"/>
</g>
<g filter="url(#filter18_f_87_34)">
<path d="M90.8582 128.321L67.1821 114.765C81.9769 121.501 85.0865 114.328 83.0771 108.133C85.5841 110.176 89.2343 122.284 90.8582 128.321Z" fill="black" fill-opacity="0.4"/>
</g>
<g filter="url(#filter19_f_87_34)">
<path d="M27.3391 95.6891C45.7934 91.2501 59.146 91.5258 68.173 95.6301C71.1369 97.3375 76.6652 99.985 80.821 105.888C73.6486 101.823 51.904 95.2576 37.8918 101.101L33.7706 98.9873L27.3391 95.6891Z" fill="url(#paint12_linear_87_34)"/>
</g>
<g filter="url(#filter20_f_87_34)">
<line y1="-0.221607" x2="71.4165" y2="-0.221607" transform="matrix(-0.889817 -0.456317 0.544988 -0.838444 90.6326 128.672)" stroke="#32353E" stroke-opacity="0.5" stroke-width="0.443213"/>
</g>
<g filter="url(#filter21_f_87_34)">
<path d="M91.0909 127.962L27.5433 95.3731" stroke="#F8F8FF" stroke-opacity="0.2" stroke-width="0.443213" stroke-linecap="round"/>
</g>
</g>
<mask id="mask3_87_34" style="mask-type:alpha" maskUnits="userSpaceOnUse" x="58" y="121" width="76" height="39">
<path d="M58.9528 140.129C59.0316 140.071 59.1287 139.999 59.2428 139.914C59.5888 139.656 60.0919 139.276 60.721 138.79C61.9791 137.817 63.7412 136.416 65.7583 134.702C72.2634 129.184 82.6324 121.4 96.4359 121.4C107.614 121.4 116.743 126.111 123.085 130.832C126.255 133.191 128.725 135.551 130.402 137.321C131.241 138.205 131.881 138.942 132.311 139.457C132.526 139.715 132.688 139.917 132.796 140.054C132.818 140.082 132.838 140.107 132.856 140.129C132.838 140.152 132.818 140.177 132.796 140.205C132.688 140.342 132.526 140.544 132.311 140.801C131.881 141.316 131.241 142.052 130.402 142.936C128.725 144.705 126.255 147.064 123.085 149.422C116.743 154.14 107.614 158.849 96.4359 158.849C82.6324 158.849 72.2634 151.064 65.7583 145.546C63.7411 143.832 61.9789 142.434 60.7208 141.463C60.0917 140.978 59.5885 140.6 59.2425 140.343C59.1285 140.258 59.0316 140.187 58.9528 140.129Z" fill="#4B4D53"/>
<path d="M58.9528 140.129C59.0316 140.071 59.1287 139.999 59.2428 139.914C59.5888 139.656 60.0919 139.276 60.721 138.79C61.9791 137.817 63.7412 136.416 65.7583 134.702C72.2634 129.184 82.6324 121.4 96.4359 121.4C107.614 121.4 116.743 126.111 123.085 130.832C126.255 133.191 128.725 135.551 130.402 137.321C131.241 138.205 131.881 138.942 132.311 139.457C132.526 139.715 132.688 139.917 132.796 140.054C132.818 140.082 132.838 140.107 132.856 140.129C132.838 140.152 132.818 140.177 132.796 140.205C132.688 140.342 132.526 140.544 132.311 140.801C131.881 141.316 131.241 142.052 130.402 142.936C128.725 144.705 126.255 147.064 123.085 149.422C116.743 154.14 107.614 158.849 96.4359 158.849C82.6324 158.849 72.2634 151.064 65.7583 145.546C63.7411 143.832 61.9789 142.434 60.7208 141.463C60.0917 140.978 59.5885 140.6 59.2425 140.343C59.1285 140.258 59.0316 140.187 58.9528 140.129Z" fill="url(#paint13_angular_87_34)"/>
<path d="M58.9528 140.129C59.0316 140.071 59.1287 139.999 59.2428 139.914C59.5888 139.656 60.0919 139.276 60.721 138.79C61.9791 137.817 63.7412 136.416 65.7583 134.702C72.2634 129.184 82.6324 121.4 96.4359 121.4C107.614 121.4 116.743 126.111 123.085 130.832C126.255 133.191 128.725 135.551 130.402 137.321C131.241 138.205 131.881 138.942 132.311 139.457C132.526 139.715 132.688 139.917 132.796 140.054C132.818 140.082 132.838 140.107 132.856 140.129C132.838 140.152 132.818 140.177 132.796 140.205C132.688 140.342 132.526 140.544 132.311 140.801C131.881 141.316 131.241 142.052 130.402 142.936C128.725 144.705 126.255 147.064 123.085 149.422C116.743 154.14 107.614 158.849 96.4359 158.849C82.6324 158.849 72.2634 151.064 65.7583 145.546C63.7411 143.832 61.9789 142.434 60.7208 141.463C60.0917 140.978 59.5885 140.6 59.2425 140.343C59.1285 140.258 59.0316 140.187 58.9528 140.129Z" stroke="#32353E" stroke-width="0.443213"/>
</mask>
<g mask="url(#mask3_87_34)">
<path d="M58.9532 140.129C59.0321 140.071 59.1291 139.999 59.2432 139.914C59.5892 139.656 60.0924 139.277 60.7214 138.79C61.9795 137.818 63.7416 136.417 65.7587 134.703C72.2638 129.185 82.6328 121.4 96.4364 121.4C107.614 121.4 116.744 126.111 123.085 130.832C126.255 133.192 128.725 135.552 130.402 137.321C131.241 138.206 131.881 138.943 132.311 139.458C132.526 139.715 132.688 139.917 132.797 140.054C132.819 140.082 132.839 140.107 132.856 140.13C132.839 140.152 132.819 140.177 132.797 140.205C132.688 140.342 132.526 140.544 132.311 140.802C131.881 141.316 131.241 142.053 130.402 142.937C128.725 144.705 126.255 147.064 123.085 149.422C116.744 154.141 107.614 158.849 96.4364 158.849C82.6328 158.849 72.2638 151.065 65.7587 145.546C63.7415 143.833 61.9793 142.434 60.7212 141.464C60.0921 140.979 59.589 140.601 59.2429 140.343C59.1289 140.259 59.032 140.187 58.9532 140.129Z" fill="#4B4D53"/>
<path d="M58.9532 140.129C59.0321 140.071 59.1291 139.999 59.2432 139.914C59.5892 139.656 60.0924 139.277 60.7214 138.79C61.9795 137.818 63.7416 136.417 65.7587 134.703C72.2638 129.185 82.6328 121.4 96.4364 121.4C107.614 121.4 116.744 126.111 123.085 130.832C126.255 133.192 128.725 135.552 130.402 137.321C131.241 138.206 131.881 138.943 132.311 139.458C132.526 139.715 132.688 139.917 132.797 140.054C132.819 140.082 132.839 140.107 132.856 140.13C132.839 140.152 132.819 140.177 132.797 140.205C132.688 140.342 132.526 140.544 132.311 140.802C131.881 141.316 131.241 142.053 130.402 142.937C128.725 144.705 126.255 147.064 123.085 149.422C116.744 154.141 107.614 158.849 96.4364 158.849C82.6328 158.849 72.2638 151.065 65.7587 145.546C63.7415 143.833 61.9793 142.434 60.7212 141.464C60.0921 140.979 59.589 140.601 59.2429 140.343C59.1289 140.259 59.032 140.187 58.9532 140.129Z" fill="url(#paint14_angular_87_34)"/>
<path d="M58.9532 140.129C59.0321 140.071 59.1291 139.999 59.2432 139.914C59.5892 139.656 60.0924 139.277 60.7214 138.79C61.9795 137.818 63.7416 136.417 65.7587 134.703C72.2638 129.185 82.6328 121.4 96.4364 121.4C107.614 121.4 116.744 126.111 123.085 130.832C126.255 133.192 128.725 135.552 130.402 137.321C131.241 138.206 131.881 138.943 132.311 139.458C132.526 139.715 132.688 139.917 132.797 140.054C132.819 140.082 132.839 140.107 132.856 140.13C132.839 140.152 132.819 140.177 132.797 140.205C132.688 140.342 132.526 140.544 132.311 140.802C131.881 141.316 131.241 142.053 130.402 142.937C128.725 144.705 126.255 147.064 123.085 149.422C116.744 154.141 107.614 158.849 96.4364 158.849C82.6328 158.849 72.2638 151.065 65.7587 145.546C63.7415 143.833 61.9793 142.434 60.7212 141.464C60.0921 140.979 59.589 140.601 59.2429 140.343C59.1289 140.259 59.032 140.187 58.9532 140.129Z" stroke="#32353E" stroke-width="0.443213"/>
<g filter="url(#filter22_f_87_34)">
<path d="M132.172 140.124C131.751 140.676 118.02 158.399 96.5003 158.399C82.9967 158.399 72.8634 150.838 66.5328 145.506C62.9349 142.474 60.1795 140.465 59.7469 140.144C60.9993 140.817 81.3344 151.601 98.9141 151.601C116.494 151.601 131.694 140.465 132.172 140.124Z" fill="black" fill-opacity="0.7"/>
</g>
<g filter="url(#filter23_f_87_34)">
<path d="M132.517 140.404H102.588C119.193 141.141 119.642 149.959 114.414 154.431C117.735 153.776 127.712 144.91 132.517 140.404Z" fill="black" fill-opacity="0.6"/>
</g>
<g filter="url(#filter24_f_87_34)">
<path d="M133.135 140.124L105 138.899C121.605 138.162 120.26 130.569 115.032 126.096C118.353 126.752 128.331 135.617 133.135 140.124Z" fill="black" fill-opacity="0.2"/>
</g>
<g filter="url(#filter25_f_87_34)">
<path d="M59.7601 140.076C73.2431 128.036 84.9621 122.344 95.0901 121.89C98.618 122.052 104.896 121.89 111.818 125.156C103.318 124.821 80.791 128.792 71.9453 140.076H67.1866H59.7601Z" fill="url(#paint15_linear_87_34)"/>
</g>
<g filter="url(#filter26_f_87_34)">
<line x1="133.136" y1="140.75" x2="59.758" y2="140.75" stroke="#32353E" stroke-opacity="0.5" stroke-width="0.443213"/>
</g>
<g filter="url(#filter27_f_87_34)">
<path d="M133.136 139.707L59.758 139.707" stroke="#F8F8FF" stroke-opacity="0.2" stroke-width="0.443213" stroke-linecap="round"/>
</g>
</g>
<defs>
<filter id="filter0_f_87_34" x="0.567616" y="13.0958" width="132.19" height="197.337" filterUnits="userSpaceOnUse" color-interpolation-filters="sRGB">
<feFlood flood-opacity="0" result="BackgroundImageFix"/>
<feBlend mode="normal" in="SourceGraphic" in2="BackgroundImageFix" result="shape"/>
<feGaussianBlur stdDeviation="4.21616" result="effect1_foregroundBlur_87_34"/>
</filter>
<filter id="filter1_f_87_34" x="101.067" y="139.471" width="34.0627" height="37.1475" filterUnits="userSpaceOnUse" color-interpolation-filters="sRGB">
<feFlood flood-opacity="0" result="BackgroundImageFix"/>
<feBlend mode="normal" in="SourceGraphic" in2="BackgroundImageFix" result="shape"/>
<feGaussianBlur stdDeviation="0.886426" result="effect1_foregroundBlur_87_34"/>
</filter>
<filter id="filter2_f_87_34" x="101.067" y="139.471" width="34.0627" height="37.1475" filterUnits="userSpaceOnUse" color-interpolation-filters="sRGB">
<feFlood flood-opacity="0" result="BackgroundImageFix"/>
<feBlend mode="normal" in="SourceGraphic" in2="BackgroundImageFix" result="shape"/>
<feGaussianBlur stdDeviation="0.886426" result="effect1_foregroundBlur_87_34"/>
</filter>
<filter id="filter3_f_87_34" x="56.578" y="22.742" width="31.3819" height="47.9474" filterUnits="userSpaceOnUse" color-interpolation-filters="sRGB">
<feFlood flood-opacity="0" result="BackgroundImageFix"/>
<feBlend mode="normal" in="SourceGraphic" in2="BackgroundImageFix" result="shape"/>
<feGaussianBlur stdDeviation="2.65928" result="effect1_foregroundBlur_87_34"/>
</filter>
<filter id="filter4_f_87_34" x="35.8332" y="22.742" width="31.3819" height="47.9474" filterUnits="userSpaceOnUse" color-interpolation-filters="sRGB">
<feFlood flood-opacity="0" result="BackgroundImageFix"/>
<feBlend mode="normal" in="SourceGraphic" in2="BackgroundImageFix" result="shape"/>
<feGaussianBlur stdDeviation="2.65928" result="effect1_foregroundBlur_87_34"/>
</filter>
<filter id="filter5_f_87_34" x="40.467" y="33.774" width="26.4297" height="37.2206" filterUnits="userSpaceOnUse" color-interpolation-filters="sRGB">
<feFlood flood-opacity="0" result="BackgroundImageFix"/>
<feBlend mode="normal" in="SourceGraphic" in2="BackgroundImageFix" result="shape"/>
<feGaussianBlur stdDeviation="2.65928" result="effect1_foregroundBlur_87_34"/>
</filter>
<filter id="filter6_f_87_34" x="58.4047" y="-2.49517" width="27.5659" height="53.3307" filterUnits="userSpaceOnUse" color-interpolation-filters="sRGB">
<feFlood flood-opacity="0" result="BackgroundImageFix"/>
<feBlend mode="normal" in="SourceGraphic" in2="BackgroundImageFix" result="shape"/>
<feGaussianBlur stdDeviation="1.77285" result="effect1_foregroundBlur_87_34"/>
</filter>
<filter id="filter7_f_87_34" x="37.8727" y="-2.49517" width="27.5659" height="53.3307" filterUnits="userSpaceOnUse" color-interpolation-filters="sRGB">
<feFlood flood-opacity="0" result="BackgroundImageFix"/>
<feBlend mode="normal" in="SourceGraphic" in2="BackgroundImageFix" result="shape"/>
<feGaussianBlur stdDeviation="1.77285" result="effect1_foregroundBlur_87_34"/>
</filter>
<filter id="filter8_f_87_34" x="60.1117" y="0.161914" width="2.21609" height="66.9501" filterUnits="userSpaceOnUse" color-interpolation-filters="sRGB">
<feFlood flood-opacity="0" result="BackgroundImageFix"/>
<feBlend mode="normal" in="SourceGraphic" in2="BackgroundImageFix" result="shape"/>
<feGaussianBlur stdDeviation="0.443213" result="effect1_foregroundBlur_87_34"/>
</filter>
<filter id="filter9_f_87_34" x="61.2547" y="-0.059522" width="2.21609" height="67.3932" filterUnits="userSpaceOnUse" color-interpolation-filters="sRGB">
<feFlood flood-opacity="0" result="BackgroundImageFix"/>
<feBlend mode="normal" in="SourceGraphic" in2="BackgroundImageFix" result="shape"/>
<feGaussianBlur stdDeviation="0.443213" result="effect1_foregroundBlur_87_34"/>
</filter>
<filter id="filter10_f_87_34" x="18.7967" y="38.1766" width="50.7928" height="66.339" filterUnits="userSpaceOnUse" color-interpolation-filters="sRGB">
<feFlood flood-opacity="0" result="BackgroundImageFix"/>
<feBlend mode="normal" in="SourceGraphic" in2="BackgroundImageFix" result="shape"/>
<feGaussianBlur stdDeviation="2.65928" result="effect1_foregroundBlur_87_34"/>
</filter>
<filter id="filter11_f_87_34" x="36.1231" y="71.2623" width="33.3653" height="33.6591" filterUnits="userSpaceOnUse" color-interpolation-filters="sRGB">
<feFlood flood-opacity="0" result="BackgroundImageFix"/>
<feBlend mode="normal" in="SourceGraphic" in2="BackgroundImageFix" result="shape"/>
<feGaussianBlur stdDeviation="2.65928" result="effect1_foregroundBlur_87_34"/>
</filter>
<filter id="filter12_f_87_34" x="45.2076" y="60.3157" width="29.3834" height="44.9416" filterUnits="userSpaceOnUse" color-interpolation-filters="sRGB">
<feFlood flood-opacity="0" result="BackgroundImageFix"/>
<feBlend mode="normal" in="SourceGraphic" in2="BackgroundImageFix" result="shape"/>
<feGaussianBlur stdDeviation="2.65928" result="effect1_foregroundBlur_87_34"/>
</filter>
<filter id="filter13_f_87_34" x="24.5662" y="39.9228" width="47.6671" height="39.6759" filterUnits="userSpaceOnUse" color-interpolation-filters="sRGB">
<feFlood flood-opacity="0" result="BackgroundImageFix"/>
<feBlend mode="normal" in="SourceGraphic" in2="BackgroundImageFix" result="shape"/>
<feGaussianBlur stdDeviation="1.77285" result="effect1_foregroundBlur_87_34"/>
</filter>
<filter id="filter14_f_87_34" x="26.3881" y="42.8077" width="38.8565" height="58.4201" filterUnits="userSpaceOnUse" color-interpolation-filters="sRGB">
<feFlood flood-opacity="0" result="BackgroundImageFix"/>
<feBlend mode="normal" in="SourceGraphic" in2="BackgroundImageFix" result="shape"/>
<feGaussianBlur stdDeviation="0.443213" result="effect1_foregroundBlur_87_34"/>
</filter>
<filter id="filter15_f_87_34" x="27.3517" y="42.1871" width="38.9246" height="58.6413" filterUnits="userSpaceOnUse" color-interpolation-filters="sRGB">
<feFlood flood-opacity="0" result="BackgroundImageFix"/>
<feBlend mode="normal" in="SourceGraphic" in2="BackgroundImageFix" result="shape"/>
<feGaussianBlur stdDeviation="0.443213" result="effect1_foregroundBlur_87_34"/>
</filter>
<filter id="filter16_f_87_34" x="21.9718" y="90.4266" width="73.3705" height="47.0868" filterUnits="userSpaceOnUse" color-interpolation-filters="sRGB">
<feFlood flood-opacity="0" result="BackgroundImageFix"/>
<feBlend mode="normal" in="SourceGraphic" in2="BackgroundImageFix" result="shape"/>
<feGaussianBlur stdDeviation="2.65928" result="effect1_foregroundBlur_87_34"/>
</filter>
<filter id="filter17_f_87_34" x="58.9235" y="109.68" width="36.5561" height="28.1942" filterUnits="userSpaceOnUse" color-interpolation-filters="sRGB">
<feFlood flood-opacity="0" result="BackgroundImageFix"/>
<feBlend mode="normal" in="SourceGraphic" in2="BackgroundImageFix" result="shape"/>
<feGaussianBlur stdDeviation="2.65928" result="effect1_foregroundBlur_87_34"/>
</filter>
<filter id="filter18_f_87_34" x="61.8635" y="102.814" width="34.3133" height="30.8249" filterUnits="userSpaceOnUse" color-interpolation-filters="sRGB">
<feFlood flood-opacity="0" result="BackgroundImageFix"/>
<feBlend mode="normal" in="SourceGraphic" in2="BackgroundImageFix" result="shape"/>
<feGaussianBlur stdDeviation="2.65928" result="effect1_foregroundBlur_87_34"/>
</filter>
<filter id="filter19_f_87_34" x="23.7934" y="88.9096" width="60.5733" height="20.5238" filterUnits="userSpaceOnUse" color-interpolation-filters="sRGB">
<feFlood flood-opacity="0" result="BackgroundImageFix"/>
<feBlend mode="normal" in="SourceGraphic" in2="BackgroundImageFix" result="shape"/>
<feGaussianBlur stdDeviation="1.77285" result="effect1_foregroundBlur_87_34"/>
</filter>
<filter id="filter20_f_87_34" x="25.9571" y="95.1968" width="65.562" height="34.7331" filterUnits="userSpaceOnUse" color-interpolation-filters="sRGB">
<feFlood flood-opacity="0" result="BackgroundImageFix"/>
<feBlend mode="normal" in="SourceGraphic" in2="BackgroundImageFix" result="shape"/>
<feGaussianBlur stdDeviation="0.443213" result="effect1_foregroundBlur_87_34"/>
</filter>
<filter id="filter21_f_87_34" x="26.4256" y="94.2752" width="65.783" height="34.7846" filterUnits="userSpaceOnUse" color-interpolation-filters="sRGB">
<feFlood flood-opacity="0" result="BackgroundImageFix"/>
<feBlend mode="normal" in="SourceGraphic" in2="BackgroundImageFix" result="shape"/>
<feGaussianBlur stdDeviation="0.443213" result="effect1_foregroundBlur_87_34"/>
</filter>
<filter id="filter22_f_87_34" x="54.4283" y="134.805" width="83.0624" height="28.9128" filterUnits="userSpaceOnUse" color-interpolation-filters="sRGB">
<feFlood flood-opacity="0" result="BackgroundImageFix"/>
<feBlend mode="normal" in="SourceGraphic" in2="BackgroundImageFix" result="shape"/>
<feGaussianBlur stdDeviation="2.65928" result="effect1_foregroundBlur_87_34"/>
</filter>
<filter id="filter23_f_87_34" x="97.2698" y="135.085" width="40.5657" height="24.6647" filterUnits="userSpaceOnUse" color-interpolation-filters="sRGB">
<feFlood flood-opacity="0" result="BackgroundImageFix"/>
<feBlend mode="normal" in="SourceGraphic" in2="BackgroundImageFix" result="shape"/>
<feGaussianBlur stdDeviation="2.65928" result="effect1_foregroundBlur_87_34"/>
</filter>
<filter id="filter24_f_87_34" x="99.6816" y="120.778" width="38.7722" height="24.6647" filterUnits="userSpaceOnUse" color-interpolation-filters="sRGB">
<feFlood flood-opacity="0" result="BackgroundImageFix"/>
<feBlend mode="normal" in="SourceGraphic" in2="BackgroundImageFix" result="shape"/>
<feGaussianBlur stdDeviation="2.65928" result="effect1_foregroundBlur_87_34"/>
</filter>
<filter id="filter25_f_87_34" x="56.2144" y="118.344" width="59.1491" height="25.2774" filterUnits="userSpaceOnUse" color-interpolation-filters="sRGB">
<feFlood flood-opacity="0" result="BackgroundImageFix"/>
<feBlend mode="normal" in="SourceGraphic" in2="BackgroundImageFix" result="shape"/>
<feGaussianBlur stdDeviation="1.77285" result="effect1_foregroundBlur_87_34"/>
</filter>
<filter id="filter26_f_87_34" x="58.8716" y="139.642" width="75.1513" height="2.21597" filterUnits="userSpaceOnUse" color-interpolation-filters="sRGB">
<feFlood flood-opacity="0" result="BackgroundImageFix"/>
<feBlend mode="normal" in="SourceGraphic" in2="BackgroundImageFix" result="shape"/>
<feGaussianBlur stdDeviation="0.443213" result="effect1_foregroundBlur_87_34"/>
</filter>
<filter id="filter27_f_87_34" x="58.65" y="138.599" width="75.5946" height="2.21621" filterUnits="userSpaceOnUse" color-interpolation-filters="sRGB">
<feFlood flood-opacity="0" result="BackgroundImageFix"/>
<feBlend mode="normal" in="SourceGraphic" in2="BackgroundImageFix" result="shape"/>
<feGaussianBlur stdDeviation="0.443213" result="effect1_foregroundBlur_87_34"/>
</filter>
<linearGradient id="paint0_linear_87_34" x1="129.766" y1="144.797" x2="131.582" y2="146.34" gradientUnits="userSpaceOnUse">
<stop stop-color="#24272D"/>
<stop offset="1" stop-color="#24272D" stop-opacity="0"/>
</linearGradient>
<radialGradient id="paint1_angular_87_34" cx="0" cy="0" r="1" gradientUnits="userSpaceOnUse" gradientTransform="translate(61.895 66.2252) rotate(-90) scale(66.2252 130.308)">
<stop stop-color="#686A74"/>
<stop offset="1" stop-color="#686A74" stop-opacity="0"/>
</radialGradient>
<radialGradient id="paint2_angular_87_34" cx="0" cy="0" r="1" gradientUnits="userSpaceOnUse" gradientTransform="translate(61.8951 66.2254) rotate(-90) scale(66.2252 130.308)">
<stop stop-color="#686A74"/>
<stop offset="1" stop-color="#686A74" stop-opacity="0"/>
</radialGradient>
<linearGradient id="paint3_linear_87_34" x1="68.8287" y1="58.5121" x2="59.5992" y2="14.7504" gradientUnits="userSpaceOnUse">
<stop stop-color="#161618"/>
<stop offset="1" stop-color="#161618" stop-opacity="0"/>
</linearGradient>
<linearGradient id="paint4_linear_87_34" x1="54.9645" y1="58.5121" x2="64.1941" y2="14.7504" gradientUnits="userSpaceOnUse">
<stop stop-color="#161618"/>
<stop offset="1" stop-color="#161618" stop-opacity="0"/>
</linearGradient>
<linearGradient id="paint5_linear_87_34" x1="72.1877" y1="-6.13609" x2="62.0524" y2="37.4209" gradientUnits="userSpaceOnUse">
<stop stop-color="white"/>
<stop offset="1" stop-color="white" stop-opacity="0"/>
</linearGradient>
<linearGradient id="paint6_linear_87_34" x1="38.3098" y1="-6.72467" x2="52.0318" y2="28.0346" gradientUnits="userSpaceOnUse">
<stop stop-color="white"/>
<stop offset="1" stop-color="white" stop-opacity="0"/>
</linearGradient>
<radialGradient id="paint7_angular_87_34" cx="0" cy="0" r="1" gradientUnits="userSpaceOnUse" gradientTransform="translate(64.7515 99.9377) rotate(-123.024) scale(68.4037 126.158)">
<stop stop-color="#686A74"/>
<stop offset="1" stop-color="#686A74" stop-opacity="0"/>
</radialGradient>
<radialGradient id="paint8_angular_87_34" cx="0" cy="0" r="1" gradientUnits="userSpaceOnUse" gradientTransform="translate(64.7523 99.9377) rotate(-123.024) scale(68.4037 126.158)">
<stop stop-color="#686A74"/>
<stop offset="1" stop-color="#686A74" stop-opacity="0"/>
</radialGradient>
<linearGradient id="paint9_linear_87_34" x1="54.9479" y1="43.0574" x2="44.6428" y2="66.4694" gradientUnits="userSpaceOnUse">
<stop stop-color="white"/>
<stop offset="1" stop-color="white" stop-opacity="0"/>
</linearGradient>
<radialGradient id="paint10_angular_87_34" cx="0" cy="0" r="1" gradientUnits="userSpaceOnUse" gradientTransform="translate(90.8587 128.32) rotate(-152.85) scale(72.5648 118.924)">
<stop stop-color="#686A74"/>
<stop offset="1" stop-color="#686A74" stop-opacity="0"/>
</radialGradient>
<radialGradient id="paint11_angular_87_34" cx="0" cy="0" r="1" gradientUnits="userSpaceOnUse" gradientTransform="translate(90.8581 128.321) rotate(-152.85) scale(72.5648 118.924)">
<stop stop-color="#686A74"/>
<stop offset="1" stop-color="#686A74" stop-opacity="0"/>
</radialGradient>
<linearGradient id="paint12_linear_87_34" x1="50.7223" y1="74.3919" x2="51.8395" y2="108.416" gradientUnits="userSpaceOnUse">
<stop stop-color="white"/>
<stop offset="1" stop-color="white" stop-opacity="0"/>
</linearGradient>
<radialGradient id="paint13_angular_87_34" cx="0" cy="0" r="1" gradientUnits="userSpaceOnUse" gradientTransform="translate(133.135 140.124) rotate(-180) scale(74.5583 115.744)">
<stop stop-color="#686A74"/>
<stop offset="1" stop-color="#686A74" stop-opacity="0"/>
</radialGradient>
<radialGradient id="paint14_angular_87_34" cx="0" cy="0" r="1" gradientUnits="userSpaceOnUse" gradientTransform="translate(133.136 140.125) rotate(-180) scale(74.5583 115.744)">
<stop stop-color="#686A74"/>
<stop offset="1" stop-color="#686A74" stop-opacity="0"/>
</radialGradient>
<linearGradient id="paint15_linear_87_34" x1="68.022" y1="111.247" x2="85.1151" y2="141.904" gradientUnits="userSpaceOnUse">
<stop stop-color="white"/>
<stop offset="1" stop-color="white" stop-opacity="0"/>
</linearGradient>
</defs>
</svg>
