<svg width="25" height="24" viewBox="0 0 25 24" fill="none" xmlns="http://www.w3.org/2000/svg">
<path d="M8.5 11V16M8.5 8V8.01M12.5 16V11M16.5 16V13C16.5 12.4696 16.2893 11.9609 15.9142 11.5858C15.5391 11.2107 15.0304 11 14.5 11C13.9696 11 13.4609 11.2107 13.0858 11.5858C12.7107 11.9609 12.5 12.4696 12.5 13M4.5 6C4.5 5.46957 4.71071 4.96086 5.08579 4.58579C5.46086 4.21071 5.96957 4 6.5 4H18.5C19.0304 4 19.5391 4.21071 19.9142 4.58579C20.2893 4.96086 20.5 5.46957 20.5 6V18C20.5 18.5304 20.2893 19.0391 19.9142 19.4142C19.5391 19.7893 19.0304 20 18.5 20H6.5C5.96957 20 5.46086 19.7893 5.08579 19.4142C4.71071 19.0391 4.5 18.5304 4.5 18V6Z" stroke="#FCA311" stroke-width="2" stroke-linecap="round" stroke-linejoin="round"/>
</svg>
