<svg width="139" height="211" viewBox="0 0 139 211" fill="none" xmlns="http://www.w3.org/2000/svg">
<g opacity="0.16" filter="url(#filter0_f_87_82)">
<path d="M49.1694 201.989C51.7007 201.989 53.7944 200.188 53.9009 197.897C54.0074 195.542 51.9728 193.56 49.3587 193.474C45.0293 193.325 40.4398 193.005 36.1814 191.78C33.2597 190.938 29.2497 189.243 26.6947 186.036C24.3881 183.148 23.3827 179.055 23.8558 174.515C24.0924 172.299 24.7903 169.293 26.8248 167.588C28.7411 165.979 28.8476 163.283 27.0614 161.567C25.2753 159.841 22.2826 159.745 20.3782 161.354C16.9951 164.189 14.9961 168.356 14.4401 173.716C13.754 180.313 15.3746 186.451 19.006 191.012C22.2234 195.051 27.156 198.121 33.2833 199.89C38.63 201.446 44.225 201.829 48.992 202C49.0511 202 49.1221 202 49.1812 202L49.1694 201.989Z" fill="#363A44"/>
<path d="M87.1239 85.2831C87.3822 84.8376 87.6547 84.3938 87.9418 83.952C93.0578 76.0812 101.368 71.7723 108.855 69.146C102.787 80.9616 90.9729 87.9572 90.9729 87.9572C90.9729 87.9572 89.4077 87.0309 87.1239 85.2831Z" fill="#363A44"/>
<path d="M85.6758 116.237C94.9779 112.404 104.844 113.042 112.588 114.366C101.039 121.031 88.0699 121.774 88.0699 121.774C88.0699 121.774 86.8972 119.669 85.6758 116.237Z" fill="#363A44"/>
<path fill-rule="evenodd" clip-rule="evenodd" d="M108.855 69.146C110.952 65.0628 112.363 60.4039 112.363 55.2591C112.363 42.8851 103.518 33.5995 97.2806 27.7985C93.4161 24.2094 90.9729 21.5281 90.9729 21.5281C90.9729 21.5281 88.5179 24.2094 84.6534 27.7985C78.4162 33.5995 69.5713 42.8851 69.5713 55.2591C69.5713 69.8738 80.9627 80.5679 87.1239 85.2831C87.3822 84.8376 87.6547 84.3938 87.9418 83.952C93.0578 76.0812 101.368 71.7723 108.855 69.146ZM112.588 114.366C117.282 111.657 121.741 107.97 125 102.956C131.966 92.2402 129.533 80.2704 127.397 72.4766C126.07 67.6521 125.464 64.2449 125.464 64.2449C125.464 64.2449 121.828 65.4767 116.461 66.8687C114.16 67.4671 111.561 68.1966 108.855 69.146C102.787 80.9616 90.9729 87.9572 90.9729 87.9572C90.9729 87.9572 89.4077 87.0309 87.1239 85.2831C80.4915 96.7207 83.1851 109.238 85.6758 116.237C94.9779 112.404 104.844 113.042 112.588 114.366ZM85.1666 154.775C91.3618 154.742 98.1044 153.618 104.473 150.351C116.538 144.164 121.169 132.718 123.706 125.02C125.273 120.252 126.666 117.032 126.666 117.032C126.666 117.032 122.824 116.484 117.393 115.306C115.915 114.987 114.303 114.66 112.588 114.366C101.039 121.031 88.0699 121.774 88.0699 121.774C88.0699 121.774 86.8972 119.669 85.6758 116.237C84.8041 116.596 83.9373 116.994 83.0777 117.435C70.2032 124.037 65.0989 136.193 63.1151 143.711C72.4217 145.452 79.8303 150.464 85.1666 154.775ZM85.1666 154.775C72.3635 154.843 61.8979 150.247 61.8979 150.247C61.8979 150.247 62.0894 147.599 63.1151 143.711C60.9455 143.306 58.6727 143.077 56.299 143.077C33.7463 143.077 19.4864 162.087 19.4864 162.087C19.4864 162.087 33.7463 181.086 56.299 181.086C70.23 181.086 80.6841 173.23 87.215 167.69C91.2557 164.257 94.2744 162.087 94.2744 162.087C94.2744 162.087 91.2557 159.906 87.215 156.474C86.5703 155.927 85.8873 155.358 85.1666 154.775Z" fill="#363A44"/>
<path d="M63.1151 143.711C72.4217 145.452 79.8303 150.464 85.1666 154.775C72.3635 154.843 61.8979 150.247 61.8979 150.247C61.8979 150.247 62.0894 147.599 63.1151 143.711Z" fill="#363A44"/>
</g>
<path d="M35.0804 179.903C37.604 179.903 39.6912 178.107 39.7973 175.823C39.9035 173.475 37.8752 171.499 35.2691 171.414C30.953 171.265 26.3776 170.946 22.1323 169.724C19.2195 168.885 15.2219 167.196 12.6747 163.998C10.3752 161.119 9.37285 157.039 9.84455 152.513C10.0804 150.303 10.7762 147.307 12.8045 145.607C14.7148 144.003 14.821 141.315 13.0403 139.604C11.2596 137.883 8.27616 137.788 6.37757 139.392C3.00494 142.218 1.01201 146.372 0.457767 151.716C-0.226192 158.293 1.38937 164.412 5.00965 168.959C8.21719 172.986 13.1346 176.046 19.2431 177.81C24.5733 179.361 30.1511 179.743 34.9035 179.913C34.9624 179.913 35.0332 179.913 35.0922 179.913L35.0804 179.903Z" fill="#363A44"/>
<g filter="url(#filter1_f_87_82)">
<path d="M10.0402 141.466C7.16287 143.888 5.97183 147.543 5.60627 151.081C5.0874 156.085 6.04259 161.365 9.2973 165.445C12.1393 169.004 16.5143 171.395 21.1487 172.733C25.7831 174.072 30.677 174.454 35.5473 174.624" stroke="#F8F8FF" stroke-width="0.443213" stroke-linecap="round" stroke-linejoin="round"/>
</g>
<g filter="url(#filter2_f_87_82)">
<path d="M10.0402 141.466C7.16287 143.888 5.97183 147.543 5.60627 151.081C5.0874 156.085 6.04259 161.365 9.2973 165.445C12.1393 169.004 16.5143 171.395 21.1487 172.733C25.7831 174.072 30.677 174.454 35.5473 174.624" stroke="white" stroke-opacity="0.6" stroke-width="0.443213" stroke-linecap="round" stroke-linejoin="round"/>
</g>
<path d="M9.56665 153.753C9.56235 153.803 9.5602 153.841 9.5602 153.868C9.56275 153.83 9.5649 153.792 9.56665 153.753C9.64625 152.84 10.4641 148.239 12.1228 145.293C13.8712 142.187 8.54656 140.661 5.76907 140.176C5.27394 140.553 4.16893 142.034 4.16893 142.36C4.84803 144.353 9.76578 149.395 9.56665 153.753Z" fill="url(#paint0_linear_87_82)"/>
<mask id="mask0_87_82" style="mask-type:alpha" maskUnits="userSpaceOnUse" x="55" y="0" width="44" height="67">
<path d="M76.7186 0.326404C76.6473 0.402866 76.5533 0.503244 76.4375 0.625788C76.147 0.933206 75.7197 1.38014 75.172 1.93895C74.0766 3.05652 72.499 4.62179 70.5698 6.41356C64.3502 12.1981 55.6048 21.3963 55.6048 33.6274C55.6048 43.5317 60.8963 51.629 66.2123 57.2631C68.8685 60.0782 71.5252 62.2723 73.518 63.7626C74.5142 64.5076 75.344 65.0763 75.9241 65.4584C76.2142 65.6495 76.4418 65.7939 76.5966 65.8903C76.6444 65.9201 76.6853 65.9454 76.719 65.966C76.7526 65.9454 76.7934 65.9202 76.8413 65.8903C76.9959 65.7939 77.2234 65.6495 77.5133 65.4585C78.0931 65.0763 78.9225 64.5076 79.9181 63.7626C81.9098 62.2724 84.5651 60.0783 87.2198 57.2632C92.5329 51.6291 97.8215 43.5317 97.8215 33.6274C97.8215 21.3963 89.0761 12.1981 82.8565 6.41356C80.9272 4.62171 79.3525 3.05637 78.26 1.93873C77.7137 1.37989 77.2878 0.93293 76.9984 0.625482C76.8832 0.503109 76.7896 0.402835 76.7186 0.326404Z" fill="#4B4D53"/>
<path d="M76.7186 0.326404C76.6473 0.402866 76.5533 0.503244 76.4375 0.625788C76.147 0.933206 75.7197 1.38014 75.172 1.93895C74.0766 3.05652 72.499 4.62179 70.5698 6.41356C64.3502 12.1981 55.6048 21.3963 55.6048 33.6274C55.6048 43.5317 60.8963 51.629 66.2123 57.2631C68.8685 60.0782 71.5252 62.2723 73.518 63.7626C74.5142 64.5076 75.344 65.0763 75.9241 65.4584C76.2142 65.6495 76.4418 65.7939 76.5966 65.8903C76.6444 65.9201 76.6853 65.9454 76.719 65.966C76.7526 65.9454 76.7934 65.9202 76.8413 65.8903C76.9959 65.7939 77.2234 65.6495 77.5133 65.4585C78.0931 65.0763 78.9225 64.5076 79.9181 63.7626C81.9098 62.2724 84.5651 60.0783 87.2198 57.2632C92.5329 51.6291 97.8215 43.5317 97.8215 33.6274C97.8215 21.3963 89.0761 12.1981 82.8565 6.41356C80.9272 4.62171 79.3525 3.05637 78.26 1.93873C77.7137 1.37989 77.2878 0.93293 76.9984 0.625482C76.8832 0.503109 76.7896 0.402835 76.7186 0.326404Z" fill="url(#paint1_angular_87_82)"/>
<path d="M76.7186 0.326404C76.6473 0.402866 76.5533 0.503244 76.4375 0.625788C76.147 0.933206 75.7197 1.38014 75.172 1.93895C74.0766 3.05652 72.499 4.62179 70.5698 6.41356C64.3502 12.1981 55.6048 21.3963 55.6048 33.6274C55.6048 43.5317 60.8963 51.629 66.2123 57.2631C68.8685 60.0782 71.5252 62.2723 73.518 63.7626C74.5142 64.5076 75.344 65.0763 75.9241 65.4584C76.2142 65.6495 76.4418 65.7939 76.5966 65.8903C76.6444 65.9201 76.6853 65.9454 76.719 65.966C76.7526 65.9454 76.7934 65.9202 76.8413 65.8903C76.9959 65.7939 77.2234 65.6495 77.5133 65.4585C78.0931 65.0763 78.9225 64.5076 79.9181 63.7626C81.9098 62.2724 84.5651 60.0783 87.2198 57.2632C92.5329 51.6291 97.8215 43.5317 97.8215 33.6274C97.8215 21.3963 89.0761 12.1981 82.8565 6.41356C80.9272 4.62171 79.3525 3.05637 78.26 1.93873C77.7137 1.37989 77.2878 0.93293 76.9984 0.625482C76.8832 0.503109 76.7896 0.402835 76.7186 0.326404Z" stroke="#32353E" stroke-width="0.443213"/>
</mask>
<g mask="url(#mask0_87_82)">
<path d="M76.7185 0.326649C76.6472 0.40311 76.5531 0.503488 76.4373 0.626032C76.1468 0.93345 75.7196 1.38038 75.1719 1.93919C74.0764 3.05676 72.4989 4.62203 70.5696 6.41381C64.3501 12.1983 55.6047 21.3965 55.6047 33.6277C55.6047 43.5319 60.8962 51.6293 66.2122 57.2634C68.8683 60.0785 71.5251 62.2726 73.5179 63.7628C74.5141 64.5078 75.3439 65.0766 75.924 65.4587C76.2141 65.6498 76.4417 65.7941 76.5965 65.8906C76.6443 65.9204 76.6852 65.9456 76.7188 65.9662C76.7524 65.9456 76.7933 65.9204 76.8411 65.8906C76.9958 65.7942 77.2233 65.6498 77.5132 65.4587C78.093 65.0766 78.9224 64.5079 79.918 63.7629C81.9097 62.2726 84.565 60.0785 87.2197 57.2634C92.5328 51.6293 97.8214 43.532 97.8214 33.6277C97.8214 21.3965 89.0759 12.1983 82.8564 6.41381C80.927 4.62196 79.3524 3.05661 78.2598 1.93898C77.7135 1.38014 77.2877 0.933174 76.9983 0.625726C76.8831 0.503353 76.7895 0.403079 76.7185 0.326649Z" fill="#4B4D53"/>
<path d="M76.7185 0.326649C76.6472 0.40311 76.5531 0.503488 76.4373 0.626032C76.1468 0.93345 75.7196 1.38038 75.1719 1.93919C74.0764 3.05676 72.4989 4.62203 70.5696 6.41381C64.3501 12.1983 55.6047 21.3965 55.6047 33.6277C55.6047 43.5319 60.8962 51.6293 66.2122 57.2634C68.8683 60.0785 71.5251 62.2726 73.5179 63.7628C74.5141 64.5078 75.3439 65.0766 75.924 65.4587C76.2141 65.6498 76.4417 65.7941 76.5965 65.8906C76.6443 65.9204 76.6852 65.9456 76.7188 65.9662C76.7524 65.9456 76.7933 65.9204 76.8411 65.8906C76.9958 65.7942 77.2233 65.6498 77.5132 65.4587C78.093 65.0766 78.9224 64.5079 79.918 63.7629C81.9097 62.2726 84.565 60.0785 87.2197 57.2634C92.5328 51.6293 97.8214 43.532 97.8214 33.6277C97.8214 21.3965 89.0759 12.1983 82.8564 6.41381C80.927 4.62196 79.3524 3.05661 78.2598 1.93898C77.7135 1.38014 77.2877 0.933174 76.9983 0.625726C76.8831 0.503353 76.7895 0.403079 76.7185 0.326649Z" fill="url(#paint2_angular_87_82)"/>
<path d="M76.7185 0.326649C76.6472 0.40311 76.5531 0.503488 76.4373 0.626032C76.1468 0.93345 75.7196 1.38038 75.1719 1.93919C74.0764 3.05676 72.4989 4.62203 70.5696 6.41381C64.3501 12.1983 55.6047 21.3965 55.6047 33.6277C55.6047 43.5319 60.8962 51.6293 66.2122 57.2634C68.8683 60.0785 71.5251 62.2726 73.5179 63.7628C74.5141 64.5078 75.3439 65.0766 75.924 65.4587C76.2141 65.6498 76.4417 65.7941 76.5965 65.8906C76.6443 65.9204 76.6852 65.9456 76.7188 65.9662C76.7524 65.9456 76.7933 65.9204 76.8411 65.8906C76.9958 65.7942 77.2233 65.6498 77.5132 65.4587C78.093 65.0766 78.9224 64.5079 79.918 63.7629C81.9097 62.2726 84.565 60.0785 87.2197 57.2634C92.5328 51.6293 97.8214 43.532 97.8214 33.6277C97.8214 21.3965 89.0759 12.1983 82.8564 6.41381C80.927 4.62196 79.3524 3.05661 78.2598 1.93898C77.7135 1.38014 77.2877 0.933174 76.9983 0.625726C76.8831 0.503353 76.7895 0.403079 76.7185 0.326649Z" stroke="#32353E" stroke-width="0.443213"/>
<g filter="url(#filter3_f_87_82)">
<path d="M56.6237 28.0608C51.6954 49.7001 76.0897 64.997 76.7115 65.3711C76.5 65.1375 76.7115 58.7854 76.7115 58.7854C69.1769 52.3431 64.5275 49.0394 63.7897 35.8303L56.6237 28.0608Z" fill="url(#paint3_linear_87_82)"/>
</g>
<g filter="url(#filter4_f_87_82)">
<path d="M96.7993 28.0608C101.728 49.7001 77.3333 64.997 76.7115 65.3711C76.923 65.1375 76.7115 58.7854 76.7115 58.7854C84.2461 52.3431 88.8954 49.0394 89.6333 35.8303L96.7993 28.0608Z" fill="url(#paint4_linear_87_82)"/>
</g>
<g filter="url(#filter5_f_87_82)">
<path d="M77.0304 65.676L77.0304 39.0924C77.8604 53.841 87.7877 54.2397 92.823 49.5966C92.085 52.5463 82.104 61.4085 77.0304 65.676Z" fill="black" fill-opacity="0.6"/>
</g>
<g filter="url(#filter6_f_87_82)">
<path d="M76.6577 1.05054C63.1025 13.0266 56.695 23.4358 56.1832 32.4318C56.3659 35.5654 56.1832 41.1417 59.8604 47.2898C59.4837 39.7403 63.9545 28.8992 76.6577 21.0422L76.6577 7.647L76.6577 1.05054Z" fill="url(#paint5_linear_87_82)" fill-opacity="0.6"/>
</g>
<g filter="url(#filter7_f_87_82)">
<path d="M76.7152 1.05054C90.2704 13.0266 96.6778 23.4358 97.1897 32.4318C97.0069 35.5654 97.1897 41.1417 93.5125 47.2898C93.8892 39.7403 89.4184 29.081 76.7152 21.224L76.7152 7.647L76.7152 1.05054Z" fill="url(#paint6_linear_87_82)" fill-opacity="0.6"/>
</g>
<g filter="url(#filter8_f_87_82)">
<line y1="-0.221607" x2="65.1772" y2="-0.221607" transform="matrix(-1.47635e-07 -1 -1 1.16478e-07 77.1667 66.2261)" stroke="#32353E" stroke-opacity="0.2" stroke-width="0.443213"/>
</g>
<g filter="url(#filter9_f_87_82)">
<path d="M76.2454 66.2261L76.2454 1.04892" stroke="white" stroke-opacity="0.16" stroke-width="0.443213" stroke-linecap="round"/>
</g>
</g>
<mask id="mask1_87_82" style="mask-type:alpha" maskUnits="userSpaceOnUse" x="68" y="42" width="48" height="58">
<path d="M110.957 42.8703C110.854 42.9042 110.721 42.9479 110.558 43.0003C110.134 43.1375 109.512 43.3348 108.723 43.5755C107.145 44.0568 104.898 44.7118 102.219 45.4067C93.5795 47.6532 80.8216 51.7355 73.9317 62.3354C68.3524 70.9189 68.3782 80.2857 69.8103 87.525C70.5259 91.1427 71.5917 94.2227 72.4785 96.3981C72.9218 97.4857 73.3202 98.3466 73.6075 98.9351C73.7511 99.2293 73.8669 99.4554 73.9467 99.6076C73.9693 99.6508 73.9891 99.6881 74.0057 99.7193C74.0444 99.7165 74.0906 99.713 74.144 99.7088C74.3322 99.694 74.6104 99.67 74.9689 99.6333C75.6861 99.5599 76.7243 99.4357 78.0058 99.2327C80.5693 98.8267 84.1039 98.1058 87.9878 96.8469C95.7596 94.3275 104.903 89.6626 110.482 81.0791C117.372 70.4792 114.973 58.6243 112.844 50.8553C112.182 48.4467 111.699 46.3918 111.382 44.9387C111.223 44.2122 111.106 43.636 111.029 43.2412C110.999 43.0906 110.975 42.9664 110.957 42.8703Z" fill="#4B4D53"/>
<path d="M110.957 42.8703C110.854 42.9042 110.721 42.9479 110.558 43.0003C110.134 43.1375 109.512 43.3348 108.723 43.5755C107.145 44.0568 104.898 44.7118 102.219 45.4067C93.5795 47.6532 80.8216 51.7355 73.9317 62.3354C68.3524 70.9189 68.3782 80.2857 69.8103 87.525C70.5259 91.1427 71.5917 94.2227 72.4785 96.3981C72.9218 97.4857 73.3202 98.3466 73.6075 98.9351C73.7511 99.2293 73.8669 99.4554 73.9467 99.6076C73.9693 99.6508 73.9891 99.6881 74.0057 99.7193C74.0444 99.7165 74.0906 99.713 74.144 99.7088C74.3322 99.694 74.6104 99.67 74.9689 99.6333C75.6861 99.5599 76.7243 99.4357 78.0058 99.2327C80.5693 98.8267 84.1039 98.1058 87.9878 96.8469C95.7596 94.3275 104.903 89.6626 110.482 81.0791C117.372 70.4792 114.973 58.6243 112.844 50.8553C112.182 48.4467 111.699 46.3918 111.382 44.9387C111.223 44.2122 111.106 43.636 111.029 43.2412C110.999 43.0906 110.975 42.9664 110.957 42.8703Z" fill="url(#paint7_angular_87_82)"/>
<path d="M110.957 42.8703C110.854 42.9042 110.721 42.9479 110.558 43.0003C110.134 43.1375 109.512 43.3348 108.723 43.5755C107.145 44.0568 104.898 44.7118 102.219 45.4067C93.5795 47.6532 80.8216 51.7355 73.9317 62.3354C68.3524 70.9189 68.3782 80.2857 69.8103 87.525C70.5259 91.1427 71.5917 94.2227 72.4785 96.3981C72.9218 97.4857 73.3202 98.3466 73.6075 98.9351C73.7511 99.2293 73.8669 99.4554 73.9467 99.6076C73.9693 99.6508 73.9891 99.6881 74.0057 99.7193C74.0444 99.7165 74.0906 99.713 74.144 99.7088C74.3322 99.694 74.6104 99.67 74.9689 99.6333C75.6861 99.5599 76.7243 99.4357 78.0058 99.2327C80.5693 98.8267 84.1039 98.1058 87.9878 96.8469C95.7596 94.3275 104.903 89.6626 110.482 81.0791C117.372 70.4792 114.973 58.6243 112.844 50.8553C112.182 48.4467 111.699 46.3918 111.382 44.9387C111.223 44.2122 111.106 43.636 111.029 43.2412C110.999 43.0906 110.975 42.9664 110.957 42.8703Z" stroke="#32353E" stroke-width="0.443213"/>
</mask>
<g mask="url(#mask1_87_82)">
<path d="M110.956 42.8703C110.853 42.9042 110.719 42.9479 110.557 43.0003C110.133 43.1375 109.511 43.3348 108.722 43.5755C107.144 44.0568 104.897 44.7118 102.218 45.4067C93.5784 47.6532 80.8205 51.7355 73.9306 62.3354C68.3513 70.9189 68.3771 80.2857 69.8092 87.525C70.5248 91.1427 71.5906 94.2227 72.4774 96.3981C72.9207 97.4857 73.3191 98.3466 73.6064 98.9351C73.75 99.2293 73.8658 99.4554 73.9456 99.6076C73.9682 99.6508 73.988 99.6881 74.0046 99.7193C74.0433 99.7165 74.0895 99.713 74.1429 99.7088C74.3311 99.694 74.6093 99.67 74.9678 99.6333C75.685 99.5599 76.7232 99.4357 78.0047 99.2327C80.5682 98.8267 84.1028 98.1058 87.9867 96.8469C95.7585 94.3275 104.901 89.6626 110.481 81.0791C117.371 70.4792 114.972 58.6243 112.843 50.8553C112.18 48.4467 111.698 46.3918 111.381 44.9387C111.222 44.2122 111.105 43.636 111.028 43.2412C110.998 43.0906 110.974 42.9664 110.956 42.8703Z" fill="#4B4D53"/>
<path d="M110.956 42.8703C110.853 42.9042 110.719 42.9479 110.557 43.0003C110.133 43.1375 109.511 43.3348 108.722 43.5755C107.144 44.0568 104.897 44.7118 102.218 45.4067C93.5784 47.6532 80.8205 51.7355 73.9306 62.3354C68.3513 70.9189 68.3771 80.2857 69.8092 87.525C70.5248 91.1427 71.5906 94.2227 72.4774 96.3981C72.9207 97.4857 73.3191 98.3466 73.6064 98.9351C73.75 99.2293 73.8658 99.4554 73.9456 99.6076C73.9682 99.6508 73.988 99.6881 74.0046 99.7193C74.0433 99.7165 74.0895 99.713 74.1429 99.7088C74.3311 99.694 74.6093 99.67 74.9678 99.6333C75.685 99.5599 76.7232 99.4357 78.0047 99.2327C80.5682 98.8267 84.1028 98.1058 87.9867 96.8469C95.7585 94.3275 104.901 89.6626 110.481 81.0791C117.371 70.4792 114.972 58.6243 112.843 50.8553C112.18 48.4467 111.698 46.3918 111.381 44.9387C111.222 44.2122 111.105 43.636 111.028 43.2412C110.998 43.0906 110.974 42.9664 110.956 42.8703Z" fill="url(#paint8_angular_87_82)"/>
<path d="M110.956 42.8703C110.853 42.9042 110.719 42.9479 110.557 43.0003C110.133 43.1375 109.511 43.3348 108.722 43.5755C107.144 44.0568 104.897 44.7118 102.218 45.4067C93.5784 47.6532 80.8205 51.7355 73.9306 62.3354C68.3513 70.9189 68.3771 80.2857 69.8092 87.525C70.5248 91.1427 71.5906 94.2227 72.4774 96.3981C72.9207 97.4857 73.3191 98.3466 73.6064 98.9351C73.75 99.2293 73.8658 99.4554 73.9456 99.6076C73.9682 99.6508 73.988 99.6881 74.0046 99.7193C74.0433 99.7165 74.0895 99.713 74.1429 99.7088C74.3311 99.694 74.6093 99.67 74.9678 99.6333C75.685 99.5599 76.7232 99.4357 78.0047 99.2327C80.5682 98.8267 84.1028 98.1058 87.9867 96.8469C95.7585 94.3275 104.901 89.6626 110.481 81.0791C117.371 70.4792 114.972 58.6243 112.843 50.8553C112.18 48.4467 111.698 46.3918 111.381 44.9387C111.222 44.2122 111.105 43.636 111.028 43.2412C110.998 43.0906 110.974 42.9664 110.956 42.8703Z" stroke="#32353E" stroke-width="0.443213"/>
<g filter="url(#filter10_f_87_82)">
<path d="M74.3382 99.1969C75.0873 99.149 99.2333 97.4482 109.993 80.8949C116.745 70.5075 114.439 58.9319 112.406 51.3962C111.248 47.1123 110.667 43.9886 110.57 43.4951C110.6 44.795 110.948 65.8297 102.158 79.3526C93.368 92.8755 74.9102 98.9998 74.3382 99.1969Z" fill="black" fill-opacity="0.7"/>
</g>
<g filter="url(#filter11_f_87_82)">
<path d="M74.439 99.6028L89.4033 76.5807C81.82 89.722 90.1928 94.4761 97.1672 92.6914C94.8676 94.9181 81.2351 98.1603 74.439 99.6028Z" fill="black" fill-opacity="0.6"/>
</g>
<g filter="url(#filter12_f_87_82)">
<path d="M73.8576 99.9392L88.0825 77.7697C79.0614 90.1737 74.4323 71.8921 72.6852 65.6348C65.4664 81.6641 71.866 93.9902 73.8576 99.9392Z" fill="black" fill-opacity="0.6"/>
</g>
<g filter="url(#filter13_f_87_82)">
<path d="M110.497 43.4685C92.016 47.8201 80.6075 53.989 75.1002 61.5525C73.4945 64.3474 70.1973 69.0954 69.9209 76.053C73.8444 69.3476 88.9799 54.0045 104.404 52.8418L106.783 49.1813L110.497 43.4685Z" fill="url(#paint9_linear_87_82)"/>
</g>
<g filter="url(#filter14_f_87_82)">
<line y1="-0.221607" x2="67.3212" y2="-0.221607" transform="matrix(0.544988 -0.838444 -0.889817 -0.456317 74.2505 100.139)" stroke="#32353E" stroke-opacity="0.5" stroke-width="0.443213"/>
</g>
<g filter="url(#filter15_f_87_82)">
<path d="M73.4505 99.7305L110.14 43.2854" stroke="#F8F8FF" stroke-opacity="0.2" stroke-width="0.443213" stroke-linecap="round"/>
</g>
</g>
<mask id="mask2_87_82" style="mask-type:alpha" maskUnits="userSpaceOnUse" x="47" y="91" width="66" height="42">
<path d="M111.999 95.377C111.895 95.3613 111.765 95.3413 111.611 95.317C111.166 95.2473 110.516 95.1421 109.698 95.0002C108.06 94.7164 105.746 94.2855 103.034 93.6974C94.2924 91.8071 80.9355 89.6724 68.9875 95.7996C59.3121 100.761 54.0592 108.892 51.2246 115.797C49.8078 119.248 48.997 122.389 48.5405 124.666C48.3123 125.805 48.1727 126.727 48.0902 127.364C48.049 127.683 48.022 127.93 48.0054 128.097C48.0016 128.136 47.9983 128.17 47.9955 128.2C48.0261 128.213 48.0612 128.227 48.1007 128.244C48.2719 128.314 48.5263 128.417 48.8573 128.544C49.5195 128.799 50.4884 129.153 51.7123 129.546C54.1605 130.333 57.6274 131.278 61.7 131.913C69.8478 133.183 80.4005 133.205 90.0759 128.243C102.024 122.116 106.621 110.774 109.149 103.105C109.931 100.725 110.67 98.7308 111.213 97.3317C111.485 96.6321 111.708 96.0811 111.863 95.7048C111.917 95.5741 111.963 95.4645 111.999 95.377Z" fill="#4B4D53"/>
<path d="M111.999 95.377C111.895 95.3613 111.765 95.3413 111.611 95.317C111.166 95.2473 110.516 95.1421 109.698 95.0002C108.06 94.7164 105.746 94.2855 103.034 93.6974C94.2924 91.8071 80.9355 89.6724 68.9875 95.7996C59.3121 100.761 54.0592 108.892 51.2246 115.797C49.8078 119.248 48.997 122.389 48.5405 124.666C48.3123 125.805 48.1727 126.727 48.0902 127.364C48.049 127.683 48.022 127.93 48.0054 128.097C48.0016 128.136 47.9983 128.17 47.9955 128.2C48.0261 128.213 48.0612 128.227 48.1007 128.244C48.2719 128.314 48.5263 128.417 48.8573 128.544C49.5195 128.799 50.4884 129.153 51.7123 129.546C54.1605 130.333 57.6274 131.278 61.7 131.913C69.8478 133.183 80.4005 133.205 90.0759 128.243C102.024 122.116 106.621 110.774 109.149 103.105C109.931 100.725 110.67 98.7308 111.213 97.3317C111.485 96.6321 111.708 96.0811 111.863 95.7048C111.917 95.5741 111.963 95.4645 111.999 95.377Z" fill="url(#paint10_angular_87_82)"/>
<path d="M111.999 95.377C111.895 95.3613 111.765 95.3413 111.611 95.317C111.166 95.2473 110.516 95.1421 109.698 95.0002C108.06 94.7164 105.746 94.2855 103.034 93.6974C94.2924 91.8071 80.9355 89.6724 68.9875 95.7996C59.3121 100.761 54.0592 108.892 51.2246 115.797C49.8078 119.248 48.997 122.389 48.5405 124.666C48.3123 125.805 48.1727 126.727 48.0902 127.364C48.049 127.683 48.022 127.93 48.0054 128.097C48.0016 128.136 47.9983 128.17 47.9955 128.2C48.0261 128.213 48.0612 128.227 48.1007 128.244C48.2719 128.314 48.5263 128.417 48.8573 128.544C49.5195 128.799 50.4884 129.153 51.7123 129.546C54.1605 130.333 57.6274 131.278 61.7 131.913C69.8478 133.183 80.4005 133.205 90.0759 128.243C102.024 122.116 106.621 110.774 109.149 103.105C109.931 100.725 110.67 98.7308 111.213 97.3317C111.485 96.6321 111.708 96.0811 111.863 95.7048C111.917 95.5741 111.963 95.4645 111.999 95.377Z" stroke="#32353E" stroke-width="0.443213"/>
</mask>
<g mask="url(#mask2_87_82)">
<path d="M112 95.3775C111.896 95.3617 111.766 95.3418 111.611 95.3175C111.166 95.2478 110.517 95.1426 109.698 95.0007C108.061 94.7168 105.746 94.286 103.035 93.6979C94.2929 91.8076 80.936 89.6729 68.988 95.8001C59.3126 100.762 54.0597 108.893 51.2251 115.797C49.8083 119.249 48.9975 122.389 48.541 124.667C48.3127 125.805 48.1732 126.728 48.0907 127.365C48.0495 127.683 48.0225 127.93 48.0059 128.097C48.0021 128.136 47.9988 128.17 47.996 128.2C48.0266 128.213 48.0617 128.228 48.1012 128.244C48.2724 128.315 48.5268 128.418 48.8578 128.545C49.52 128.8 50.4889 129.153 51.7128 129.547C54.161 130.333 57.6279 131.279 61.7005 131.913C69.8483 133.183 80.401 133.206 90.0764 128.244C102.024 122.117 106.622 110.775 109.149 103.105C109.932 100.725 110.671 98.7313 111.214 97.3322C111.486 96.6326 111.708 96.0816 111.864 95.7053C111.917 95.5746 111.963 95.4649 112 95.3775Z" fill="#4B4D53"/>
<path d="M112 95.3775C111.896 95.3617 111.766 95.3418 111.611 95.3175C111.166 95.2478 110.517 95.1426 109.698 95.0007C108.061 94.7168 105.746 94.286 103.035 93.6979C94.2929 91.8076 80.936 89.6729 68.988 95.8001C59.3126 100.762 54.0597 108.893 51.2251 115.797C49.8083 119.249 48.9975 122.389 48.541 124.667C48.3127 125.805 48.1732 126.728 48.0907 127.365C48.0495 127.683 48.0225 127.93 48.0059 128.097C48.0021 128.136 47.9988 128.17 47.996 128.2C48.0266 128.213 48.0617 128.228 48.1012 128.244C48.2724 128.315 48.5268 128.418 48.8578 128.545C49.52 128.8 50.4889 129.153 51.7128 129.547C54.161 130.333 57.6279 131.279 61.7005 131.913C69.8483 133.183 80.401 133.206 90.0764 128.244C102.024 122.117 106.622 110.775 109.149 103.105C109.932 100.725 110.671 98.7313 111.214 97.3322C111.486 96.6326 111.708 96.0816 111.864 95.7053C111.917 95.5746 111.963 95.4649 112 95.3775Z" fill="url(#paint11_angular_87_82)"/>
<path d="M112 95.3775C111.896 95.3617 111.766 95.3418 111.611 95.3175C111.166 95.2478 110.517 95.1426 109.698 95.0007C108.061 94.7168 105.746 94.286 103.035 93.6979C94.2929 91.8076 80.936 89.6729 68.988 95.8001C59.3126 100.762 54.0597 108.893 51.2251 115.797C49.8083 119.249 48.9975 122.389 48.541 124.667C48.3127 125.805 48.1732 126.728 48.0907 127.365C48.0495 127.683 48.0225 127.93 48.0059 128.097C48.0021 128.136 47.9988 128.17 47.996 128.2C48.0266 128.213 48.0617 128.228 48.1012 128.244C48.2724 128.315 48.5268 128.418 48.8578 128.545C49.52 128.8 50.4889 129.153 51.7128 129.547C54.161 130.333 57.6279 131.279 61.7005 131.913C69.8483 133.183 80.401 133.206 90.0764 128.244C102.024 122.117 106.622 110.775 109.149 103.105C109.932 100.725 110.671 98.7313 111.214 97.3322C111.486 96.6326 111.708 96.0816 111.864 95.7053C111.917 95.5746 111.963 95.4649 112 95.3775Z" stroke="#32353E" stroke-width="0.443213"/>
<g filter="url(#filter16_f_87_82)">
<path d="M48.5829 127.894C49.2586 128.185 71.1271 137.436 89.7632 127.879C101.458 121.881 105.977 110.833 108.458 103.403C109.867 99.1793 111.122 96.2163 111.316 95.7459C110.61 96.8848 99.0705 115.256 83.846 123.063C68.6216 130.871 49.1892 127.977 48.5829 127.894Z" fill="black" fill-opacity="0.8"/>
</g>
<g filter="url(#filter17_f_87_82)">
<path d="M48.446 128.29L74.3649 114.998C60.4001 123.011 64.975 130.847 72.0197 132.399C68.7747 133.306 55.1436 130.059 48.446 128.29Z" fill="black" fill-opacity="0.6"/>
</g>
<g filter="url(#filter18_f_87_82)">
<path d="M47.7488 128.321L71.425 114.765C56.6301 121.501 53.5206 114.328 55.5299 108.133C53.0229 110.176 49.3728 122.284 47.7488 128.321Z" fill="black" fill-opacity="0.4"/>
</g>
<g filter="url(#filter19_f_87_82)">
<path d="M111.267 95.6893C92.8132 91.2503 79.4606 91.5261 70.4335 95.6303C67.4696 97.3377 61.9414 99.9853 57.7856 105.888C64.958 101.823 86.7026 95.2578 100.715 101.101L104.836 98.9876L111.267 95.6893Z" fill="url(#paint12_linear_87_82)"/>
</g>
<g filter="url(#filter20_f_87_82)">
<line y1="-0.221607" x2="71.4165" y2="-0.221607" transform="matrix(0.889817 -0.456317 -0.544988 -0.838444 47.9739 128.673)" stroke="#32353E" stroke-opacity="0.5" stroke-width="0.443213"/>
</g>
<g filter="url(#filter21_f_87_82)">
<path d="M47.5162 127.962L111.064 95.3738" stroke="#F8F8FF" stroke-opacity="0.2" stroke-width="0.443213" stroke-linecap="round"/>
</g>
</g>
<mask id="mask3_87_82" style="mask-type:alpha" maskUnits="userSpaceOnUse" x="5" y="121" width="76" height="39">
<path d="M79.6555 140.129C79.5766 140.071 79.4796 139.999 79.3655 139.914C79.0195 139.656 78.5163 139.276 77.8873 138.79C76.6292 137.817 74.8671 136.416 72.85 134.702C66.3449 129.184 55.9759 121.4 42.1723 121.4C30.9944 121.4 21.8651 126.111 15.5236 130.832C12.3537 133.191 9.88348 135.551 8.20623 137.321C7.36771 138.205 6.72765 138.942 6.29771 139.457C6.08273 139.715 5.92031 139.917 5.81189 140.054C5.78991 140.082 5.77015 140.107 5.75262 140.129C5.77013 140.152 5.78989 140.177 5.81185 140.205C5.92028 140.342 6.0827 140.544 6.29767 140.801C6.72762 141.316 7.36767 142.052 8.20619 142.936C9.88343 144.705 12.3536 147.064 15.5236 149.422C21.8651 154.14 30.9943 158.849 42.1723 158.849C55.9759 158.849 66.3449 151.064 72.85 145.546C74.8672 143.832 76.6294 142.434 77.8875 141.463C78.5166 140.978 79.0197 140.6 79.3658 140.343C79.4798 140.258 79.5767 140.187 79.6555 140.129Z" fill="#4B4D53"/>
<path d="M79.6555 140.129C79.5766 140.071 79.4796 139.999 79.3655 139.914C79.0195 139.656 78.5163 139.276 77.8873 138.79C76.6292 137.817 74.8671 136.416 72.85 134.702C66.3449 129.184 55.9759 121.4 42.1723 121.4C30.9944 121.4 21.8651 126.111 15.5236 130.832C12.3537 133.191 9.88348 135.551 8.20623 137.321C7.36771 138.205 6.72765 138.942 6.29771 139.457C6.08273 139.715 5.92031 139.917 5.81189 140.054C5.78991 140.082 5.77015 140.107 5.75262 140.129C5.77013 140.152 5.78989 140.177 5.81185 140.205C5.92028 140.342 6.0827 140.544 6.29767 140.801C6.72762 141.316 7.36767 142.052 8.20619 142.936C9.88343 144.705 12.3536 147.064 15.5236 149.422C21.8651 154.14 30.9943 158.849 42.1723 158.849C55.9759 158.849 66.3449 151.064 72.85 145.546C74.8672 143.832 76.6294 142.434 77.8875 141.463C78.5166 140.978 79.0197 140.6 79.3658 140.343C79.4798 140.258 79.5767 140.187 79.6555 140.129Z" fill="url(#paint13_angular_87_82)"/>
<path d="M79.6555 140.129C79.5766 140.071 79.4796 139.999 79.3655 139.914C79.0195 139.656 78.5163 139.276 77.8873 138.79C76.6292 137.817 74.8671 136.416 72.85 134.702C66.3449 129.184 55.9759 121.4 42.1723 121.4C30.9944 121.4 21.8651 126.111 15.5236 130.832C12.3537 133.191 9.88348 135.551 8.20623 137.321C7.36771 138.205 6.72765 138.942 6.29771 139.457C6.08273 139.715 5.92031 139.917 5.81189 140.054C5.78991 140.082 5.77015 140.107 5.75262 140.129C5.77013 140.152 5.78989 140.177 5.81185 140.205C5.92028 140.342 6.0827 140.544 6.29767 140.801C6.72762 141.316 7.36767 142.052 8.20619 142.936C9.88343 144.705 12.3536 147.064 15.5236 149.422C21.8651 154.14 30.9943 158.849 42.1723 158.849C55.9759 158.849 66.3449 151.064 72.85 145.546C74.8672 143.832 76.6294 142.434 77.8875 141.463C78.5166 140.978 79.0197 140.6 79.3658 140.343C79.4798 140.258 79.5767 140.187 79.6555 140.129Z" stroke="#32353E" stroke-width="0.443213"/>
</mask>
<g mask="url(#mask3_87_82)">
<path d="M79.6551 140.129C79.5762 140.071 79.4792 139.999 79.3651 139.914C79.019 139.656 78.5159 139.277 77.8869 138.79C76.6288 137.818 74.8667 136.417 72.8496 134.703C66.3445 129.185 55.9755 121.4 42.1719 121.4C30.9939 121.4 21.8647 126.111 15.5232 130.832C12.3532 133.192 9.88305 135.552 8.2058 137.321C7.36728 138.206 6.72723 138.943 6.29728 139.458C6.08231 139.715 5.91988 139.917 5.81146 140.054C5.78948 140.082 5.76972 140.107 5.75219 140.13C5.76971 140.152 5.78946 140.177 5.81142 140.205C5.91985 140.342 6.08228 140.544 6.29724 140.802C6.72719 141.316 7.36724 142.053 8.20576 142.937C9.883 144.705 12.3532 147.064 15.5231 149.422C21.8646 154.141 30.9939 158.849 42.1719 158.849C55.9755 158.849 66.3445 151.065 72.8496 145.546C74.8668 143.833 76.629 142.434 77.8871 141.464C78.5162 140.979 79.0193 140.601 79.3654 140.343C79.4793 140.259 79.5763 140.187 79.6551 140.129Z" fill="#4B4D53"/>
<path d="M79.6551 140.129C79.5762 140.071 79.4792 139.999 79.3651 139.914C79.019 139.656 78.5159 139.277 77.8869 138.79C76.6288 137.818 74.8667 136.417 72.8496 134.703C66.3445 129.185 55.9755 121.4 42.1719 121.4C30.9939 121.4 21.8647 126.111 15.5232 130.832C12.3532 133.192 9.88305 135.552 8.2058 137.321C7.36728 138.206 6.72723 138.943 6.29728 139.458C6.08231 139.715 5.91988 139.917 5.81146 140.054C5.78948 140.082 5.76972 140.107 5.75219 140.13C5.76971 140.152 5.78946 140.177 5.81142 140.205C5.91985 140.342 6.08228 140.544 6.29724 140.802C6.72719 141.316 7.36724 142.053 8.20576 142.937C9.883 144.705 12.3532 147.064 15.5231 149.422C21.8646 154.141 30.9939 158.849 42.1719 158.849C55.9755 158.849 66.3445 151.065 72.8496 145.546C74.8668 143.833 76.629 142.434 77.8871 141.464C78.5162 140.979 79.0193 140.601 79.3654 140.343C79.4793 140.259 79.5763 140.187 79.6551 140.129Z" fill="url(#paint14_angular_87_82)"/>
<path d="M79.6551 140.129C79.5762 140.071 79.4792 139.999 79.3651 139.914C79.019 139.656 78.5159 139.277 77.8869 138.79C76.6288 137.818 74.8667 136.417 72.8496 134.703C66.3445 129.185 55.9755 121.4 42.1719 121.4C30.9939 121.4 21.8647 126.111 15.5232 130.832C12.3532 133.192 9.88305 135.552 8.2058 137.321C7.36728 138.206 6.72723 138.943 6.29728 139.458C6.08231 139.715 5.91988 139.917 5.81146 140.054C5.78948 140.082 5.76972 140.107 5.75219 140.13C5.76971 140.152 5.78946 140.177 5.81142 140.205C5.91985 140.342 6.08228 140.544 6.29724 140.802C6.72719 141.316 7.36724 142.053 8.20576 142.937C9.883 144.705 12.3532 147.064 15.5231 149.422C21.8646 154.141 30.9939 158.849 42.1719 158.849C55.9755 158.849 66.3445 151.065 72.8496 145.546C74.8668 143.833 76.629 142.434 77.8871 141.464C78.5162 140.979 79.0193 140.601 79.3654 140.343C79.4793 140.259 79.5763 140.187 79.6551 140.129Z" stroke="#32353E" stroke-width="0.443213"/>
<g filter="url(#filter22_f_87_82)">
<path d="M6.43577 140.124C6.85704 140.676 20.5884 158.399 42.1076 158.399C55.6112 158.399 65.7445 150.838 72.0751 145.506C75.673 142.474 78.4284 140.465 78.861 140.144C77.6086 140.817 57.2735 151.601 39.6938 151.601C22.1141 151.601 6.91397 140.465 6.43577 140.124Z" fill="black" fill-opacity="0.7"/>
</g>
<g filter="url(#filter23_f_87_82)">
<path d="M6.09105 140.404H36.0197C19.4153 141.141 18.9664 149.959 24.1937 154.431C20.8729 153.776 10.8955 144.91 6.09105 140.404Z" fill="black" fill-opacity="0.6"/>
</g>
<g filter="url(#filter24_f_87_82)">
<path d="M5.47282 140.124L33.6079 138.899C17.0035 138.162 18.3482 130.569 23.5755 126.096C20.2546 126.752 10.2773 135.617 5.47282 140.124Z" fill="black" fill-opacity="0.2"/>
</g>
<g filter="url(#filter25_f_87_82)">
<path d="M78.8477 140.076C65.3647 128.036 53.6457 122.344 43.5177 121.89C39.9898 122.052 33.7118 121.89 26.7901 125.156C35.2895 124.821 57.8168 128.792 66.6625 140.076H71.4212H78.8477Z" fill="url(#paint15_linear_87_82)"/>
</g>
<g filter="url(#filter26_f_87_82)">
<line y1="-0.221607" x2="73.3785" y2="-0.221607" transform="matrix(1 -7.76518e-08 -9.84233e-08 -1 5.47141 140.528)" stroke="#32353E" stroke-opacity="0.5" stroke-width="0.443213"/>
</g>
<g filter="url(#filter27_f_87_82)">
<path d="M5.47141 139.707L78.8499 139.707" stroke="#F8F8FF" stroke-opacity="0.2" stroke-width="0.443213" stroke-linecap="round"/>
</g>
</g>
<defs>
<filter id="filter0_f_87_82" x="5.85375" y="13.0958" width="132.19" height="197.337" filterUnits="userSpaceOnUse" color-interpolation-filters="sRGB">
<feFlood flood-opacity="0" result="BackgroundImageFix"/>
<feBlend mode="normal" in="SourceGraphic" in2="BackgroundImageFix" result="shape"/>
<feGaussianBlur stdDeviation="4.21616" result="effect1_foregroundBlur_87_82"/>
</filter>
<filter id="filter1_f_87_82" x="3.47907" y="139.471" width="34.0627" height="37.1475" filterUnits="userSpaceOnUse" color-interpolation-filters="sRGB">
<feFlood flood-opacity="0" result="BackgroundImageFix"/>
<feBlend mode="normal" in="SourceGraphic" in2="BackgroundImageFix" result="shape"/>
<feGaussianBlur stdDeviation="0.886426" result="effect1_foregroundBlur_87_82"/>
</filter>
<filter id="filter2_f_87_82" x="3.47907" y="139.471" width="34.0627" height="37.1475" filterUnits="userSpaceOnUse" color-interpolation-filters="sRGB">
<feFlood flood-opacity="0" result="BackgroundImageFix"/>
<feBlend mode="normal" in="SourceGraphic" in2="BackgroundImageFix" result="shape"/>
<feGaussianBlur stdDeviation="0.886426" result="effect1_foregroundBlur_87_82"/>
</filter>
<filter id="filter3_f_87_82" x="50.6481" y="22.7422" width="31.3819" height="47.9474" filterUnits="userSpaceOnUse" color-interpolation-filters="sRGB">
<feFlood flood-opacity="0" result="BackgroundImageFix"/>
<feBlend mode="normal" in="SourceGraphic" in2="BackgroundImageFix" result="shape"/>
<feGaussianBlur stdDeviation="2.65928" result="effect1_foregroundBlur_87_82"/>
</filter>
<filter id="filter4_f_87_82" x="71.3929" y="22.7422" width="31.3819" height="47.9474" filterUnits="userSpaceOnUse" color-interpolation-filters="sRGB">
<feFlood flood-opacity="0" result="BackgroundImageFix"/>
<feBlend mode="normal" in="SourceGraphic" in2="BackgroundImageFix" result="shape"/>
<feGaussianBlur stdDeviation="2.65928" result="effect1_foregroundBlur_87_82"/>
</filter>
<filter id="filter5_f_87_82" x="71.7118" y="33.774" width="26.4297" height="37.2206" filterUnits="userSpaceOnUse" color-interpolation-filters="sRGB">
<feFlood flood-opacity="0" result="BackgroundImageFix"/>
<feBlend mode="normal" in="SourceGraphic" in2="BackgroundImageFix" result="shape"/>
<feGaussianBlur stdDeviation="2.65928" result="effect1_foregroundBlur_87_82"/>
</filter>
<filter id="filter6_f_87_82" x="52.6375" y="-2.49517" width="27.5659" height="53.3307" filterUnits="userSpaceOnUse" color-interpolation-filters="sRGB">
<feFlood flood-opacity="0" result="BackgroundImageFix"/>
<feBlend mode="normal" in="SourceGraphic" in2="BackgroundImageFix" result="shape"/>
<feGaussianBlur stdDeviation="1.77285" result="effect1_foregroundBlur_87_82"/>
</filter>
<filter id="filter7_f_87_82" x="73.1695" y="-2.49517" width="27.5659" height="53.3307" filterUnits="userSpaceOnUse" color-interpolation-filters="sRGB">
<feFlood flood-opacity="0" result="BackgroundImageFix"/>
<feBlend mode="normal" in="SourceGraphic" in2="BackgroundImageFix" result="shape"/>
<feGaussianBlur stdDeviation="1.77285" result="effect1_foregroundBlur_87_82"/>
</filter>
<filter id="filter8_f_87_82" x="76.2803" y="0.162402" width="2.21609" height="66.9501" filterUnits="userSpaceOnUse" color-interpolation-filters="sRGB">
<feFlood flood-opacity="0" result="BackgroundImageFix"/>
<feBlend mode="normal" in="SourceGraphic" in2="BackgroundImageFix" result="shape"/>
<feGaussianBlur stdDeviation="0.443213" result="effect1_foregroundBlur_87_82"/>
</filter>
<filter id="filter9_f_87_82" x="75.1374" y="-0.0590337" width="2.21609" height="67.3932" filterUnits="userSpaceOnUse" color-interpolation-filters="sRGB">
<feFlood flood-opacity="0" result="BackgroundImageFix"/>
<feBlend mode="normal" in="SourceGraphic" in2="BackgroundImageFix" result="shape"/>
<feGaussianBlur stdDeviation="0.443213" result="effect1_foregroundBlur_87_82"/>
</filter>
<filter id="filter10_f_87_82" x="69.0196" y="38.1766" width="50.7928" height="66.339" filterUnits="userSpaceOnUse" color-interpolation-filters="sRGB">
<feFlood flood-opacity="0" result="BackgroundImageFix"/>
<feBlend mode="normal" in="SourceGraphic" in2="BackgroundImageFix" result="shape"/>
<feGaussianBlur stdDeviation="2.65928" result="effect1_foregroundBlur_87_82"/>
</filter>
<filter id="filter11_f_87_82" x="69.1205" y="71.2623" width="33.3653" height="33.6591" filterUnits="userSpaceOnUse" color-interpolation-filters="sRGB">
<feFlood flood-opacity="0" result="BackgroundImageFix"/>
<feBlend mode="normal" in="SourceGraphic" in2="BackgroundImageFix" result="shape"/>
<feGaussianBlur stdDeviation="2.65928" result="effect1_foregroundBlur_87_82"/>
</filter>
<filter id="filter12_f_87_82" x="64.0176" y="60.3162" width="29.3834" height="44.9416" filterUnits="userSpaceOnUse" color-interpolation-filters="sRGB">
<feFlood flood-opacity="0" result="BackgroundImageFix"/>
<feBlend mode="normal" in="SourceGraphic" in2="BackgroundImageFix" result="shape"/>
<feGaussianBlur stdDeviation="2.65928" result="effect1_foregroundBlur_87_82"/>
</filter>
<filter id="filter13_f_87_82" x="66.3753" y="39.9228" width="47.6671" height="39.6759" filterUnits="userSpaceOnUse" color-interpolation-filters="sRGB">
<feFlood flood-opacity="0" result="BackgroundImageFix"/>
<feBlend mode="normal" in="SourceGraphic" in2="BackgroundImageFix" result="shape"/>
<feGaussianBlur stdDeviation="1.77285" result="effect1_foregroundBlur_87_82"/>
</filter>
<filter id="filter14_f_87_82" x="73.3641" y="42.8079" width="38.8565" height="58.4201" filterUnits="userSpaceOnUse" color-interpolation-filters="sRGB">
<feFlood flood-opacity="0" result="BackgroundImageFix"/>
<feBlend mode="normal" in="SourceGraphic" in2="BackgroundImageFix" result="shape"/>
<feGaussianBlur stdDeviation="0.443213" result="effect1_foregroundBlur_87_82"/>
</filter>
<filter id="filter15_f_87_82" x="72.3328" y="42.1873" width="38.9246" height="58.6413" filterUnits="userSpaceOnUse" color-interpolation-filters="sRGB">
<feFlood flood-opacity="0" result="BackgroundImageFix"/>
<feBlend mode="normal" in="SourceGraphic" in2="BackgroundImageFix" result="shape"/>
<feGaussianBlur stdDeviation="0.443213" result="effect1_foregroundBlur_87_82"/>
</filter>
<filter id="filter16_f_87_82" x="43.2643" y="90.4273" width="73.3705" height="47.0868" filterUnits="userSpaceOnUse" color-interpolation-filters="sRGB">
<feFlood flood-opacity="0" result="BackgroundImageFix"/>
<feBlend mode="normal" in="SourceGraphic" in2="BackgroundImageFix" result="shape"/>
<feGaussianBlur stdDeviation="2.65928" result="effect1_foregroundBlur_87_82"/>
</filter>
<filter id="filter17_f_87_82" x="43.1274" y="109.68" width="36.5561" height="28.1942" filterUnits="userSpaceOnUse" color-interpolation-filters="sRGB">
<feFlood flood-opacity="0" result="BackgroundImageFix"/>
<feBlend mode="normal" in="SourceGraphic" in2="BackgroundImageFix" result="shape"/>
<feGaussianBlur stdDeviation="2.65928" result="effect1_foregroundBlur_87_82"/>
</filter>
<filter id="filter18_f_87_82" x="42.4303" y="102.814" width="34.3133" height="30.8249" filterUnits="userSpaceOnUse" color-interpolation-filters="sRGB">
<feFlood flood-opacity="0" result="BackgroundImageFix"/>
<feBlend mode="normal" in="SourceGraphic" in2="BackgroundImageFix" result="shape"/>
<feGaussianBlur stdDeviation="2.65928" result="effect1_foregroundBlur_87_82"/>
</filter>
<filter id="filter19_f_87_82" x="54.2399" y="88.9099" width="60.5733" height="20.5238" filterUnits="userSpaceOnUse" color-interpolation-filters="sRGB">
<feFlood flood-opacity="0" result="BackgroundImageFix"/>
<feBlend mode="normal" in="SourceGraphic" in2="BackgroundImageFix" result="shape"/>
<feGaussianBlur stdDeviation="1.77285" result="effect1_foregroundBlur_87_82"/>
</filter>
<filter id="filter20_f_87_82" x="47.0875" y="95.1978" width="65.562" height="34.7331" filterUnits="userSpaceOnUse" color-interpolation-filters="sRGB">
<feFlood flood-opacity="0" result="BackgroundImageFix"/>
<feBlend mode="normal" in="SourceGraphic" in2="BackgroundImageFix" result="shape"/>
<feGaussianBlur stdDeviation="0.443213" result="effect1_foregroundBlur_87_82"/>
</filter>
<filter id="filter21_f_87_82" x="46.3985" y="94.2759" width="65.783" height="34.7846" filterUnits="userSpaceOnUse" color-interpolation-filters="sRGB">
<feFlood flood-opacity="0" result="BackgroundImageFix"/>
<feBlend mode="normal" in="SourceGraphic" in2="BackgroundImageFix" result="shape"/>
<feGaussianBlur stdDeviation="0.443213" result="effect1_foregroundBlur_87_82"/>
</filter>
<filter id="filter22_f_87_82" x="1.1172" y="134.805" width="83.0624" height="28.9128" filterUnits="userSpaceOnUse" color-interpolation-filters="sRGB">
<feFlood flood-opacity="0" result="BackgroundImageFix"/>
<feBlend mode="normal" in="SourceGraphic" in2="BackgroundImageFix" result="shape"/>
<feGaussianBlur stdDeviation="2.65928" result="effect1_foregroundBlur_87_82"/>
</filter>
<filter id="filter23_f_87_82" x="0.772506" y="135.085" width="40.5657" height="24.6647" filterUnits="userSpaceOnUse" color-interpolation-filters="sRGB">
<feFlood flood-opacity="0" result="BackgroundImageFix"/>
<feBlend mode="normal" in="SourceGraphic" in2="BackgroundImageFix" result="shape"/>
<feGaussianBlur stdDeviation="2.65928" result="effect1_foregroundBlur_87_82"/>
</filter>
<filter id="filter24_f_87_82" x="0.15425" y="120.778" width="38.7722" height="24.6647" filterUnits="userSpaceOnUse" color-interpolation-filters="sRGB">
<feFlood flood-opacity="0" result="BackgroundImageFix"/>
<feBlend mode="normal" in="SourceGraphic" in2="BackgroundImageFix" result="shape"/>
<feGaussianBlur stdDeviation="2.65928" result="effect1_foregroundBlur_87_82"/>
</filter>
<filter id="filter25_f_87_82" x="23.2444" y="118.344" width="59.1491" height="25.2774" filterUnits="userSpaceOnUse" color-interpolation-filters="sRGB">
<feFlood flood-opacity="0" result="BackgroundImageFix"/>
<feBlend mode="normal" in="SourceGraphic" in2="BackgroundImageFix" result="shape"/>
<feGaussianBlur stdDeviation="1.77285" result="effect1_foregroundBlur_87_82"/>
</filter>
<filter id="filter26_f_87_82" x="4.58498" y="139.642" width="75.1514" height="2.21597" filterUnits="userSpaceOnUse" color-interpolation-filters="sRGB">
<feFlood flood-opacity="0" result="BackgroundImageFix"/>
<feBlend mode="normal" in="SourceGraphic" in2="BackgroundImageFix" result="shape"/>
<feGaussianBlur stdDeviation="0.443213" result="effect1_foregroundBlur_87_82"/>
</filter>
<filter id="filter27_f_87_82" x="4.36336" y="138.599" width="75.5945" height="2.21621" filterUnits="userSpaceOnUse" color-interpolation-filters="sRGB">
<feFlood flood-opacity="0" result="BackgroundImageFix"/>
<feBlend mode="normal" in="SourceGraphic" in2="BackgroundImageFix" result="shape"/>
<feGaussianBlur stdDeviation="0.443213" result="effect1_foregroundBlur_87_82"/>
</filter>
<linearGradient id="paint0_linear_87_82" x1="8.84222" y1="144.797" x2="7.02695" y2="146.34" gradientUnits="userSpaceOnUse">
<stop stop-color="#24272D"/>
<stop offset="1" stop-color="#24272D" stop-opacity="0"/>
</linearGradient>
<radialGradient id="paint1_angular_87_82" cx="0" cy="0" r="1" gradientUnits="userSpaceOnUse" gradientTransform="translate(76.7132 66.2252) rotate(-90) scale(66.2252 130.308)">
<stop stop-color="#686A74"/>
<stop offset="1" stop-color="#686A74" stop-opacity="0"/>
</radialGradient>
<radialGradient id="paint2_angular_87_82" cx="0" cy="0" r="1" gradientUnits="userSpaceOnUse" gradientTransform="translate(76.7131 66.2254) rotate(-90) scale(66.2252 130.308)">
<stop stop-color="#686A74"/>
<stop offset="1" stop-color="#686A74" stop-opacity="0"/>
</radialGradient>
<linearGradient id="paint3_linear_87_82" x1="69.7794" y1="58.5123" x2="79.0089" y2="14.7507" gradientUnits="userSpaceOnUse">
<stop stop-color="#161618"/>
<stop offset="1" stop-color="#161618" stop-opacity="0"/>
</linearGradient>
<linearGradient id="paint4_linear_87_82" x1="83.6436" y1="58.5123" x2="74.414" y2="14.7507" gradientUnits="userSpaceOnUse">
<stop stop-color="#161618"/>
<stop offset="1" stop-color="#161618" stop-opacity="0"/>
</linearGradient>
<linearGradient id="paint5_linear_87_82" x1="66.4204" y1="-6.13609" x2="76.5557" y2="37.4209" gradientUnits="userSpaceOnUse">
<stop stop-color="white"/>
<stop offset="1" stop-color="white" stop-opacity="0"/>
</linearGradient>
<linearGradient id="paint6_linear_87_82" x1="100.298" y1="-6.72467" x2="86.5763" y2="28.0346" gradientUnits="userSpaceOnUse">
<stop stop-color="white"/>
<stop offset="1" stop-color="white" stop-opacity="0"/>
</linearGradient>
<radialGradient id="paint7_angular_87_82" cx="0" cy="0" r="1" gradientUnits="userSpaceOnUse" gradientTransform="translate(73.8571 99.9378) rotate(-56.9762) scale(68.4037 126.158)">
<stop stop-color="#686A74"/>
<stop offset="1" stop-color="#686A74" stop-opacity="0"/>
</radialGradient>
<radialGradient id="paint8_angular_87_82" cx="0" cy="0" r="1" gradientUnits="userSpaceOnUse" gradientTransform="translate(73.856 99.9378) rotate(-56.9762) scale(68.4037 126.158)">
<stop stop-color="#686A74"/>
<stop offset="1" stop-color="#686A74" stop-opacity="0"/>
</radialGradient>
<linearGradient id="paint9_linear_87_82" x1="83.6606" y1="43.0574" x2="93.9657" y2="66.4694" gradientUnits="userSpaceOnUse">
<stop stop-color="white"/>
<stop offset="1" stop-color="white" stop-opacity="0"/>
</linearGradient>
<radialGradient id="paint10_angular_87_82" cx="0" cy="0" r="1" gradientUnits="userSpaceOnUse" gradientTransform="translate(47.749 128.32) rotate(-27.1497) scale(72.5648 118.924)">
<stop stop-color="#686A74"/>
<stop offset="1" stop-color="#686A74" stop-opacity="0"/>
</radialGradient>
<radialGradient id="paint11_angular_87_82" cx="0" cy="0" r="1" gradientUnits="userSpaceOnUse" gradientTransform="translate(47.7495 128.321) rotate(-27.1497) scale(72.5648 118.924)">
<stop stop-color="#686A74"/>
<stop offset="1" stop-color="#686A74" stop-opacity="0"/>
</radialGradient>
<linearGradient id="paint12_linear_87_82" x1="87.8842" y1="74.3922" x2="86.7671" y2="108.416" gradientUnits="userSpaceOnUse">
<stop stop-color="white"/>
<stop offset="1" stop-color="white" stop-opacity="0"/>
</linearGradient>
<radialGradient id="paint13_angular_87_82" cx="0" cy="0" r="1" gradientUnits="userSpaceOnUse" gradientTransform="translate(5.47277 140.124) scale(74.5584 115.744)">
<stop stop-color="#686A74"/>
<stop offset="1" stop-color="#686A74" stop-opacity="0"/>
</radialGradient>
<radialGradient id="paint14_angular_87_82" cx="0" cy="0" r="1" gradientUnits="userSpaceOnUse" gradientTransform="translate(5.47234 140.125) scale(74.5584 115.744)">
<stop stop-color="#686A74"/>
<stop offset="1" stop-color="#686A74" stop-opacity="0"/>
</radialGradient>
<linearGradient id="paint15_linear_87_82" x1="70.5858" y1="111.247" x2="53.4927" y2="141.904" gradientUnits="userSpaceOnUse">
<stop stop-color="white"/>
<stop offset="1" stop-color="white" stop-opacity="0"/>
</linearGradient>
</defs>
</svg>
